<svg id="Group_27" data-name="Group 27" xmlns="http://www.w3.org/2000/svg" xmlns:xlink="http://www.w3.org/1999/xlink" width="58.251" height="49.962" viewBox="0 0 58.251 49.962">
  <defs>
    <clipPath id="clip-path">
      <rect id="Rectangle_27" data-name="Rectangle 27" width="58.251" height="49.962" fill="none"/>
    </clipPath>
  </defs>
  <g id="Group_26" data-name="Group 26" transform="translate(0 0)" clip-path="url(#clip-path)">
    <path id="Path_1405" data-name="Path 1405" d="M11.375.809,9.311,6.978,9.4,1.408A10.8,10.8,0,0,0,7.16,2.437L5.613,8.017,5.488,3.356A5.794,5.794,0,0,0,3.943,4.741L2.881,9.408,1.955,7.793c-4.629,8.071.416,19.878.416,19.878l5.049,0L1.83,31.054A11.211,11.211,0,0,0,1.006,34.2L3.55,33.71,1.075,36.033a8.959,8.959,0,0,0,.536,1.987l2.473-2.14L2.139,39.131a6.433,6.433,0,0,0,2.3,2.744,21.444,21.444,0,0,1,10.074-13.22V32.51c18.679-2.925,25.746-7.116,25.746-7.116A22.349,22.349,0,0,0,45.7,21.629l-2.756-.862L47.5,19.659a9.184,9.184,0,0,0,1.376-1.885L44.4,17.431l5.246-1.2a12.8,12.8,0,0,0,1.031-2.142l-5.76.342L51.2,11.776a22.861,22.861,0,0,0,.769-4.542,75.857,75.857,0,0,1-13.8,6.641,84.2,84.2,0,0,1-12.6,2.785,8.241,8.241,0,0,1-5.221,2.77l3.686-.014c4.5.092,2.78,3.767,2.78,3.767-1.031-3.239-5.962.569-5.962.569l-5.149,0c0-2.879,3.2-4.318,3.2-4.318C5.07,15.832,16.019,0,16.019,0a23.131,23.131,0,0,0-4.644.809" transform="translate(0 0)" fill="#ffb220"/>
    <path id="Path_1406" data-name="Path 1406" d="M25.73,38.585,25.213,41.1s-.032.257-.388.113c0,0-1.771-.631-2.288-.711a9.724,9.724,0,0,0-2.045-.255,6.7,6.7,0,0,0-3.153.611,4.091,4.091,0,0,0-1.891,2.127,5.759,5.759,0,0,0,.437,4.719A4.663,4.663,0,0,0,20.2,49.65a7.947,7.947,0,0,0,2.457-.371s.336-.092.291-.612v-1.95s.027-.37-.436-.37H19.86a.3.3,0,0,1-.322-.306L19.1,43.981h7.663V50.76a14.569,14.569,0,0,1-6.839,1.468s-5.932.353-8.325-3.77a7.283,7.283,0,0,1-.082-6.893,7.426,7.426,0,0,1,4.786-3.51,15.375,15.375,0,0,1,9.424.531" transform="translate(-0.659 -2.315)" fill="#000001"/>
    <path id="Path_1407" data-name="Path 1407" d="M29.635,45.112a6.886,6.886,0,0,1,3.249-6.039A11.293,11.293,0,0,1,38.8,37.591a13.984,13.984,0,0,1,4.9.87l-.5,2.546s-.1.321-.356.16a8.468,8.468,0,0,0-3.621-.871,5.613,5.613,0,0,0-4.041,1.482A4.814,4.814,0,0,0,34.049,45.1a4.576,4.576,0,0,0,2.1,3.736,6.212,6.212,0,0,0,3.039.741,8.846,8.846,0,0,0,3.978-1.063s.258-.16.323.1l.533,2.641a13.194,13.194,0,0,1-5.318,1.03A12.032,12.032,0,0,1,32.723,50.7a6.865,6.865,0,0,1-3.088-5.589" transform="translate(-1.827 -2.318)" fill="#000001"/>
    <path id="Path_1408" data-name="Path 1408" d="M60.219,45.774a6.42,6.42,0,0,0-2.91-1.255,8.367,8.367,0,0,0,1.746-.741,2.73,2.73,0,0,0,1.359-2.287,2.832,2.832,0,0,0-.938-2.256C57.86,37.762,54.3,37.85,54.3,37.85H46.982a.251.251,0,0,0-.278.219V51.732a.2.2,0,0,0,.227.226h7.4a10.874,10.874,0,0,0,4.283-.708c2.731-1.112,2.507-3.222,2.507-3.222a2.831,2.831,0,0,0-.907-2.254m-4.51-2.546a3.329,3.329,0,0,1-1.924.436H50.875V40.122h3.1a3.884,3.884,0,0,1,1.713.37,1.518,1.518,0,0,1,.825,1.321,1.629,1.629,0,0,1-.809,1.416m.4,5.991a3.981,3.981,0,0,1-2.1.463H50.875V45.7h3.349a4.063,4.063,0,0,1,1.849.417,1.7,1.7,0,0,1,.889,1.484,1.665,1.665,0,0,1-.848,1.62" transform="translate(-2.88 -2.334)" fill="#000001"/>
  </g>
</svg>
