<svg id="Group_3" data-name="Group 3" xmlns="http://www.w3.org/2000/svg" xmlns:xlink="http://www.w3.org/1999/xlink" width="129.779" height="45.41" viewBox="0 0 129.779 45.41">
  <defs>
    <linearGradient id="linear-gradient" x1="-0.005" y1="0.325" x2="-0.012" y2="0.845" gradientUnits="objectBoundingBox">
      <stop offset="0" stop-color="#00b0de"/>
      <stop offset="1" stop-color="#005c9c"/>
    </linearGradient>
  </defs>
  <g id="NEDDCo_logotype" transform="translate(60.088 13.806)">
    <path id="Path_1386" data-name="Path 1386" d="M0,.427H3.086l7.269,11.221V.427h3.223V17.481h-3.1L3.224,6.3V17.481H0Zm15.317,0h9.25V3.6H18.521V6.687h6.046V9.809H18.521v4.483h6.046v3.189h-9.25Zm10.607,0h3.825a12.538,12.538,0,0,1,5.492.922,7.18,7.18,0,0,1,2.96,3,9.738,9.738,0,0,1,1.164,4.843,9.85,9.85,0,0,1-.649,3.624,7.6,7.6,0,0,1-1.8,2.742,6.417,6.417,0,0,1-2.484,1.507,17.644,17.644,0,0,1-4.631.415h-3.88Zm3.216,3.13V14.3h1.494a7.458,7.458,0,0,0,3.208-.51,3.867,3.867,0,0,0,1.631-1.713,6.339,6.339,0,0,0,.633-2.967A5.664,5.664,0,0,0,34.6,4.9a6.025,6.025,0,0,0-4.364-1.345Zm27.2-.127L54.084,5.6A6.978,6.978,0,0,0,48.9,3.154a5.558,5.558,0,0,0-4.1,1.67,5.6,5.6,0,0,0-1.663,4.115,6.089,6.089,0,0,0,.735,3.023,5.3,5.3,0,0,0,2.084,2.077,6.039,6.039,0,0,0,3,.752,6.164,6.164,0,0,0,2.571-.526,9.162,9.162,0,0,0,2.555-1.919l2.19,2.295a12.012,12.012,0,0,1-3.55,2.556,9.631,9.631,0,0,1-3.813.712,8.624,8.624,0,0,1-8.983-8.982,8.871,8.871,0,0,1,1.148-4.534,8.509,8.509,0,0,1,3.282-3.185A9.206,9.206,0,0,1,48.957,0a9.515,9.515,0,0,1,4.037.894A9.644,9.644,0,0,1,56.34,3.43Zm6.7,1.112a6.639,6.639,0,0,1,3.338.894,6.435,6.435,0,0,1,2.433,2.421,6.521,6.521,0,0,1,.876,3.3,6.678,6.678,0,0,1-.88,3.339,6.4,6.4,0,0,1-2.4,2.429,6.62,6.62,0,0,1-3.353.874,6.23,6.23,0,0,1-4.6-1.931,6.426,6.426,0,0,1-1.907-4.689A6.4,6.4,0,0,1,58.7,6.26,6.265,6.265,0,0,1,63.044,4.542Zm.047,2.979A3.222,3.222,0,0,0,60.654,8.55a3.659,3.659,0,0,0-.971,2.623,3.712,3.712,0,0,0,.963,2.667,3.2,3.2,0,0,0,2.433,1.021,3.239,3.239,0,0,0,2.453-1.033,3.7,3.7,0,0,0,.979-2.655,3.674,3.674,0,0,0-.959-2.635,3.249,3.249,0,0,0-2.461-1.017Z" transform="translate(0 0)" fill="#0a2240" fill-rule="evenodd"/>
  </g>
  <g id="NECo_icon">
    <g id="Fill-1">
      <path id="Path_1387" data-name="Path 1387" d="M-144.316-78.592-117.9-124l26.44,45.411Z" transform="translate(144.316 123.995)" fill="#b4372e" fill-rule="evenodd"/>
    </g>
    <g id="Fill-2" transform="translate(2.629 3.031)">
      <path id="Path_1388" data-name="Path 1388" d="M-129.876-70.724l23.782-40.868,23.782,40.868Z" transform="translate(129.876 111.592)" fill-rule="evenodd" fill="url(#linear-gradient)"/>
    </g>
    <g id="Fill-5" transform="translate(2.426 2.829)">
      <path id="Path_1389" data-name="Path 1389" d="M37.413,15.548v.2L13.634,56.618l-.354-.2L37.059,15.549Zm0,.2-.354-.2.005-.009.006-.008.006-.008.007-.008.007-.007L37.1,15.5,37.1,15.5l.008-.006.008-.006.008-.005.008,0,.009,0,.009,0,.009,0,.009,0,.009,0,.01,0,.01,0h.059l.01,0,.01,0,.01,0,.01,0,.01,0,.009,0,.009,0,.009,0,.009.005.008.006.008.006.008.006.007.007.007.007.007.007.006.008.006.008.005.008,0,.008,0,.009,0,.009,0,.009,0,.009,0,.009,0,.009,0,.01v.058l0,.01,0,.01,0,.01,0,.01,0,.01,0,.009,0,.009ZM61.019,56.72l-.177-.1L37.059,15.752l.354-.2L61.2,56.416Zm-.177-.1.354-.2,0,.009,0,.009,0,.009,0,.01,0,.01,0,.01,0,.01v.068l0,.01,0,.009,0,.009,0,.009,0,.009,0,.009,0,.009,0,.009-.005.008-.006.008-.006.008-.007.008-.007.007-.008.007-.008.007-.008.006-.009.006-.009.006-.009,0-.009,0-.009,0-.01,0-.01,0-.01,0-.01,0h-.069l-.01,0-.01,0-.009,0-.009,0-.009,0-.009,0-.009,0-.009,0-.008-.005L60.9,56.68l-.008-.006-.008-.007-.007-.007-.007-.007-.007-.008-.006-.008-.006-.009Zm-47.562-.2.177-.1H61.019v.405H13.457Zm.177-.1v.405h-.031l-.01,0-.01,0-.01,0-.01,0-.009,0-.009,0-.009,0-.009,0-.008-.005-.008-.006-.008-.006-.007-.006-.007-.007-.007-.007-.006-.007-.006-.008-.006-.008-.005-.008,0-.008,0-.009,0-.009,0-.009,0-.009,0-.01,0-.01,0-.01v-.062l0-.01,0-.01,0-.01,0-.009,0-.009,0-.009,0-.009,0-.008.005-.008.006-.008.006-.008.006-.007.007-.007.007-.007.007-.006.008-.006.008-.006.008-.005.009,0,.009,0,.009,0,.009,0,.01,0,.01,0,.01,0,.01,0h.031Z" transform="translate(-13.253 -15.448)" fill="#fffffe" fill-rule="evenodd"/>
    </g>
    <g id="Fill-6" transform="translate(14.793 16.942)">
      <path id="Path_1390" data-name="Path 1390" d="M-51.824-54.514-63.449-34.563l23.237.014Z" transform="translate(63.449 54.514)" fill="#ffe511" fill-rule="evenodd"/>
    </g>
    <g id="Fill-7" transform="translate(16.652 19.108)">
      <path id="Path_1391" data-name="Path 1391" d="M-53.27-28.942l9.761-16.713,9.748,16.72Z" transform="translate(53.27 45.655)" fill="#b4372e" fill-rule="evenodd"/>
    </g>
    <g id="Fill-8" transform="translate(10.245 15.445)">
      <path id="Path_1392" data-name="Path 1392" d="M58.716,104.585l-2.75-1.648.27-.443,2.4.178-1.836-1.1.258-.424,2.75,1.648-.279.458-2.346-.167,1.793,1.075Zm.075-3.166a2.252,2.252,0,0,1-.721-.63,1.265,1.265,0,0,1-.243-.664,1.174,1.174,0,0,1,.191-.662,1.152,1.152,0,0,1,.85-.567,2.284,2.284,0,0,1,2.12,1.3,1.1,1.1,0,0,1-.125.974,1.126,1.126,0,0,1-.81.569A1.891,1.891,0,0,1,58.791,101.418Zm.267-.48a1.367,1.367,0,0,0,.821.247.641.641,0,0,0,.51-.3.622.622,0,0,0,.035-.585A1.81,1.81,0,0,0,59,99.434a.653.653,0,0,0-.547.9A1.373,1.373,0,0,0,59.058,100.939ZM61.8,99.515l-2.75-1.648.584-.958a1.576,1.576,0,0,1,.394-.481.687.687,0,0,1,.414-.1,1.039,1.039,0,0,1,.5.161.947.947,0,0,1,.426.466.8.8,0,0,1-.021.588,1.349,1.349,0,0,1,.377-.1,3.784,3.784,0,0,1,.606.007l.7.048-.33.541-.8-.029a4.558,4.558,0,0,0-.553,0,.427.427,0,0,0-.2.068.73.73,0,0,0-.17.21l-.057.094,1.148.688ZM60.493,98.11l.206-.338a2,2,0,0,0,.213-.41.29.29,0,0,0-.026-.2.473.473,0,0,0-.188-.184.447.447,0,0,0-.243-.074.315.315,0,0,0-.2.077,2.1,2.1,0,0,0-.245.357l-.217.356Zm3.11-1.549-2.284-1.369-.408.669-.465-.279,1.091-1.791L62,94.07l-.407.667,2.284,1.369Zm.97-1.593-2.75-1.648.276-.454,1.082.649.544-.893-1.082-.649.278-.456,2.75,1.648-.278.456-1.2-.721-.544.893,1.2.721Zm1.491-2.448-2.75-1.648L64.333,89.2l.465.279L64.055,90.7l.609.365.69-1.133.463.277-.69,1.133.748.449.767-1.26.464.278Zm1.386-2.275L64.7,88.6l.584-.958a1.578,1.578,0,0,1,.394-.481.687.687,0,0,1,.414-.1,1.039,1.039,0,0,1,.5.161.947.947,0,0,1,.426.466.8.8,0,0,1-.021.588,1.343,1.343,0,0,1,.377-.1,3.8,3.8,0,0,1,.607.007l.7.048-.33.541-.8-.029a4.557,4.557,0,0,0-.553,0,.426.426,0,0,0-.2.067.736.736,0,0,0-.17.21l-.057.094,1.148.688ZM66.138,88.84l.206-.338a2.006,2.006,0,0,0,.213-.41.291.291,0,0,0-.026-.2.474.474,0,0,0-.188-.184.447.447,0,0,0-.243-.074.315.315,0,0,0-.2.077,2.1,2.1,0,0,0-.245.357l-.217.356Zm2.8-1.047-2.75-1.648.27-.443,2.4.178-1.836-1.1.258-.424L70.031,86l-.279.457-2.346-.167L69.2,87.37Z" transform="translate(-55.966 -84.356)" fill="#fffffe" fill-rule="evenodd"/>
    </g>
    <g id="Fill-9" transform="translate(7.871 38.835)">
      <path id="Path_1393" data-name="Path 1393" d="M42.992,215.6v-3.5H44a1.9,1.9,0,0,1,.568.064.976.976,0,0,1,.441.306,1.6,1.6,0,0,1,.291.56,2.738,2.738,0,0,1,.1.8,2.562,2.562,0,0,1-.177,1.009,1.231,1.231,0,0,1-.455.588,1.362,1.362,0,0,1-.726.173Zm.386-.413H44a1.086,1.086,0,0,0,.57-.121.757.757,0,0,0,.3-.388,2.363,2.363,0,0,0,.138-.853,1.962,1.962,0,0,0-.147-.837.8.8,0,0,0-.378-.407,1.283,1.283,0,0,0-.493-.069h-.611Zm2.694.413v-3.5h.386v3.5Zm.986-1.125.364-.038a1.03,1.03,0,0,0,.132.45.734.734,0,0,0,.295.259.934.934,0,0,0,.431.1.785.785,0,0,0,.535-.166.544.544,0,0,0,.19-.431.488.488,0,0,0-.278-.461,3.834,3.834,0,0,0-.6-.208,2.142,2.142,0,0,1-.587-.241.842.842,0,0,1-.272-.31.9.9,0,0,1-.1-.424.927.927,0,0,1,.279-.695,1.036,1.036,0,0,1,.753-.27,1.227,1.227,0,0,1,.569.126.916.916,0,0,1,.378.363,1.188,1.188,0,0,1,.144.557l-.371.033a.751.751,0,0,0-.208-.506.708.708,0,0,0-.5-.165.759.759,0,0,0-.5.144.465.465,0,0,0-.172.374.426.426,0,0,0,.126.329,1.519,1.519,0,0,0,.568.236,3.848,3.848,0,0,1,.606.2.912.912,0,0,1,.538.874,1.081,1.081,0,0,1-.142.549.96.96,0,0,1-.39.376,1.269,1.269,0,0,1-.593.129,1.172,1.172,0,0,1-.863-.319A1.211,1.211,0,0,1,47.058,214.475Zm3.651,1.125v-3.088h-.96V212.1H52.06v.413h-.966V215.6Zm1.8,0v-3.5H53.8a1.387,1.387,0,0,1,.6.1.757.757,0,0,1,.316.326,1.091,1.091,0,0,1,.123.529.954.954,0,0,1-.21.642.343.343,0,1,0-.363.506,2.426,2.426,0,0,1,.3.447l.509.953h-.485l-.388-.729a4.552,4.552,0,0,0-.341-.576.672.672,0,0,0-.223-.2.721.721,0,0,0-.3-.051h-.446V215.6Zm.386-1.956h.83a1.026,1.026,0,0,0,.412-.065.489.489,0,0,0,.223-.2.613.613,0,0,0,.083-.322.551.551,0,0,0-.158-.417.649.649,0,0,0-.468-.152h-.922Zm2.687,1.956v-3.5h.386v3.5Zm1.1,0v-3.5h1.095a1.142,1.142,0,0,1,.526.1.786.786,0,0,1,.318.316.932.932,0,0,1,.124.475.883.883,0,0,1-.107.435.822.822,0,0,1-.3.311.79.79,0,0,1,.4.309.947.947,0,0,1,.147.539,1.14,1.14,0,0,1-.132.558.817.817,0,0,1-.353.349,1.4,1.4,0,0,1-.607.108Zm.386-2.03H57.7a1.3,1.3,0,0,0,.352-.033.436.436,0,0,0,.231-.169.554.554,0,0,0,.082-.321.605.605,0,0,0-.074-.314.391.391,0,0,0-.2-.174,1.384,1.384,0,0,0-.44-.047h-.585Zm0,1.617h.725a1.062,1.062,0,0,0,.354-.043.478.478,0,0,0,.251-.2.681.681,0,0,0,.086-.357.639.639,0,0,0-.083-.336.49.49,0,0,0-.222-.2,1.121,1.121,0,0,0-.437-.063h-.675Zm4.307-3.088h.387v2.024a2.88,2.88,0,0,1-.1.834.96.96,0,0,1-.367.515,1.136,1.136,0,0,1-.675.188,1.07,1.07,0,0,1-.865-.339,1.889,1.889,0,0,1-.287-1.2V212.1h.386v2.021a2.235,2.235,0,0,0,.075.687.612.612,0,0,0,.246.324.746.746,0,0,0,.416.112.726.726,0,0,0,.6-.23,1.508,1.508,0,0,0,.186-.893Zm1.839,3.5v-3.088h-.96V212.1h2.312v.413H63.6V215.6Zm1.872,0v-3.5h.386v3.5Zm1.007-1.706a2.1,2.1,0,0,1,.4-1.377,1.248,1.248,0,0,1,1-.481,1.227,1.227,0,0,1,.7.215,1.447,1.447,0,0,1,.5.624,2.356,2.356,0,0,1,.185.975,2.091,2.091,0,0,1-.359,1.269,1.257,1.257,0,0,1-2.074-.014A2.04,2.04,0,0,1,66.09,213.894Zm.4.007a1.552,1.552,0,0,0,.29,1,.879.879,0,0,0,1.417,0,1.678,1.678,0,0,0,.287-1.061,2.087,2.087,0,0,0-.148-.807,1,1,0,0,0-.344-.436.842.842,0,0,0-.5-.164.877.877,0,0,0-.719.359A1.777,1.777,0,0,0,66.488,213.9Zm2.926,1.7v-3.5h.4l1.533,2.749V212.1h.369v3.5h-.4l-1.531-2.751V215.6Zm6.268-1.228.388.117a1.612,1.612,0,0,1-.45.88,1.124,1.124,0,0,1-.783.29,1.2,1.2,0,0,1-.692-.195,1.37,1.37,0,0,1-.47-.625,2.564,2.564,0,0,1-.184-1.015,2.332,2.332,0,0,1,.184-.978,1.38,1.38,0,0,1,.5-.6,1.25,1.25,0,0,1,.7-.2,1.079,1.079,0,0,1,.725.259,1.4,1.4,0,0,1,.425.761l-.378.108q-.194-.731-.778-.731a.869.869,0,0,0-.505.147.987.987,0,0,0-.34.457,2.083,2.083,0,0,0-.127.786,1.856,1.856,0,0,0,.257,1.079.8.8,0,0,0,.685.359.756.756,0,0,0,.544-.221A1.187,1.187,0,0,0,75.682,214.372Zm.818-.478a2.1,2.1,0,0,1,.4-1.377,1.249,1.249,0,0,1,1-.481,1.227,1.227,0,0,1,.7.215,1.447,1.447,0,0,1,.5.624,2.356,2.356,0,0,1,.185.975,2.092,2.092,0,0,1-.358,1.269,1.257,1.257,0,0,1-2.074-.014A2.039,2.039,0,0,1,76.5,213.894Zm.4.007a1.551,1.551,0,0,0,.29,1,.879.879,0,0,0,1.417,0,1.678,1.678,0,0,0,.287-1.061,2.088,2.088,0,0,0-.148-.807,1,1,0,0,0-.344-.436.842.842,0,0,0-.5-.164.877.877,0,0,0-.719.359A1.777,1.777,0,0,0,76.9,213.9Zm3,1.7v-.49H80.3v.49Z" transform="translate(-42.992 -212.036)" fill="#fffffe" fill-rule="evenodd"/>
    </g>
    <g id="Fill-10" transform="translate(28.39 14.776)">
      <path id="Path_1394" data-name="Path 1394" d="M155.032,82.286l2.777-1.6.99,1.69-.47.271-.722-1.231-.616.355.671,1.144-.468.27-.671-1.144-.756.436.746,1.273-.468.27Zm1.25,2.133,2.755-1.589.269.458-2.287,1.319.67,1.144-.468.27Zm1.132,1.932,2.777-1.6.99,1.69-.47.271-.722-1.232-.616.355.671,1.144-.467.27-.671-1.144-.756.436.746,1.273-.468.27Zm3.118,2.988.089.545a1.455,1.455,0,0,1-.885.047,1.083,1.083,0,0,1-.644-1.392,1.894,1.894,0,0,1,.882-.935,2.009,2.009,0,0,1,1.3-.321,1.061,1.061,0,0,1,.787.547,1,1,0,0,1,.114.791,1.3,1.3,0,0,1-.394.587l-.4-.378a.7.7,0,0,0,.244-.373.5.5,0,0,0-.059-.375.568.568,0,0,0-.461-.284,1.464,1.464,0,0,0-.819.259,1.542,1.542,0,0,0-.655.586.543.543,0,0,0,.015.531.487.487,0,0,0,.325.233A1.037,1.037,0,0,0,160.531,89.339Zm-.229,1.939,2.307-1.331-.4-.676.47-.271,1.06,1.809-.47.271-.4-.674-2.307,1.331Zm.839,1.432,2.777-1.6.567.968a1.566,1.566,0,0,1,.236.574.672.672,0,0,1-.106.411,1.031,1.031,0,0,1-.383.357.957.957,0,0,1-.616.147.814.814,0,0,1-.51-.3,1.317,1.317,0,0,1-.089.378,3.735,3.735,0,0,1-.3.524l-.38.589-.321-.547.409-.682a4.5,4.5,0,0,0,.267-.481.418.418,0,0,0,.034-.2.729.729,0,0,0-.1-.249l-.056-.095-1.159.669Zm1.872-.466.2.341a2.007,2.007,0,0,0,.26.382.3.3,0,0,0,.192.075.481.481,0,0,0,.253-.075.443.443,0,0,0,.182-.176.308.308,0,0,0,.026-.208,2.087,2.087,0,0,0-.2-.385l-.211-.36Zm-.535,2.747,2.777-1.6.269.458-2.777,1.6Zm2.4,1.767.089.545a1.456,1.456,0,0,1-.885.047,1.083,1.083,0,0,1-.644-1.392,1.893,1.893,0,0,1,.882-.935,2.009,2.009,0,0,1,1.3-.321,1.061,1.061,0,0,1,.787.547,1,1,0,0,1,.114.791,1.3,1.3,0,0,1-.394.587l-.4-.378a.7.7,0,0,0,.245-.373.5.5,0,0,0-.059-.375.568.568,0,0,0-.461-.284,1.464,1.464,0,0,0-.819.26,1.542,1.542,0,0,0-.655.586.543.543,0,0,0,.015.531.487.487,0,0,0,.325.233A1.036,1.036,0,0,0,164.879,96.757Zm-.538,1.413,2.777-1.6.269.458-2.777,1.6Zm.827,1.411,2.307-1.331-.4-.676.47-.271,1.06,1.809-.47.271-.4-.674-2.307,1.331Zm1.189,2.028,1.169-.674,1.12-1.761.315.538-.785,1.17,1.407-.107.31.528-2.1.093-1.165.672Z" transform="translate(-155.032 -80.684)" fill="#fffffe" fill-rule="evenodd"/>
    </g>
    <g id="Fill-11" transform="translate(22.503 19.06)">
      <path id="Path_1395" data-name="Path 1395" d="M123.805,113.675h1.7q0-.026-.005-.052a2.808,2.808,0,0,0-.45-1.463,2,2,0,0,0-1.037-.726.73.73,0,0,1-.386-.248,1.018,1.018,0,0,1-.177-.965,1.063,1.063,0,0,1,.688-.684,24.79,24.79,0,0,1,4.6-1.293q.457-.078.879-.13t.864-.082h0a.728.728,0,1,1,.1,1.452h0c-.244.017-.506.043-.784.077s-.546.073-.81.119a22.449,22.449,0,0,0-3.471.9,3.234,3.234,0,0,1,.726.734,4.211,4.211,0,0,1,.72,2.209.727.727,0,0,1-.005.149h.432a3.05,3.05,0,0,1,1.565-3.235,4.507,4.507,0,0,1,.731-.334,5.994,5.994,0,0,1,.767-.217l.058-.014h0a.729.729,0,1,1,.287,1.43h0l-.039.007a4.486,4.486,0,0,0-.573.161,3.023,3.023,0,0,0-.49.226,1.752,1.752,0,0,0-.824,1.976h1.493c.2,3.043-.19,5.105-1.452,5.756v.384l-3.634.012-.013-.355Q123.282,118.053,123.805,113.675Zm.265-6.744a.737.737,0,0,1-1.025-.157.724.724,0,0,1,.158-1.017,8.047,8.047,0,0,1,5.158-1.672.726.726,0,1,1,0,1.452,7.227,7.227,0,0,0-2.052.251A7.135,7.135,0,0,0,124.07,106.931Zm.183,2.083a.736.736,0,0,1-1.025-.145.723.723,0,0,1,.146-1.017h0a6.556,6.556,0,0,1,.96-.588,9.9,9.9,0,0,1,1.076-.459,13.936,13.936,0,0,1,5.243-.819.728.728,0,1,1-.155,1.447,12.261,12.261,0,0,0-4.589.739,8.281,8.281,0,0,0-.91.39,5.167,5.167,0,0,0-.748.451Zm1.377,11.343h2.9v1.094q0,.029,0,.058a1.442,1.442,0,0,1-.919,1.34.537.537,0,0,1-1.067,0,1.441,1.441,0,0,1-.919-1.34c0-.02,0-.04,0-.06Z" transform="translate(-122.903 -104.086)" fill="#fffffe" fill-rule="evenodd"/>
    </g>
    <g id="Fill-12" transform="translate(22.401 18.958)">
      <path id="Path_1396" data-name="Path 1396" d="M125.15,113.208l-.1.115h-1.7v-.2h1.7Zm-.1.115v-.2h.03l0,0,0,0,0,0,0,0,0,0,0,0,0,0,0,0,0,0,0,0,0,0,0,0,0,0,0,0,0,0,0,0,0,0,0,0,0,0,0,0v.06l0,0,0,0,0,0,0,0,0,0,0,0,0,0,0,0,0,0,0,0,0,0,0,0,0,0,0,0,0,0,0,0,0,0,0,0,0,0,0,0h-.03Zm-.107-.147.2-.013h0v.009h0v.016h0v.012h0v.005h0l-.2.027v0h0v-.023h0v-.025h0v0Zm.2-.013-.2.013v-.035l0,0,0,0,0,0,0,0,0,0,0,0,0,0,0,0,0,0,0,0,0,0,0,0,0,0,0,0,0,0,0,0,0,0,0,0,0,0,0,0,0,0h.056l0,0,0,0,0,0,0,0,0,0,0,0,0,0,0,0,0,0,0,0,0,0,0,0,0,0,0,0,0,0,0,0,0,0,0,0,0,0,0,0,0,0v.02Zm-.635-1.4.167-.118h0l.025.036.025.037.024.038.023.038.022.039.022.04.021.041.021.041.02.042.019.042.018.044.017.044.017.045.016.046.016.046.015.047.015.048.014.048.013.049.012.05.012.051.011.051.01.052.01.053.009.053.008.054.007.055.007.056.006.056.005.057.005.058,0,.058-.2.013,0-.056,0-.055-.005-.054-.006-.054-.006-.053-.007-.052-.008-.051-.009-.051-.009-.05-.01-.049-.011-.048-.011-.047-.011-.047-.012-.046-.013-.045-.013-.045-.014-.043-.015-.043-.015-.042-.015-.042-.017-.04-.017-.04-.017-.039-.018-.038-.018-.038-.019-.037-.019-.036-.021-.035-.021-.035-.021-.034-.022-.033Zm.167-.118-.167.118,0,0,0,0,0,0,0,0,0,0,0,0v-.063l0,0,0,0,0,0,0,0,0,0,0,0,0,0,0,0,0,0,0,0,0,0,0,0,0,0,0,0,0,0,0,0,0,0,0,0,0,0h.063l0,0,0,0,0,0,0,0,0,0,0,0,0,0,0,0,0,0,0,0,0,0,0,0Zm-1.146-.569.051-.2.006,0,.044.015.043.015.042.016.042.017.041.017.04.018.04.018.039.019.039.019.038.02.038.021.037.021.036.022.036.023.035.023.034.024.034.024.033.025.033.025.032.026.031.027.031.027.03.027.029.028.029.029.028.029.027.03.027.03.026.031.026.032.025.032.024.033-.167.118-.022-.029-.022-.029-.022-.028-.023-.028-.024-.027-.025-.027-.025-.026-.026-.026-.026-.025-.027-.025-.027-.024-.028-.023-.029-.023-.029-.023-.03-.022-.03-.022-.031-.021-.032-.021L124,111.3l-.033-.02-.034-.019-.034-.018-.035-.018-.035-.018-.036-.017-.036-.017-.038-.016-.038-.016-.038-.015-.039-.014-.04-.015-.04-.014Zm.058-.194-.064.192,0,0,0,0,0,0,0,0,0,0,0,0,0,0,0,0,0,0,0,0,0,0,0,0,0,0,0,0,0,0,0,0,0,0,0,0,0,0v-.059l0,0,0,0,0,0,0,0,0,0,0,0,0,0,0,0,0,0,0,0,0,0,0,0,0,0,0,0,0,0,0,0,0,0,0,0,0,0,0,0h.064Zm-.5-.088.159-.127h0l.009.01.009.01.008.01.009.009.009.009.009.009.009.009.01.009.009.009.009.008.01.008.01.008.01.007.01.007.01.007.01.007.011.006.011.007.01.006.011.006.012.006.011.006.011.005.011,0,.011,0,.011,0,.012,0,.011,0,.012,0,.012,0,.011,0,.012,0-.051.2-.015,0-.016,0-.016,0-.015-.005-.015-.005-.015-.006-.015-.006-.015-.006-.015-.007-.015-.007-.015-.007-.014-.007-.015-.008-.014-.008-.014-.008-.014-.009-.014-.009-.014-.009-.014-.01-.013-.01-.013-.01-.013-.01-.013-.011-.013-.011-.012-.011-.012-.012-.012-.012-.012-.012-.012-.013-.012-.013-.011-.013Zm.159-.127-.159.127,0,0,0,0,0,0,0,0,0,0,0,0,0,0V110.7l0,0,0,0,0,0,0,0,0,0,0,0,0,0,0,0,0,0,0,0,0,0,0,0,0,0,0,0,0,0,0,0,0,0,0,0,0,0h.063l0,0,0,0,0,0,0,0,0,0,0,0,0,0,0,0,0,0,0,0,0,0Zm-.359-.244.2-.06h0l0,.01,0,.01,0,.01,0,.01,0,.01,0,.01,0,.01,0,.01,0,.01,0,.01,0,.009,0,.01,0,.01,0,.01,0,.009,0,.009.005.01.005.009.005.009.006.01.006.009.006.01.006.009.006.009.006.009.006.009.007.009.006.009.007.009.007.01.007.009.007.009-.159.127-.009-.011-.008-.011-.008-.01-.008-.011-.008-.011-.007-.011-.008-.011-.008-.012-.007-.011-.007-.011-.007-.011-.007-.012-.007-.011-.007-.012-.006-.012-.006-.011-.007-.012-.006-.012-.006-.012-.006-.011-.006-.012-.006-.012-.005-.012,0-.012,0-.012,0-.012,0-.012,0-.012,0-.012,0-.012,0-.012Zm.2-.06-.2.06v-.059l0,0,0,0,0,0,0,0,0,0,0,0,0,0,0,0,0,0,0,0,0,0,0,0,0,0,0,0,0,0,0,0,0,0,0,0,0,0,.005,0h.06l0,0,0,0,0,0,0,0,0,0,0,0,0,0,0,0,0,0,0,0,0,0,0,0,0,0,0,0,0,0,0,0,0,0,0,0,0,0Zm-.19-.628.195.062h0l-.005.017-.005.017,0,.017,0,.017,0,.018,0,.017,0,.017,0,.017,0,.018,0,.018,0,.018,0,.018,0,.018v.144l0,.018,0,.018,0,.018,0,.018,0,.018,0,.018,0,.018,0,.018,0,.018,0,.018.006.017-.2.06-.006-.022-.006-.022-.006-.022-.005-.022,0-.022,0-.022,0-.021,0-.022,0-.022,0-.022,0-.022v-.174l0-.022,0-.022,0-.022,0-.021,0-.021,0-.022,0-.021,0-.021,0-.021.005-.021.006-.021.006-.021Zm.195.062-.195-.062,0,0,0,0,0,0,0,0,0,0,0,0,0,0,0,0,0,0,0,0,0,0,0,0,0,0,0,0,0,0,0,0,0,0,0,0,0,0h.064l0,0,0,0,0,0,0,0,0,0,0,0,0,0,0,0,0,0,0,0,0,0,0,0,0,0,0,0,0,0,0,0,0,0,0,0,0,0v.064Zm.186-.612.128.158h0l-.014.011-.014.011-.013.012-.013.012-.013.012-.013.012-.012.013-.012.013-.012.013-.012.013-.011.013-.011.014-.011.014-.01.014-.011.014-.01.014-.01.014-.01.015-.009.015-.009.015-.009.015-.008.015-.008.015-.008.016-.008.016-.007.016-.007.016-.007.016-.006.016-.006.016-.006.016-.006.017-.195-.062.006-.02.007-.02.007-.02.008-.019.008-.019.008-.02.009-.019.009-.019.009-.019.01-.019.01-.018.01-.018.011-.018.011-.018.011-.018.012-.018.012-.017.012-.017.013-.017.013-.017.013-.016.014-.016.014-.016.014-.016.015-.016.015-.015.015-.015.016-.015.016-.015.016-.014.017-.014.017-.014Zm.128.158-.127-.158,0,0,0,0,0,0,0,0,0,0,0,0,0,0h.063l0,0,0,0,0,0,0,0,0,0,0,0,0,0,0,0,0,0,0,0,0,0,0,0,0,0,0,0,0,0,0,0,0,0,0,0,0,0v.062l0,0,0,0,0,0,0,0,0,0,0,0,0,0,0,0,0,0,0,0,0,0Zm.24-.356.074.189-.006,0-.011,0-.011,0-.01,0-.01,0-.011,0-.011,0-.01,0-.01,0-.01,0-.01,0-.01,0-.01,0-.01.005-.01,0-.009.005-.01,0-.01.005-.009.005-.01.005-.009.006-.01.006-.009.006-.009.006-.009.006-.009.006-.009.006-.009.006-.008.006-.009.006-.009.007-.009.006-.008.007-.128-.158.011-.008.01-.008.01-.008.01-.008.011-.008.011-.008.011-.007.011-.008.011-.007.011-.007.011-.007.011-.006.012-.007.011-.007.012-.006.011-.006.011-.006.012-.006.012-.006.012-.006.012-.006.012-.005.012-.005.012-.006.013-.005.013,0,.012,0,.012,0,.013,0,.013,0,.013,0,.013,0Zm.068.191-.063-.193h.064l0,0,0,0,0,0,0,0,0,0,0,0,0,0,0,0,0,0,0,0,0,0,0,0,0,0,0,0,0,0,0,0,0,0,0,0,0,0v.064l0,0,0,0,0,0,0,0,0,0,0,0,0,0,0,0,0,0,0,0,0,0,0,0,0,0,0,0,0,0,0,0,0,0,0,0Zm4.556-1.49.034.2h0l-.139.024-.14.026-.14.027-.141.028-.141.029-.142.03-.142.031-.142.032-.142.033-.143.034-.143.035-.143.036-.143.037-.144.038-.144.039-.144.04-.144.041-.144.042-.145.043-.145.044-.144.045-.145.046-.144.047-.145.047-.145.049-.144.049-.145.051-.145.051-.144.052-.145.053-.144.054-.144.054-.074-.189.145-.055.145-.054.145-.054.146-.052.146-.052.145-.051.146-.05.146-.049.146-.048.146-.047.146-.047.146-.045.145-.044.145-.044.146-.042.145-.042.145-.04.145-.04.145-.038.145-.037.144-.037.145-.035.144-.035.144-.033.144-.032.143-.032.143-.03.143-.029.142-.028.142-.027.142-.026Zm.034.2-.034-.2h.05l0,0,0,0,0,0,0,0,0,0,0,0,0,0,0,0,0,0,0,0,0,0,0,0,0,0,0,0,0,0,0,0,0,0,0,0,0,0,0,0v.06l0,0,0,0,0,0,0,0,0,0,0,0,0,0,0,0,0,0,0,0,0,0,0,0,0,0,0,0,0,0,0,0,0,0,0,0,0,0,0,0h-.01Zm.849-.331.025.2h0l-.026,0-.026,0-.026,0-.026,0-.027,0-.026,0-.027,0-.027,0-.027,0-.027,0-.027,0-.027,0-.027,0-.027,0-.027,0-.027,0-.027,0-.028,0-.028,0-.027,0-.028,0-.027,0-.028,0-.028,0-.028,0-.028,0-.028,0-.028,0-.028,0-.028,0-.028,0-.029,0-.034-.2.028,0,.029,0,.028,0,.028,0,.028,0,.029,0,.028,0,.029,0,.028,0,.028,0,.028,0,.028,0,.028,0,.028,0,.028,0,.028,0,.027,0,.027,0,.028,0,.027,0,.028,0,.027,0,.027,0,.027,0,.027,0,.027,0,.027,0,.027,0,.027,0,.027,0,.026,0Zm.025.2-.025-.2h.04l0,0,0,0,0,0,0,0,0,0,0,0,0,0,0,0,0,0,0,0,0,0,0,0,0,0,0,0,0,0,0,0,0,0,0,0,0,0,0,0v.06l0,0,0,0,0,0,0,0,0,0,0,0,0,0,0,0,0,0,0,0,0,0,0,0,0,0,0,0,0,0,0,0,0,0,0,0,0,0,0,0h-.02Zm.847-.285.009.2h0l-.027,0-.028,0-.028,0-.027,0-.028,0-.027,0-.028,0-.027,0-.027,0-.027,0-.027,0-.027,0-.027,0-.027,0-.027,0-.027,0-.026,0-.027,0-.027,0-.026,0-.027,0-.027,0-.026,0-.027,0-.026,0-.027,0-.026,0-.026,0-.026,0-.026,0-.026,0-.026,0-.025-.2.027,0,.026,0,.026,0,.027,0,.026,0,.027,0,.027,0,.027,0,.027,0,.027,0,.027,0,.027,0,.027,0,.027,0,.027,0,.027,0,.027,0,.027,0,.027,0,.027,0,.028,0,.027,0,.028,0,.028,0,.027,0,.028,0,.028,0,.028,0,.028,0,.028,0,.028,0,.028,0Zm.011.2-.014-.2h.035l0,0,0,0,0,0,0,0,0,0,0,0,0,0,0,0,0,0,0,0,0,0,0,0,0,0,0,0,0,0,0,0,0,0,0,0,0,0,0,0,0,0v.055l0,0,0,0,0,0,0,0,0,0,0,0,0,0,0,0,0,0,0,0,0,0,0,0,0,0,0,0,0,0,0,0,0,0,0,0,0,0,0,0,0,0h-.02Zm0,0h0l-.009-.2h0Zm0,0-.009-.2h.035l0,0,0,0,0,0,0,0,0,0,0,0,0,0,0,0,0,0,0,0,0,0,0,0,0,0,0,0,0,0,0,0,0,0,0,0,0,0,0,0v.06l0,0,0,0,0,0,0,0,0,0,0,0,0,0,0,0,0,0,0,0,0,0,0,0,0,0,0,0,0,0,0,0,0,0,0,0,0,0,0,0h-.025Zm.879.57-.2.013h0l0-.032,0-.032-.006-.031-.008-.031-.009-.029-.01-.029-.012-.029-.013-.027L130.63,108l-.016-.026-.017-.025-.018-.024-.019-.024-.02-.022-.021-.021-.022-.02-.023-.019-.024-.018-.025-.017-.026-.016-.027-.014-.027-.014-.028-.012-.029-.011-.029-.009-.03-.008-.031-.006-.031,0-.031,0-.032,0h-.033l-.033,0-.014-.2.043,0h.042l.042,0,.042,0,.041.007.04.009.04.01.039.012.038.014.037.016.037.017.035.019.035.021.033.022.032.024.031.026.029.027.029.028.027.03.026.031.024.032.022.034.021.034.019.036.017.037.016.037.014.038.012.04.01.04.008.041.006.041,0,.043Zm-.2.013.2-.013v.035l0,0,0,0,0,0,0,0,0,0,0,0,0,0,0,0,0,0,0,0,0,0,0,0,0,0,0,0,0,0,0,0,0,0,0,0,0,0,0,0h-.061l0,0,0,0,0,0,0,0,0,0,0,0,0,0,0,0,0,0,0,0,0,0,0,0,0,0,0,0,0,0,0,0,0,0,0,0,0,0,0,0,0,0v-.02Zm-.577.869-.009-.2h0l.032,0,.032,0,.031-.006.031-.008.03-.009.029-.01.029-.012.027-.013.027-.014.026-.016.025-.017.024-.018.024-.019.023-.02.021-.021.021-.022.019-.023.018-.024.017-.025.016-.026.015-.027.014-.027.012-.028.011-.028.009-.029.008-.03.006-.03,0-.031,0-.031,0-.031v-.032l0-.033.2-.013,0,.042v.042l0,.042,0,.041-.007.041-.009.04-.01.039-.013.039-.014.038-.016.037-.018.036-.019.035-.021.034-.023.033-.024.032-.026.03-.027.029-.029.028-.03.027-.031.025-.032.024-.034.022-.034.02-.036.019-.037.017-.038.016-.039.014-.04.012-.041.01-.041.008-.042.006-.043,0Zm-.011-.2.014.2H130.1l0,0,0,0,0,0,0,0,0,0,0,0,0,0,0,0,0,0,0,0,0,0,0,0,0,0,0,0,0,0,0,0,0,0,0,0,0,0,0,0,0,0V109l0,0,0,0,0,0,0,0,0,0,0,0,0,0,0,0,0,0,0,0,0,0,0,0,0,0,0,0,0,0,0,0,0,0,0,0,0,0,0,0,0,0h.02Zm0,0h0l.009.2h0Zm0,0,.009.2H130.1l0,0,0,0,0,0,0,0,0,0,0,0,0,0,0,0,0,0,0,0,0,0,0,0,0,0,0,0,0,0,0,0,0,0,0,0,0,0,0,0V109l0,0,0,0,0,0,0,0,0,0,0,0,0,0,0,0,0,0,0,0,0,0,0,0,0,0,0,0,0,0,0,0,0,0,0,0,0,0h.03Zm-.767.279-.025-.2h0l.026,0,.026,0,.026,0,.026,0,.026,0,.026,0,.026,0,.025,0,.025,0,.026,0,.025,0,.025,0,.025,0,.025,0,.025,0,.025,0,.025,0,.024,0,.025,0,.024,0,.024,0,.024,0,.024,0,.024,0,.024,0,.024,0,.024,0,.024,0,.023,0,.024,0,.023,0,.023,0,.014.2-.023,0-.023,0-.023,0-.023,0-.023,0-.023,0-.024,0-.024,0-.024,0-.023,0-.024,0-.024,0-.024,0-.024,0-.024,0-.024,0-.025,0-.025,0-.024,0-.025,0-.025,0-.025,0-.025,0-.025,0-.025,0-.025,0-.026,0-.026,0-.025,0-.026,0-.026,0Zm-.025-.2.025.2h-.041l0,0,0,0,0,0,0,0,0,0,0,0,0,0,0,0,0,0,0,0,0,0,0,0,0,0,0,0,0,0,0,0,0,0,0,0,0,0,0,0v-.06l0,0,0,0,0,0,0,0,0,0,0,0,0,0,0,0,0,0,0,0,0,0,0,0,0,0,0,0,0,0,0,0,0,0,0,0,0,0,0,0h.02Zm-.781.32-.034-.2h0l.025,0,.025,0,.025,0,.025,0,.025,0,.025,0,.025,0,.025,0,.025,0,.026,0,.025,0,.025,0,.025,0,.026,0,.025,0,.025,0,.026,0,.025,0,.025,0,.026,0,.025,0,.026,0,.026,0,.026,0,.025,0,.026,0,.026,0,.026,0,.026,0,.026,0,.026,0,.026,0,.025.2-.026,0-.025,0-.026,0-.026,0-.025,0-.026,0-.025,0-.025,0-.026,0-.025,0-.026,0-.025,0-.025,0-.025,0-.025,0-.025,0-.025,0-.025,0-.025,0-.025,0-.025,0-.025,0-.025,0-.025,0-.025,0-.025,0-.025,0-.025,0-.025,0-.025,0-.024,0Zm-.034-.2.034.2h-.05l0,0,0,0,0,0,0,0,0,0,0,0,0,0,0,0,0,0,0,0,0,0,0,0,0,0,0,0,0,0,0,0,0,0,0,0,0,0,0,0v-.06l0,0,0,0,0,0,0,0,0,0,0,0,0,0,0,0,0,0,0,0,0,0,0,0,0,0,0,0,0,0,0,0,0,0,0,0,0,0,0,0h.01Zm-3.393.922-.121.164.027-.178.11-.038.11-.037.11-.037.11-.036.11-.035.11-.035.11-.034.11-.033.11-.033.11-.032.11-.032.11-.031.11-.031.109-.03.109-.03.109-.029.109-.028.109-.028.109-.027.109-.026.109-.026.108-.025.108-.024.109-.024.108-.023.108-.022.108-.022.107-.021.107-.02.107-.02.107-.02.107-.018.034.2-.105.019-.106.019-.106.02-.106.021-.107.021-.106.022-.107.022-.107.023-.107.023-.108.024-.108.025-.107.025-.108.026-.108.027-.108.027-.108.028-.108.029-.109.029-.109.03-.108.031-.109.031-.109.032-.109.032-.109.032-.109.033-.109.034-.109.034-.109.035-.109.036-.109.036-.109.037-.109.037Zm-.094-.014.066.191-.005,0h-.059l0,0,0,0,0,0,0,0,0,0,0,0,0,0,0,0,0,0,0,0,0,0,0,0,0,0,0,0,0,0,0,0,0,0,0,0,0,0,0,0V110.1l0,0,0,0,0,0,0,0,0,0,0,0,0,0,0,0,0,0,0,0,0,0,0,0,0,0,0,0,0,0,0,0,0,0,0,0Zm.842.771-.167.118h0l-.019-.026-.019-.025-.019-.025-.019-.025-.02-.025-.019-.024-.02-.024-.02-.025-.02-.024-.021-.024-.021-.023-.021-.023-.021-.023-.022-.023-.021-.023-.022-.022-.022-.022-.023-.022-.022-.022-.023-.021-.023-.021-.023-.021-.023-.021-.024-.02-.024-.021-.024-.02-.024-.02-.025-.02-.024-.019-.025-.019-.025-.019-.025-.019.121-.164.027.02.027.02.026.02.027.021.026.021.026.021.026.022.025.021.025.022.025.022.025.022.025.023.024.023.024.023.023.023.024.024.023.024.023.024.022.024.023.025.023.025.022.025.021.025.022.026.021.025.021.026.021.026.02.026.021.027.02.027.02.027Zm-.167.118.167-.118,0,0,0,0,0,0,0,0,0,0,0,0v.063l0,0,0,0,0,0,0,0,0,0,0,0,0,0,0,0,0,0,0,0,0,0,0,0,0,0,0,0,0,0,0,0,0,0,0,0,0,0h-.063l0,0,0,0,0,0,0,0,0,0,0,0,0,0,0,0,0,0,0,0,0,0,0,0Zm.905,2.144-.2.013h0L126.4,113l-.007-.08-.008-.08-.009-.078-.01-.078-.011-.077-.012-.076-.013-.075-.015-.074-.015-.074-.016-.072-.017-.071-.018-.07-.019-.07-.02-.069-.022-.068-.023-.067-.023-.066-.025-.065-.025-.064-.026-.063-.027-.063-.029-.061-.03-.061-.031-.06-.031-.059-.033-.058-.033-.057-.035-.057-.035-.056-.037-.055-.038-.053.167-.118.04.057.039.058.038.059.036.06.036.061.034.061.034.063.032.063.031.064.03.065.029.066.028.067.027.068.026.068.025.069.023.071.022.071.022.072.02.073.019.074.018.074.017.076.016.076.015.077.014.078.013.079.011.08.011.08.009.082.008.082.008.083.006.084Zm-.2.013.2-.013v.035l0,0,0,0,0,0,0,0,0,0,0,0,0,0,0,0,0,0,0,0,0,0,0,0,0,0,0,0,0,0,0,0,0,0,0,0,0,0,0,0,0,0h-.056l0,0,0,0,0,0,0,0,0,0,0,0,0,0,0,0,0,0,0,0,0,0,0,0,0,0,0,0,0,0,0,0,0,0,0,0,0,0,0,0,0,0v-.02Zm.1.04v.2l-.1-.116v-.129l.2-.013v.169Zm-.1.088.2.028v.015l0,0,0,0,0,0,0,0,0,0,0,0,0,0,0,0,0,0,0,0,0,0,0,0,0,0,0,0,0,0,0,0,0,0,0,0,0,0,0,0h-.061l0,0,0,0,0,0,0,0,0,0,0,0,0,0,0,0,0,0,0,0,0,0,0,0,0,0,0,0,0,0,0,0,0,0,0,0,0,0,0,0v-.045Zm.634,0-.1.113H126.5v-.2h.432Zm-.1.113v-.2h.03l0,0,0,0,0,0,0,0,0,0,0,0,0,0,0,0,0,0,0,0,0,0,0,0,0,0,0,0,0,0,0,0,0,0,0,0,0,0,0,0v.06l0,0,0,0,0,0,0,0,0,0,0,0,0,0,0,0,0,0,0,0,0,0,0,0,0,0,0,0,0,0,0,0,0,0,0,0,0,0,0,0h-.03Zm1.513-3.424.1.176h0l-.1.063-.1.064-.1.067-.094.069-.09.072-.087.073-.083.076-.08.078-.076.08-.072.083-.069.084-.065.087-.062.089-.058.091-.054.094-.05.1-.047.1-.043.1-.039.1-.035.105-.031.108-.027.111-.023.113-.019.116-.015.118-.011.12-.007.123,0,.125v.129l.005.13.01.133.014.136-.2.023-.015-.141-.01-.139-.005-.137v-.134l0-.132.007-.13.012-.128.016-.125.021-.123.025-.121.029-.118.034-.116.038-.113.042-.11.046-.108.05-.106.054-.1.058-.1.062-.1.066-.1.07-.093.074-.091.078-.088.081-.086.085-.083.089-.081.092-.078.1-.075.1-.074.1-.07.107-.068Zm.1.176-.1-.176,0,0,0,0,0,0,0,0,0,0h.059l0,0,0,0,0,0,0,0,0,0,0,0,0,0,0,0,0,0,0,0,0,0,0,0,0,0,0,0,0,0,0,0,0,0,0,0,0,0,0,0v.058l0,0,0,0,0,0,0,0,0,0,0,0,0,0,0,0,0,0,0,0,0,0,0,0,0,0,0,0Zm.645-.518.07.191h0l-.025.009-.025.009-.025.009-.024.009-.024.01-.024.01-.024.009-.023.009-.024.01-.023.009-.023.01-.023.01-.023.01-.023.01-.023.01-.022.01-.022.01-.022.011-.022.01-.022.011-.022.011-.021.01-.021.011-.021.011-.021.011-.021.011-.021.011-.02.011-.021.011-.02.011-.02.011-.02.012-.1-.176.021-.012.021-.012.022-.012.021-.012.022-.012.022-.011.022-.012.022-.012.022-.011.022-.011.023-.011.023-.011.023-.011.023-.011.023-.011.023-.011.024-.011.023-.01.024-.011.024-.01.024-.01.024-.01.024-.01.024-.01.025-.01.025-.01.025-.01.025-.01.025-.01.025-.009.025-.01Zm.07.191-.07-.191.005,0h.059l0,0,0,0,0,0,0,0,0,0,0,0,0,0,0,0,0,0,0,0,0,0,0,0,0,0,0,0,0,0,0,0,0,0,0,0,0,0,0,.005v.059l0,0,0,0,0,0,0,0,0,0,0,0,0,0,0,0,0,0,0,0,0,0,0,0,0,0,0,0,0,0,0,0,0,0,0,0Zm.7-.41.056.2-.006,0-.025.005-.025.006-.025.006-.025.006-.025.006-.024.006-.024.006-.025.006-.024.006-.024.006-.024.006-.024.006-.024.007-.023.006-.024.007-.024.007-.023.006-.023.007-.023.007-.023.007-.023.007-.023.007-.023.007-.023.007-.023.008-.023.008-.023.007-.022.008-.022.007-.022.008-.022.008-.022.008-.07-.191.023-.008.023-.008.023-.008.023-.008.024-.008.023-.008.024-.008.024-.008.024-.007.024-.008.024-.007.024-.007.024-.007.024-.007.024-.007.024-.007.024-.007.024-.007.025-.007.024-.006.025-.006.025-.006.025-.007.025-.006.025-.006.025-.006.025-.006.025-.006.026-.006.026-.006.026-.006.026-.006Zm.05.2-.043-.2h.055l0,0,0,0,0,0,0,0,0,0,0,0,0,0,0,0,0,0,0,0,0,0,0,0,0,0,0,0,0,0,0,0,0,0,0,0,0,0,0,0v.06l0,0,0,0,0,0,0,0,0,0,0,0,0,0,0,0,0,0,0,0,0,0,0,0,0,0,0,0,0,0,0,0,0,0,0,0,0,0-.005,0Zm.011-.211.05.2-.005,0h-.042l-.005,0h0l-.056-.2h0l.005,0h0l.005,0h.052Zm.045.2-.04-.2h.05l0,0,0,0,0,0,0,0,0,0,0,0,0,0,0,0,0,0,0,0,0,0,0,0,0,0,0,0,0,0,0,0,0,0,0,0,0,0,0,0v.06l0,0,0,0,0,0,0,0,0,0,0,0,0,0,0,0,0,0,0,0,0,0,0,0,0,0,0,0,0,0,0,0,0,0,0,0,0,0,0,0h-.01Zm-.039-.2.045.2h0l-.05-.2h0Zm.045.2-.05-.2h.055l0,0,0,0,0,0,0,0,0,0,0,0,0,0,0,0,0,0,0,0,0,0,0,0,0,0,0,0,0,0,0,0,0,0,0,0,0,0,0,0v.06l0,0,0,0,0,0,0,0,0,0,0,0,0,0,0,0,0,0,0,0,0,0,0,0,0,0,0,0,0,0,0,0,0,0,0,0,0,0,0,0Zm.939.455-.2.039h0l-.007-.031-.008-.031-.01-.03-.012-.029-.012-.029-.014-.027-.016-.027-.016-.026-.018-.024-.019-.024-.02-.023-.021-.022-.022-.02-.023-.02-.024-.019-.025-.017-.025-.016-.027-.015-.027-.013-.027-.012-.029-.011-.029-.01-.029-.008-.03-.007-.031-.006-.031,0-.031,0h-.063l-.032,0-.032,0-.033.006-.039-.2.042-.007.042,0,.042,0h.083l.041,0,.041.005.04.007.04.009.039.011.038.013.037.014.037.016.036.018.035.02.034.021.033.023.031.024.03.026.03.028.028.029.027.03.025.031.024.033.022.034.02.035.019.037.017.037.015.039.013.04.012.041Zm-.2.039.2-.039v.05l0,0,0,0,0,0,0,0,0,0,0,0,0,0,0,0,0,0,0,0,0,0,0,0,0,0,0,0,0,0,0,0,0,0,0,0,0,0h-.065l0,0,0,0,0,0,0,0,0,0,0,0,0,0,0,0,0,0,0,0,0,0,0,0,0,0,0,0,0,0,0,0,0,0,0,0,0,0,0,0v-.01Zm-.454.937-.046-.2h0l.032-.007.031-.008.03-.01.029-.012.029-.012.027-.014.027-.016.026-.016.025-.018.024-.019.023-.02.022-.021.021-.022.02-.023.019-.024.018-.025.016-.025.015-.026.014-.027.012-.028.011-.028.01-.029.008-.029.007-.03.006-.03,0-.03,0-.031v-.063l0-.031,0-.032-.006-.032.2-.039.007.042,0,.042,0,.042v.083l0,.041-.005.041-.007.04-.009.039-.011.039-.013.038-.015.037-.017.036-.018.036-.02.034-.022.034-.023.033-.024.031-.026.03-.028.03-.029.027-.03.026-.031.025-.033.023-.034.022-.036.02-.037.019-.038.017-.039.015-.04.013-.041.012-.042.009Zm-.042-.2.039.2h-.05l0,0,0,0,0,0,0,0,0,0,0,0,0,0,0,0,0,0,0,0,0,0,0,0,0,0,0,0,0,0,0,0,0,0,0,0,0,0,0,0v-.06l0,0,0,0,0,0,0,0,0,0,0,0,0,0,0,0,0,0,0,0,0,0,0,0,0,0,0,0,0,0,0,0,0,0,0,0,0,0,0,0h.01Zm.038.2-.042-.2h0l.046.2h0Zm-.042-.2.046.2h-.055l0,0,0,0,0,0,0,0,0,0,0,0,0,0,0,0,0,0,0,0,0,0,0,0,0,0,0,0,0,0,0,0,0,0,0,0,0,0,0,0v-.06l0,0,0,0,0,0,0,0,0,0,0,0,0,0,0,0,0,0,0,0,0,0,0,0,0,0,0,0,0,0,0,0,0,0,0,0,0,0,0,0Zm.006.2-.043-.2h.041l.039.2h-.037Zm-.036-.2.028.2h-.045l0,0,0,0,0,0,0,0,0,0,0,0,0,0,0,0,0,0,0,0,0,0,0,0,0,0,0,0,0,0,0,0,0,0,0,0,0,0,0,0v-.06l0,0,0,0,0,0,0,0,0,0,0,0,0,0,0,0,0,0,0,0,0,0,0,0,0,0,0,0,0,0,0,0,0,0,0,0,0,0,0,0h.015Zm-.524.357-.07-.191h0l.017-.006.017-.006.017-.006.017-.006.018-.006.017-.006.017-.006.018-.005.018-.006.018-.005.018-.005.018-.006.018-.005.018-.005.018-.005.018-.005.018-.005.019,0,.018-.005.019,0,.019,0,.019-.005.019,0,.019,0,.02,0,.019,0,.019,0,.019,0,.019,0,.019,0,.02,0,.02,0,.043.2-.019,0-.019,0-.019,0-.019,0-.019,0-.019,0-.018,0-.018,0-.018,0-.019,0-.018,0-.018,0-.018,0-.018,0-.017,0-.018.005-.018.005-.017,0-.017.005-.017.005-.017,0-.017.005-.017.005-.017.005-.017.005-.017.006-.017.005-.016.006-.017.005-.016.006-.016.006Zm-.07-.191.07.191-.005,0H129.7l0,0,0,0,0,0,0,0,0,0,0,0,0,0,0,0,0,0,0,0,0,0,0,0,0,0,0,0,0,0,0,0,0,0,0,0,0,0,0,0v-.059l0,0,0,0,0,0,0,0,0,0,0,0,0,0,0,0,0,0,0,0,0,0,0,0,0,0,0,0,0,0,0,0,0,0,0,0Zm-.4.409-.1-.176h0l.015-.008.015-.008.015-.008.015-.008.015-.008.015-.008.015-.008.015-.008.015-.008.015-.008.016-.008.015-.008.016-.008.016-.007.016-.008.016-.008.016-.007.016-.007.016-.007L129.5,111l.016-.007.016-.007.017-.007.016-.007.016-.007.017-.006.016-.007.017-.006.016-.006.017-.006.017-.006.017-.006.07.191-.016.006-.016.006-.016.006-.016.006-.016.006-.016.006-.015.006-.015.006-.015.006-.015.006-.015.007-.015.006-.015.006-.015.007-.015.006-.015.007-.014.007-.015.007-.015.007-.014.007-.015.007-.014.007-.014.007-.015.007-.014.008-.014.007-.014.007-.014.008-.014.008-.014.008-.014.008-.014.008Zm-.1-.176.1.176,0,0,0,0,0,0,0,0,0,0h-.059l0,0,0,0,0,0,0,0,0,0,0,0,0,0,0,0,0,0,0,0,0,0,0,0,0,0,0,0,0,0,0,0,0,0,0,0,0,0,0,0v-.058l0,0,0,0,0,0,0,0,0,0,0,0,0,0,0,0,0,0,0,0,0,0,0,0,0,0,0,0Zm-.772,1.962v.2l-.1-.085-.014-.09-.011-.089-.008-.087-.005-.085,0-.084v-.082l0-.08.006-.079.008-.078.011-.076.014-.075.016-.072.019-.071.022-.07.024-.068.027-.066.03-.065.032-.063.035-.062.037-.06.04-.058.042-.056.045-.055.047-.053.049-.051.052-.049.053-.048.056-.046.058-.044.06-.042.062-.04.064-.039.1.176-.059.035-.056.036-.054.038-.052.039-.05.041-.048.042-.045.044-.043.045-.041.047-.039.047-.037.05-.035.051-.033.052-.031.054-.028.055-.026.057-.024.058-.022.06-.019.062-.017.063-.015.065-.012.067-.01.069-.008.07-.005.072,0,.074v.075l0,.077.005.079.007.081.01.082.013.084Zm-.1.118.2-.033v.045l0,0,0,0,0,0,0,0,0,0,0,0,0,0,0,0,0,0,0,0,0,0,0,0,0,0,0,0,0,0,0,0,0,0,0,0,0,0,0,0,0,0h-.056l0,0,0,0,0,0,0,0,0,0,0,0,0,0,0,0,0,0,0,0,0,0,0,0,0,0,0,0,0,0,0,0,0,0,0,0,0,0,0,0,0,0v-.01Zm1.7-.023-.1.108h-1.493v-.2h1.493Zm-.1.108v-.2h.03l0,0,0,0,0,0,0,0,0,0,0,0,0,0,0,0,0,0,0,0,0,0,0,0,0,0,0,0,0,0,0,0,0,0,0,0,0,0,0,0v.06l0,0,0,0,0,0,0,0,0,0,0,0,0,0,0,0,0,0,0,0,0,0,0,0,0,0,0,0,0,0,0,0,0,0,0,0,0,0,0,0h-.03Zm-1.35,5.654h-.2l.055-.09.109-.061.1-.069.1-.077.1-.085.091-.093.087-.1.083-.108.078-.116.074-.124.07-.132.066-.14.061-.147.057-.155.053-.162.048-.17.045-.177.041-.184.036-.191.032-.2.028-.2.024-.212.02-.218.016-.225.013-.232.009-.238,0-.244v-.252l0-.257-.006-.264-.01-.269-.014-.275-.017-.281.2-.013.017.284.014.278.01.272.006.266,0,.26v.253l0,.248-.009.242-.012.235-.016.229L130,116l-.025.216-.029.21-.033.2-.038.2-.041.189-.046.183-.051.176-.055.169-.06.162-.065.155-.07.147-.075.14-.08.133-.085.126-.09.118-.1.11-.1.1-.106.094-.112.086-.117.077-.122.069Zm-.149-.09.094.18,0,0,0,0,0,0,0,0h-.059l0,0,0,0,0,0,0,0,0,0,0,0,0,0,0,0,0,0,0,0,0,0,0,0,0,0,0,0,0,0,0,0,0,0,0,0,0,0,0,0v-.058l0,0,0,0,0,0,0,0,0,0,0,0,0,0,0,0,0,0,0,0,0,0,0,0,0,0,0,0,0,0Zm.047.576-.1-.1v-.384h.2v.384Zm-.1-.1h.2v.03l0,0,0,0,0,0,0,0,0,0,0,0,0,0,0,0,0,0,0,0,0,0,0,0,0,0,0,0,0,0,0,0,0,0,0,0,0,0,0,0h-.061l0,0,0,0,0,0,0,0,0,0,0,0,0,0,0,0,0,0,0,0,0,0,0,0,0,0,0,0,0,0,0,0,0,0,0,0,0,0,0,0v-.03Zm-3.634.016.1-.1,3.634-.012v.2l-3.634.012Zm.1-.1v.2h-.03l0,0,0,0,0,0,0,0,0,0,0,0,0,0,0,0,0,0,0,0,0,0,0,0,0,0,0,0,0,0,0,0,0,0,0,0,0,0,0,0v-.06l0,0,0,0,0,0,0,0,0,0,0,0,0,0,0,0,0,0,0,0,0,0,0,0,0,0,0,0,0,0,0,0,0,0,0,0,0,0,0,0h.03Zm.047-.336.042.079.013.354-.2.007-.013-.354Zm.042.079-.2.007v-.03l0,0,0,0,0,0,0,0,0,0,0,0,0,0,0,0,0,0,0,0,0,0,0,0,0,0,0,0,0,0,0,0,0,0,0,0,0,0,0,0,0,0h.056l0,0,0,0,0,0,0,0,0,0,0,0,0,0,0,0,0,0,0,0,0,0,0,0,0,0,0,0,0,0,0,0,0,0,0,0,0,0,0,0,0,0v.025Zm-1.562-5.9v.2l.1-.089-.03.269-.025.263-.02.257-.016.252-.011.246-.006.24V115l0,.228.009.222.014.216.018.21.023.2.028.2.033.193.038.187.042.181.047.175.052.169.057.163.061.157.066.151.071.146.075.14.08.134.084.128.089.123.094.117.1.111.1.105.108.1.113.094.117.088-.119.165-.125-.095-.121-.1-.116-.107-.11-.112-.106-.118-.1-.124-.095-.13-.09-.136-.085-.142-.079-.148-.074-.153-.069-.159-.064-.165-.059-.17-.054-.176-.049-.181-.044-.187-.039-.193-.034-.2-.029-.2-.024-.21-.019-.215-.014-.222-.009-.227,0-.233v-.238l.006-.244.011-.25.016-.255.02-.261.026-.267.03-.272Zm.1.113-.2-.024v-.015l0,0,0,0,0,0,0,0,0,0,0,0,0,0,0,0,0,0,0,0,0,0,0,0,0,0,0,0,0,0,0,0,0,0,0,0,0,0,0,0,0,0h.056l0,0,0,0,0,0,0,0,0,0,0,0,0,0,0,0,0,0,0,0,0,0,0,0,0,0,0,0,0,0,0,0,0,0,0,0,0,0,0,0,0,0v.04Zm-.945-6.853.165-.12h0l.02.026.021.024.022.023.023.022.024.02.025.019.025.017.026.017.027.015.027.014.028.012.028.011.029.01.029.008.03.007.029.005.03,0,.03,0h.061l.03,0,.03,0,.03,0,.03-.007.03-.007.029-.01.029-.011.029-.012.028-.014.028-.015.027-.017.027-.019.121.164-.035.024-.036.022-.037.021-.038.018-.038.016-.039.014-.039.012-.04.011-.04.008-.04.006-.04,0-.04,0h-.08l-.04,0-.04,0-.04-.007-.039-.009-.039-.011-.038-.012-.037-.015-.037-.016-.036-.018-.035-.02-.034-.021-.034-.024-.033-.025-.032-.027-.03-.029-.029-.03-.027-.032Zm.165-.12-.165.12,0,0,0,0,0,0,0,0,0,0,0,0,0,0v-.058l0,0,0,0,0,0,0,0,0,0,0,0,0,0,0,0,0,0,0,0,0,0,0,0,0,0,0,0,0,0,0,0,0,0,0,0,0,0,0,0h.058l0,0,0,0,0,0,0,0,0,0,0,0,0,0,0,0,0,0,0,0,0,0,0,0Zm.015-1.039.121.164h0l-.026.02-.024.021-.023.022-.022.023-.02.023-.019.024-.017.025-.017.026-.015.026-.014.027-.012.027-.011.028-.01.028-.008.029-.007.03-.006.03,0,.03,0,.03v.061l0,.03,0,.03,0,.03.007.03.008.03.01.029.011.029.012.029.014.028.015.028.017.027.019.026-.165.12-.024-.035-.023-.036-.021-.036-.018-.037-.016-.038-.015-.038-.012-.039-.011-.039-.008-.04-.006-.04,0-.04,0-.04v-.079l0-.04.005-.04.007-.039.009-.038.011-.039.013-.038.014-.037.016-.037.018-.036.02-.035.021-.034.024-.034.025-.032.027-.031.029-.03.03-.029.032-.027Zm.121.164-.121-.164,0,0,0,0,0,0,0,0,0,0,0,0,0,0h.058l0,0,0,0,0,0,0,0,0,0,0,0,0,0,0,0,0,0,0,0,0,0,0,0,0,0,0,0,0,0,0,0,0,0,0,0,0,0,0,0v.058l0,0,0,0,0,0,0,0,0,0,0,0,0,0,0,0,0,0,0,0,0,0,0,0Zm2.609-1.543.057.195h0l-.079.023-.079.024-.079.025-.079.026-.08.027-.08.029-.08.029-.08.031-.08.032-.081.033-.081.034-.081.036-.082.037-.082.038-.082.039-.083.041-.083.042-.084.043-.084.044-.084.046-.084.048-.085.049-.085.051-.086.052-.086.053-.087.055-.087.056-.087.058-.088.059-.088.061-.089.063-.089.065-.121-.164.091-.065.091-.064.09-.062.09-.061.09-.059.089-.058.088-.056.088-.054.087-.053.088-.051.087-.05.087-.048.086-.047.086-.046.085-.044.085-.043.085-.042.085-.04.084-.039.084-.038.084-.036.083-.036.083-.034.083-.033.083-.032.082-.03.082-.029.082-.028.082-.027.081-.026.081-.025Zm.057.195-.057-.195h.06l0,0,0,0,0,0,0,0,0,0,0,0,0,0,0,0,0,0,0,0,0,0,0,0,0,0,0,0,0,0,0,0,0,0,0,0,0,0,0,0v.059l0,0,0,0,0,0,0,0,0,0,0,0,0,0,0,0,0,0,0,0,0,0,0,0,0,0,0,0,0,0,0,0,0,0,0,0,0,0Zm2.431-.507v.2h-.3l-.075,0-.075,0-.075,0-.075,0-.075,0-.075,0-.075.005-.075.006-.075.006-.075.007-.075.008-.076.008-.076.009-.075.009-.076.011-.076.011-.076.012-.076.013-.077.013-.076.015-.077.015-.077.016-.077.017-.077.018-.078.019-.078.02-.078.021-.078.022-.057-.195.081-.023.08-.022.08-.021.079-.019.08-.019.079-.018.079-.017.078-.016.079-.015.078-.014.078-.013.078-.012.078-.012.078-.011.078-.01.077-.009.077-.008.077-.008.077-.007.077-.006.077-.006.077-.005.077,0,.077,0,.077,0,.077,0,.076,0,.077,0h.306Zm0,.2v-.2h.03l0,0,0,0,0,0,0,0,0,0,0,0,0,0,0,0,0,0,0,0,0,0,0,0,0,0,0,0,0,0,0,0,0,0,0,0,0,0,0,0v.06l0,0,0,0,0,0,0,0,0,0,0,0,0,0,0,0,0,0,0,0,0,0,0,0,0,0,0,0,0,0,0,0,0,0,0,0,0,0,0,0h-.03Zm.835.625h-.2v-.033l0-.032,0-.031-.005-.031-.007-.03-.009-.03-.01-.029-.011-.028-.013-.027-.014-.027-.015-.026-.017-.025-.017-.025-.019-.023-.02-.023-.021-.022-.022-.021-.023-.02-.024-.018-.025-.017-.025-.016-.027-.015-.027-.014-.028-.012-.028-.011-.029-.01-.03-.009-.031-.007-.031-.005-.032,0-.032,0h-.033v-.2h.042l.042,0,.042,0,.041.008.04.009.04.011.039.013.038.015.037.017.036.018.035.02.034.021.033.023.031.025.031.026.029.027.027.029.026.03.025.031.024.032.022.034.02.034.019.036.017.037.015.038.013.038.011.039.009.04.008.041.005.041,0,.042Zm-.2,0h.2v.03l0,0,0,0,0,0,0,0,0,0,0,0,0,0,0,0,0,0,0,0,0,0,0,0,0,0,0,0,0,0,0,0,0,0,0,0,0,0,0,0h-.061l0,0,0,0,0,0,0,0,0,0,0,0,0,0,0,0,0,0,0,0,0,0,0,0,0,0,0,0,0,0,0,0,0,0,0,0,0,0,0,0v-.03Zm-.63.828v-.2h.033l.032,0,.032,0,.031-.005.031-.007.03-.009.029-.01.028-.011.028-.012.027-.014.027-.015.025-.016.025-.018.024-.018.023-.02.022-.021.021-.022.02-.023.019-.023.018-.025.017-.025.015-.026.014-.027.013-.027.011-.028.01-.029.009-.03.007-.03.005-.031,0-.031,0-.032v-.033h.2v.042l0,.042-.005.041-.008.041-.009.04-.011.039-.013.038-.015.038-.017.037-.019.036-.02.034-.022.034-.023.032-.025.031-.026.03-.027.029-.029.027-.03.026-.032.025-.033.023-.034.021-.035.02-.036.018-.037.017-.038.015-.039.013-.04.011-.04.009-.041.008-.042,0-.042,0h-.042Zm0-.2v.2h-.03l0,0,0,0,0,0,0,0,0,0,0,0,0,0,0,0,0,0,0,0,0,0,0,0,0,0,0,0,0,0,0,0,0,0,0,0,0,0,0,0v-.06l0,0,0,0,0,0,0,0,0,0,0,0,0,0,0,0,0,0,0,0,0,0,0,0,0,0,0,0,0,0,0,0,0,0,0,0,0,0,0,0h.03Zm-2.024.45-.057-.195h0l.066-.019.066-.018.066-.017.066-.016.066-.015.065-.015.065-.013.065-.013.065-.012.065-.012.065-.011.065-.01.065-.009.065-.009.065-.008.065-.007.065-.007.065-.006.065-.006.065-.005.065,0,.065,0,.065,0,.065,0,.064,0,.065,0,.065,0,.064,0h.259v.2h-.255l-.064,0-.063,0-.063,0-.064,0-.063,0-.063,0-.063,0-.063,0-.063.005-.063.005-.063.006-.063.007-.063.007-.063.008-.063.009-.063.009-.063.01-.063.011-.063.011-.063.012-.063.012-.063.013-.064.014-.063.014-.063.016-.063.016-.063.017Zm-.057-.195.057.195h-.06l0,0,0,0,0,0,0,0,0,0,0,0,0,0,0,0,0,0,0,0,0,0,0,0,0,0,0,0,0,0,0,0,0,0,0,0,0,0,0,0V105.3l0,0,0,0,0,0,0,0,0,0,0,0,0,0,0,0,0,0,0,0,0,0,0,0,0,0,0,0,0,0,0,0,0,0,0,0,0,0Zm-2.15,1.321-.121-.164h0l.077-.055.077-.054.076-.053.076-.052.075-.05.075-.048.074-.048.074-.046.073-.045.073-.043.073-.042.073-.041.072-.04.072-.038.071-.038.071-.036.07-.035.07-.034.07-.033.069-.031.069-.03.069-.029.069-.028.068-.028.068-.026.068-.025.067-.024.067-.023.067-.022.066-.021.066-.02.066-.019.057.195-.064.019-.064.02-.065.02-.065.022-.065.022-.065.023-.065.024-.066.025-.066.026-.066.027-.067.028-.067.03-.068.031-.067.031-.068.033-.069.034-.068.035-.069.036-.069.037-.07.039-.07.04-.071.041-.071.042-.072.043-.072.045-.073.046-.073.048-.074.049-.074.05-.075.052-.075.053Zm-.121-.164.121.164,0,0,0,0,0,0,0,0,0,0,0,0,0,0h-.058l0,0,0,0,0,0,0,0,0,0,0,0,0,0,0,0,0,0,0,0,0,0,0,0,0,0,0,0,0,0,0,0,0,0,0,0,0,0,0,0v-.058l0,0,0,0,0,0,0,0,0,0,0,0,0,0,0,0,0,0,0,0,0,0,0,0Zm-.863,2.08.163-.122h0l.02.025.021.024.022.023.023.021.024.02.024.018.026.017.026.016.027.015.027.014.028.012.028.011.029.009.029.008.03.006.03,0,.03,0,.03,0h.061l.03,0,.03,0,.03-.005.03-.007.03-.008.029-.009.029-.011.028-.013.028-.014.027-.016.027-.017.027-.019.123.162-.035.025-.036.023-.037.021-.037.019-.038.017-.038.015-.039.013-.039.011-.04.009-.04.007-.04,0-.04,0h-.08l-.04,0-.04,0-.039-.007-.039-.008-.039-.01-.038-.012-.038-.014-.037-.016-.036-.017-.036-.019-.035-.021-.034-.023-.033-.025-.031-.026-.031-.028-.029-.03-.028-.032Zm.163-.122-.163.122,0,0,0,0,0,0,0,0,0,0,0,0,0,0v-.058l0,0,0,0,0,0,0,0,0,0,0,0,0,0,0,0,0,0,0,0,0,0,0,0,0,0,0,0,0,0,0,0,0,0,0,0,0,0,0,0h.058l0,0,0,0,0,0,0,0,0,0,0,0,0,0,0,0,0,0,0,0,0,0,0,0Zm.007-1.04.115.168,0,0-.026.02-.024.021-.023.022-.021.023-.02.024-.019.024-.018.025-.016.026-.015.027-.014.027-.012.028-.011.028-.009.029-.008.029-.006.029,0,.029,0,.03,0,.03v.061l0,.03,0,.03.005.03.007.03.008.029.01.029.011.029.013.028.014.028.016.027.017.027.019.027-.163.122-.025-.034-.023-.035-.021-.037-.019-.037-.017-.038-.015-.038-.013-.039-.011-.039-.009-.039-.007-.039,0-.04,0-.04v-.079l0-.04,0-.039.007-.039.009-.039.01-.038.012-.038.014-.038.016-.037.018-.036.02-.035.021-.035.023-.033.025-.033.027-.031.028-.03.03-.029.032-.028.034-.026Zm.119.165-.123-.162,0,0,0,0,0,0,0,0,0,0,0,0,0,0h.058l0,0,0,0,0,0,0,0,0,0,0,0,0,0,0,0,0,0,0,0,0,0,0,0,0,0,0,0,0,0,0,0,0,0,0,0,0,0,0,0v.058l0,0,0,0,0,0,0,0,0,0,0,0,0,0,0,0,0,0,0,0,0,0,0,0Zm0,0,0,0h0l-.115-.168h0Zm0,0-.115-.168,0,0,0,0,0,0,0,0,0,0,0,0h.063l0,0,0,0,0,0,0,0,0,0,0,0,0,0,0,0,0,0,0,0,0,0,0,0,0,0,0,0,0,0,0,0,0,0,0,0,0,0v.063l0,0,0,0,0,0,0,0,0,0,0,0,0,0,0,0,0,0,0,0,0,0,0,0Zm.857-.763.093.181h0l-.031.016-.031.016-.031.016-.031.016-.031.017-.031.016-.031.017-.031.017-.03.017-.031.018-.03.017-.03.017-.03.018-.03.018-.029.018-.03.018-.03.018-.029.018-.029.018-.029.019-.029.019-.029.019-.029.019-.029.019-.029.019-.028.02-.028.02-.028.02-.028.02-.027.02-.028.02-.027.02-.123-.162.028-.021.029-.021.029-.021.029-.021.029-.02.029-.02.029-.02.029-.02.03-.02.03-.02.03-.02.03-.019.03-.019.03-.019.03-.019.03-.019.03-.018.031-.018.031-.018.031-.018.031-.018.032-.018.031-.017.032-.018.031-.018.032-.017.032-.017.032-.017.032-.017.032-.017.032-.016Zm.093.181-.093-.181,0,0,0,0,0,0h.064l0,0,0,0,0,0,0,0,0,0,0,0,0,0,0,0,0,0,0,0,0,0,0,0,0,0,0,0,0,0,0,0,0,0,0,0,0,0v.063l0,0,0,0,0,0,0,0,0,0,0,0,0,0,0,0,0,0,0,0,0,0,0,0,0,0,0,0,0,0Zm.995-.645.07.191h0l-.035.013-.035.013-.036.013-.035.013-.035.013-.035.013-.035.014-.034.014-.035.013-.034.014-.034.014-.034.013-.034.014-.034.014-.034.014-.033.014-.033.014-.033.014-.033.015-.033.014-.033.015-.032.014-.032.015-.032.015-.032.015-.031.015-.032.015-.032.015-.031.015-.031.015-.031.015-.03.016-.093-.181.032-.016.031-.016.032-.015.032-.016.032-.015.032-.016.033-.015.032-.015.033-.015.033-.015.033-.015.033-.015.034-.015.034-.015.034-.014.034-.015.034-.014.034-.015.035-.014.035-.014.035-.014.035-.014.035-.014.035-.014.035-.014.036-.014.036-.014.036-.013.036-.013.036-.013.036-.014Zm.07.191-.07-.191.005,0h.059l0,0,0,0,0,0,0,0,0,0,0,0,0,0,0,0,0,0,0,0,0,0,0,0,0,0,0,0,0,0,0,0,0,0,0,0,0,0,0,0v.059l0,0,0,0,0,0,0,0,0,0,0,0,0,0,0,0,0,0,0,0,0,0,0,0,0,0,0,0,0,0,0,0,0,0,0,0Zm5.219-1.015-.021.2h0l-.1-.009-.11-.008-.117-.005-.123,0h-.263l-.14,0-.145.006-.149.008-.154.01-.158.012-.161.014-.165.017-.168.019-.171.021-.173.024-.176.026-.178.029-.18.031-.181.033-.182.035-.183.038-.184.04-.184.043-.184.045-.184.048-.183.05-.183.052-.181.055-.18.057-.179.06-.176.063-.07-.191.18-.063.181-.061.183-.058.184-.056.185-.053.186-.051.187-.048.187-.045.186-.043.186-.041.186-.038.185-.036.184-.034.182-.031.18-.029.178-.027.176-.024.173-.022.17-.019.167-.017.164-.015.16-.012.156-.01.152-.008.147-.006.143,0,.138,0,.132,0,.127,0,.121.006.115.008Zm-.021.2.021-.2h.02l0,0,0,0,0,0,0,0,0,0,0,0,0,0,0,0,0,0,0,0,0,0,0,0,0,0,0,0,0,0,0,0,0,0,0,0,0,0,0,0v.06l0,0,0,0,0,0,0,0,0,0,0,0,0,0,0,0,0,0,0,0,0,0,0,0,0,0,0,0,0,0,0,0,0,0,0,0,0,0,0,0h-.04Zm.764.71-.2-.021h0l0-.032v-.064l0-.031,0-.031-.005-.031-.007-.03-.008-.029-.01-.029-.011-.029-.012-.027-.014-.027-.015-.027-.016-.025-.017-.025-.019-.024-.02-.023-.021-.022-.022-.021-.022-.02-.024-.019-.025-.018-.025-.016-.027-.016-.027-.014-.028-.013-.029-.012-.03-.01-.03-.009-.031-.007-.031-.006-.033,0,.021-.2.042.006.042.007.041.01.04.012.039.013.038.015.037.017.036.019.035.02.034.022.033.023.031.025.03.026.028.028.028.029.026.031.024.031.023.033.021.034.02.034.018.036.016.037.015.037.013.038.011.039.009.04.007.04,0,.041,0,.041v.084Zm-.2-.021.2.021v.02l0,0,0,0,0,0,0,0,0,0,0,0,0,0,0,0,0,0,0,0,0,0,0,0,0,0,0,0,0,0,0,0,0,0,0,0,0,0,0,0h-.061l0,0,0,0,0,0,0,0,0,0,0,0,0,0,0,0,0,0,0,0,0,0,0,0,0,0,0,0,0,0,0,0,0,0,0,0,0,0,0,0v-.04Zm-.716.758.022-.2h0l.033,0h.064l.031,0,.031,0,.031-.005.03-.007.029-.008.029-.009.029-.011.028-.012.027-.014.027-.015.025-.016.025-.017.024-.018.023-.019.022-.02.021-.022.02-.022.019-.024.018-.024.017-.025.016-.027.014-.027.013-.028.012-.028.01-.029.009-.03.007-.031.006-.031,0-.032.2.021-.006.042-.007.042-.01.041-.012.04-.013.039-.015.038-.017.037-.019.036-.02.034-.022.034-.024.032-.025.031-.027.03-.028.028-.029.027-.031.026-.031.024-.033.023-.034.021-.035.02-.036.018-.037.016-.038.015-.039.013-.04.011-.04.009-.04.007-.041,0-.042,0h-.084Zm.022-.2-.022.2h-.02l0,0,0,0,0,0,0,0,0,0,0,0,0,0,0,0,0,0,0,0,0,0,0,0,0,0,0,0,0,0,0,0,0,0,0,0,0,0,0,0v-.06l0,0,0,0,0,0,0,0,0,0,0,0,0,0,0,0,0,0,0,0,0,0,0,0,0,0,0,0,0,0,0,0,0,0,0,0,0,0,0,0h.04Zm-4.565.935-.07-.191h0l.16-.056.162-.055.163-.052.163-.05.164-.048.165-.045.165-.043.165-.041.164-.039.164-.037.163-.034.162-.032.161-.03.16-.028.158-.026.156-.024.154-.022.151-.02.149-.018.146-.015.143-.013.139-.012.136-.009.132-.007.128-.005.124,0h.233l.109,0,.1,0,.1.006.093.009-.022.2-.088-.008-.094-.006-.1,0-.105,0h-.227l-.12,0-.125.005-.129.007-.133.009-.137.011-.14.013-.143.015-.146.018-.149.019-.151.022-.154.023-.156.026-.157.028-.159.03-.16.032-.161.034-.162.036-.162.038-.162.04-.162.043-.162.045-.162.047-.161.049-.159.051-.158.053Zm-.07-.191.07.191,0,0h-.059l0,0,0,0,0,0,0,0,0,0,0,0,0,0,0,0,0,0,0,0,0,0,0,0,0,0,0,0,0,0,0,0,0,0,0,0,0,0,0,0v-.059l0,0,0,0,0,0,0,0,0,0,0,0,0,0,0,0,0,0,0,0,0,0,0,0,0,0,0,0,0,0,0,0,0,0,0,0Zm-.829.576-.093-.181h0l.028-.014.028-.014.028-.014.028-.014.028-.013.028-.013.028-.014.028-.013.029-.013.029-.013.029-.013.029-.013.028-.013.029-.013.029-.012.029-.013.029-.012.029-.012.029-.012.029-.012.029-.012.029-.012.029-.011.029-.012.029-.012.029-.011.029-.011.029-.012.029-.011.03-.011.03-.011.03-.011.07.191-.029.011-.029.01-.029.011-.029.011-.029.011-.029.011-.029.011-.028.011-.029.011-.028.012-.029.011-.028.012-.028.012-.028.012-.028.012-.028.012-.028.012-.028.012-.028.012-.028.013-.028.013-.028.012-.028.013-.028.013-.028.013-.027.013-.027.013-.027.013-.027.013-.027.014-.027.013Zm-.093-.181.093.181,0,0,0,0,0,0h-.064l0,0,0,0,0,0,0,0,0,0,0,0,0,0,0,0,0,0,0,0,0,0,0,0,0,0,0,0,0,0,0,0,0,0,0,0,0,0v-.063l0,0,0,0,0,0,0,0,0,0,0,0,0,0,0,0,0,0,0,0,0,0,0,0,0,0,0,0,0,0Zm-.639.622-.125-.16h0l.02-.015.021-.015.021-.015.022-.015.021-.014.022-.015.022-.015.022-.015.022-.015.023-.015.023-.015L124,108.3l.023-.015.023-.015.024-.015.024-.014.024-.014.024-.014.024-.014.024-.014.025-.014.025-.014.025-.014.025-.014.026-.014.026-.014.026-.014.026-.014.026-.014.026-.014.027-.013.027-.014.093.181-.026.013-.025.013-.026.013-.025.014-.026.013-.025.014-.025.013-.024.013-.025.014-.024.013-.025.014-.024.014-.024.014-.024.014-.023.014-.023.014-.023.014-.023.014-.023.014-.022.014-.022.014-.022.014-.021.014-.021.014-.021.014-.021.014-.021.014-.021.015-.02.014-.02.014-.02.014-.02.014Zm-.124-.161.123.162,0,0,0,0,0,0,0,0,0,0,0,0,0,0h-.058l0,0,0,0,0,0,0,0,0,0,0,0,0,0,0,0,0,0,0,0,0,0,0,0,0,0,0,0,0,0,0,0,0,0,0,0,0,0,0,0v-.058l0,0,0,0,0,0,0,0,0,0,0,0,0,0,0,0,0,0,0,0,0,0,0,0Zm.121.164-.124-.161h0l.125.16h0Zm-.124-.161.125.16,0,0,0,0,0,0,0,0,0,0,0,0,0,0h-.063l0,0,0,0,0,0,0,0,0,0,0,0,0,0,0,0,0,0,0,0,0,0,0,0,0,0,0,0,0,0,0,0,0,0,0,0,0,0v-.063l0,0,0,0,0,0,0,0,0,0,0,0,0,0,0,0,0,0,0,0,0,0Zm4.443,11.423-.1.1h-2.9v-.2h2.9Zm-.1.1v-.2h.03l0,0,0,0,0,0,0,0,0,0,0,0,0,0,0,0,0,0,0,0,0,0,0,0,0,0,0,0,0,0,0,0,0,0,0,0,0,0,0,0v.06l0,0,0,0,0,0,0,0,0,0,0,0,0,0,0,0,0,0,0,0,0,0,0,0,0,0,0,0,0,0,0,0,0,0,0,0,0,0,0,0h-.03Zm-.1,1v-1.1h.2V121Zm0,0h.2v.03l0,0,0,0,0,0,0,0,0,0,0,0,0,0,0,0,0,0,0,0,0,0,0,0,0,0,0,0,0,0,0,0,0,0,0,0,0,0,0,0h-.061l0,0,0,0,0,0,0,0,0,0,0,0,0,0,0,0,0,0,0,0,0,0,0,0,0,0,0,0,0,0,0,0,0,0,0,0,0,0,0,0V121Zm.206.058h-.2v-.009h0v-.01h0v-.006h0v-.006h0v-.015h0v-.007h0V121h0l.2-.008v0h0V121h0v.024h0v.006h0v.01h0v.016Zm-.92,1.351-.2-.021.064-.084.047-.019.045-.021.044-.022.044-.024.043-.026.041-.027.041-.028.039-.03.038-.031.037-.033.036-.034.035-.035.033-.037.032-.037.03-.039.029-.04.028-.041.026-.042.024-.043.023-.044.021-.045.019-.046.018-.047.016-.048.014-.048.012-.049.011-.05.009-.05.007-.051.005-.052,0-.052v-.053h.2l0,.06,0,.06-.006.06-.008.059-.01.058-.012.057-.015.057-.017.056-.019.055-.021.054-.023.053-.025.052-.026.051-.029.049-.03.049-.032.047-.033.046-.035.045-.037.044-.038.042-.04.041-.041.039-.043.038-.044.036-.045.034-.046.033-.048.031-.049.029-.05.028-.052.026-.053.024-.053.022Zm-.139-.1.075.189,0,0-.005,0h-.059l0,0,0,0,0,0,0,0,0,0,0,0,0,0,0,0,0,0,0,0,0,0,0,0,0,0,0,0,0,0,0,0,0,0,0,0,0,0,0,0v-.059l0,0,0,0,0,0,0,0,0,0,0,0,0,0,0,0,0,0,0,0,0,0,0,0,0,0,0,0,0,0,0,0,0,0Zm-.5.673v-.2h.042l.02,0,.02,0,.02,0,.019-.005.019-.006.019-.007.018-.007.018-.008.018-.009.017-.01.017-.011.016-.011.015-.012.015-.013.014-.013.014-.014.013-.014.012-.015.012-.016.011-.016.01-.017.01-.017.008-.017.008-.018.007-.018.006-.019.005-.019,0-.019,0-.02,0-.021.2.021,0,.029-.005.029-.007.029-.008.028-.009.028-.01.027-.011.026-.013.026-.014.026-.015.025-.016.023-.017.023-.018.022-.019.022-.02.02-.021.02-.021.018-.022.018-.024.017-.024.016-.025.015-.025.013-.026.012-.027.011-.027.01-.028.009-.029.008-.029.006-.03.005-.03,0-.03,0Zm-.571-.484.075-.189.064.084,0,.021,0,.02,0,.019.005.019.006.019.007.018.008.018.008.017.01.017.01.017.01.016.012.016.012.015.013.014.014.014.014.013.015.012.015.012.016.012.016.01.017.01.017.009.018.008.018.007.019.007.019.006.019.005.02,0,.02,0,.02,0h.042v.2h-.031l-.03,0-.03,0-.03-.005-.029-.006-.029-.008-.028-.009-.027-.01-.027-.011-.026-.012-.025-.013-.025-.015-.024-.016-.023-.016-.023-.018-.022-.019-.021-.02-.02-.02-.019-.022-.018-.022-.017-.023-.016-.024-.015-.024-.014-.025-.013-.027-.011-.026-.01-.027-.009-.028-.008-.028-.007-.029-.005-.029,0-.029Zm.139-.1-.2.021v-.04l0,0,0,0,0,0,0,0,0,0,0,0,0,0,0,0,0,0,0,0,0,0,0,0,0,0,0,0,0,0,0,0,0,0,0,0,0,0,0,0h.061l0,0,0,0,0,0,0,0,0,0,0,0,0,0,0,0,0,0,0,0,0,0,0,0,0,0,0,0,0,0,0,0,0,0,0,0,0,0,0,0v.02Zm-1.123-1.33h.2v.053l0,.052,0,.052.007.051.009.051.011.05.012.049.014.049.016.048.018.047.019.046.021.045.023.044.024.043.026.042.028.041.029.04.031.039.032.038.033.037.035.035.036.034.037.033.038.031.039.03.041.028.041.027.043.026.044.024.044.023.045.021.047.019-.075.189-.053-.022-.053-.024-.052-.026-.05-.028-.049-.029-.048-.031-.046-.033-.046-.034-.044-.036-.043-.038-.041-.039-.04-.041-.038-.042-.037-.043-.035-.045-.034-.046-.032-.047-.03-.048-.028-.05-.026-.051-.025-.052-.023-.053-.021-.054-.019-.055-.017-.056-.015-.057-.012-.058-.01-.058-.008-.059-.006-.06,0-.06Zm0-.06h.2v0h0v.007h0v.006h0v.015h0v.006h0v.007h0v.01h0v.009h-.2v-.016h0v-.01h0v-.006h0V121h0V121h0v0Zm.2,0-.2-.008v-.025l0,0,0,0,0,0,0,0,0,0,0,0,0,0,0,0,0,0,0,0,0,0,0,0,0,0,0,0,0,0,0,0,0,0,0,0,0,0,0,0h.061l0,0,0,0,0,0,0,0,0,0,0,0,0,0,0,0,0,0,0,0,0,0,0,0,0,0,0,0,0,0,0,0,0,0,0,0,0,0,0,0V121Zm-.1-1.2.1.1V121h-.2V119.9Zm.1.1h-.2v-.03l0,0,0,0,0,0,0,0,0,0,0,0,0,0,0,0,0,0,0,0,0,0,0,0,0,0,0,0,0,0,0,0,0,0,0,0,0,0,0,0h.061l0,0,0,0,0,0,0,0,0,0,0,0,0,0,0,0,0,0,0,0,0,0,0,0,0,0,0,0,0,0,0,0,0,0,0,0,0,0,0,0v.03Z" transform="translate(-122.346 -103.531)" fill="#b4372e" fill-rule="evenodd"/>
    </g>
  </g>
</svg>
