<svg xmlns="http://www.w3.org/2000/svg" xmlns:xlink="http://www.w3.org/1999/xlink" width="122.06" height="33.968" viewBox="0 0 122.06 33.968">
  <defs>
    <clipPath id="clip-path">
      <rect id="Rectangle_683" data-name="Rectangle 683" width="122.06" height="33.968" fill="#1d365a"/>
    </clipPath>
  </defs>
  <g id="Group_124" data-name="Group 124" transform="translate(0 0.001)">
    <path id="Path_1577" data-name="Path 1577" d="M0,1.316V28H16.444l.019-2.943H3.613V15.953H14V13.123H3.613V4.258H16.444V1.316Z" transform="translate(0 -0.832)" fill="#1d365a"/>
    <rect id="Rectangle_682" data-name="Rectangle 682" width="9.2" height="2.812" transform="translate(20.061 14.6)" fill="#1d365a"/>
    <g id="Group_123" data-name="Group 123" transform="translate(0 -0.001)">
      <g id="Group_122" data-name="Group 122" transform="translate(0 0)" clip-path="url(#clip-path)">
        <path id="Path_1578" data-name="Path 1578" d="M108.06,28h-2.794a1.2,1.2,0,0,1-.782-.242,1.489,1.489,0,0,1-.447-.614l-2.5-6.444H89.567l-2.5,6.444a1.305,1.305,0,0,1-.428.6,1.188,1.188,0,0,1-.782.261H83.068L93.739,1.315h3.65Zm-7.524-9.907L96.346,7.237q-.187-.484-.391-1.127t-.391-1.369a20.286,20.286,0,0,1-.8,2.514l-4.19,10.838Z" transform="translate(-52.491 -0.831)" fill="#1d365a"/>
        <path id="Path_1579" data-name="Path 1579" d="M170.794,22.766V24q0,.615-.782.782l-2.142.279a6.159,6.159,0,0,1,.1,5.224,5.733,5.733,0,0,1-1.461,1.927,6.488,6.488,0,0,1-2.235,1.229,9.008,9.008,0,0,1-2.831.428,9.533,9.533,0,0,1-2.5-.317,3.354,3.354,0,0,0-.913.791,1.4,1.4,0,0,0-.316.847,1.122,1.122,0,0,0,.549,1.015,3.922,3.922,0,0,0,1.443.494,15.561,15.561,0,0,0,2.04.186q1.145.038,2.346.121a21.949,21.949,0,0,1,2.347.289,7.1,7.1,0,0,1,2.04.67,3.842,3.842,0,0,1,1.443,1.285,3.747,3.747,0,0,1,.549,2.123,4.937,4.937,0,0,1-.605,2.347,6.338,6.338,0,0,1-1.742,2.02,8.955,8.955,0,0,1-2.784,1.416,12.1,12.1,0,0,1-3.716.53,14.192,14.192,0,0,1-3.613-.41,8.471,8.471,0,0,1-2.569-1.1,4.781,4.781,0,0,1-1.537-1.593,3.774,3.774,0,0,1-.512-1.89,3.4,3.4,0,0,1,.875-2.365,6.055,6.055,0,0,1,2.4-1.546,3.429,3.429,0,0,1-1.331-1A2.884,2.884,0,0,1,155,35.253a3.5,3.5,0,0,1,.456-.875,4.652,4.652,0,0,1,.754-.829,4.886,4.886,0,0,1,1.042-.689,5.8,5.8,0,0,1-2.179-2.076,5.7,5.7,0,0,1-.782-3.008,5.806,5.806,0,0,1,.531-2.5,5.541,5.541,0,0,1,1.48-1.918,6.789,6.789,0,0,1,2.263-1.22,9.872,9.872,0,0,1,5.168-.158,7.271,7.271,0,0,1,1.937.791Zm-3.371,19.144a1.591,1.591,0,0,0-.391-1.118,2.607,2.607,0,0,0-1.052-.67,6.793,6.793,0,0,0-1.536-.345q-.875-.1-1.853-.158l-1.983-.112q-1.007-.056-1.937-.186a5.181,5.181,0,0,0-1.7,1.22,2.492,2.492,0,0,0-.661,1.723,2.281,2.281,0,0,0,.326,1.183,2.786,2.786,0,0,0,1,.95,5.841,5.841,0,0,0,1.685.633,12.216,12.216,0,0,0,4.8-.009,6.037,6.037,0,0,0,1.8-.689,3.382,3.382,0,0,0,1.127-1.062,2.479,2.479,0,0,0,.391-1.359m-5.978-10.243a5.138,5.138,0,0,0,1.769-.279,3.6,3.6,0,0,0,1.285-.782,3.2,3.2,0,0,0,.782-1.2,4.355,4.355,0,0,0,.261-1.536,3.667,3.667,0,0,0-1.053-2.756,5.064,5.064,0,0,0-6.108,0,3.667,3.667,0,0,0-1.052,2.756,4.228,4.228,0,0,0,.27,1.536,3.3,3.3,0,0,0,.791,1.2,3.6,3.6,0,0,0,1.285.782,5.134,5.134,0,0,0,1.769.279" transform="translate(-96.933 -13.715)" fill="#1d365a"/>
        <path id="Path_1580" data-name="Path 1580" d="M271.972,2.384a2.109,2.109,0,0,1-.2.9,2.594,2.594,0,0,1-.522.745,2.389,2.389,0,0,1-.763.512,2.332,2.332,0,0,1-.922.186,2.2,2.2,0,0,1-.9-.186,2.334,2.334,0,0,1-.735-.512,2.522,2.522,0,0,1-.5-.745,2.194,2.194,0,0,1-.186-.9,2.325,2.325,0,0,1,.186-.922,2.464,2.464,0,0,1,.5-.763,2.346,2.346,0,0,1,.735-.512,2.206,2.206,0,0,1,.9-.186,2.338,2.338,0,0,1,.922.186,2.4,2.4,0,0,1,.763.512,2.528,2.528,0,0,1,.522.763,2.235,2.235,0,0,1,.2.922m-.708,24.787h-3.315V8.306h3.315Z" transform="translate(-168.87 0)" fill="#1d365a"/>
        <path id="Path_1581" data-name="Path 1581" d="M304.249,25.4a1.477,1.477,0,0,1-.3.317.67.67,0,0,1-.41.112,1.1,1.1,0,0,1-.614-.233q-.335-.232-.829-.512a6.633,6.633,0,0,0-1.21-.512,6.525,6.525,0,0,0-4.218.261,4.731,4.731,0,0,0-1.779,1.425,6.444,6.444,0,0,0-1.08,2.253,11.159,11.159,0,0,0-.364,2.961,10.818,10.818,0,0,0,.391,3.045,6.5,6.5,0,0,0,1.108,2.235,4.765,4.765,0,0,0,1.732,1.378,5.322,5.322,0,0,0,2.281.475,5.488,5.488,0,0,0,3.287-.931q.511-.353.857-.642a1.065,1.065,0,0,1,.68-.289.73.73,0,0,1,.633.316l.931,1.211a6.589,6.589,0,0,1-1.4,1.3,8.6,8.6,0,0,1-1.686.9,9.162,9.162,0,0,1-1.89.531,11.984,11.984,0,0,1-2.011.168,8.246,8.246,0,0,1-3.287-.652,7.492,7.492,0,0,1-2.635-1.89,8.845,8.845,0,0,1-1.751-3.045,12.4,12.4,0,0,1-.633-4.116,12.412,12.412,0,0,1,.587-3.892,8.818,8.818,0,0,1,1.713-3.082,7.789,7.789,0,0,1,2.775-2.02,9.319,9.319,0,0,1,3.79-.726,8.943,8.943,0,0,1,3.511.643,8.407,8.407,0,0,1,2.691,1.815Z" transform="translate(-183.288 -13.746)" fill="#1d365a"/>
        <path id="Path_1582" data-name="Path 1582" d="M215.137,26.693a13,13,0,0,1,6.107-6.386.552.552,0,0,0-.431-1.016,12.294,12.294,0,0,0-5.923,5.3.364.364,0,0,1-.68-.161,4.75,4.75,0,0,1,.559-2.414c2.047-4.093,7.98-4.645,7.98-4.645.353-.044,3.736-.681.865,6.048-2.455,5.757-6.574,4.715-7.049,4.465a4.3,4.3,0,0,1-.853-.469c-.576,2.418-.815,4.967-.668,10.212,0,.221.011.449.018.681a.317.317,0,0,1,0,.059.461.461,0,0,1-.442.479h-.018a.442.442,0,0,1-.317-.129.343.343,0,0,1-.059-.066.472.472,0,0,1-.085-.247c-.007-.236-.018-.464-.022-.692a14.01,14.01,0,0,0-1.417-5.9,4.025,4.025,0,0,1-4.94.475c-4.049-2.139-4.458-8.083-4.458-8.083-.04-.353-.593-3.751,6.063-.725,5.7,2.591,4.561,6.685,4.3,7.152a4.837,4.837,0,0,1-.3.453,11.1,11.1,0,0,1,.8,1.785,17.12,17.12,0,0,1,.961-6.177" transform="translate(-128.455 -10.956)" fill="#1d365a"/>
      </g>
    </g>
  </g>
</svg>
