<svg xmlns="http://www.w3.org/2000/svg" xmlns:xlink="http://www.w3.org/1999/xlink" width="106.607" height="51.552" viewBox="0 0 106.607 51.552">
  <defs>
    <clipPath id="clip-path">
      <rect id="Rectangle_12" data-name="Rectangle 12" width="106.607" height="51.552" fill="#1d365a"/>
    </clipPath>
    <clipPath id="clip-path-3">
      <rect id="Rectangle_7" data-name="Rectangle 7" width="4.952" height="5.762" fill="#1d365a"/>
    </clipPath>
  </defs>
  <g id="Group_121" data-name="Group 121" transform="translate(0 0)">
    <g id="Group_7" data-name="Group 7" transform="translate(0 0)" clip-path="url(#clip-path)">
      <g id="Group_6" data-name="Group 6">
        <g id="Group_5" data-name="Group 5" clip-path="url(#clip-path)">
          <path id="Path_1321" data-name="Path 1321" d="M53.714,152.026a48.745,48.745,0,0,0,3.955,2.9c-.855-.611-2.27-1.608-3.955-2.9" transform="translate(-38.343 -108.522)" fill="#1d365a"/>
          <path id="Path_1322" data-name="Path 1322" d="M61.448,58.915c-2.959,2.1-6.039,4.373-6.251,4.528l-.122.1c-.013.013-.045.045-.1.1l1.588,2.045c.1-.1.18-.174.225-.219.5-.373,3.782-2.772,6.7-4.843-.72-.6-1.4-1.183-2.032-1.711" transform="translate(-39.241 -42.056)" fill="#1d365a"/>
          <path id="Path_1323" data-name="Path 1323" d="M36.986,69.167c-.791,1.621-2.856,3.286-8.206,2.019a31.272,31.272,0,0,1-8.74-4.213v-.006l-.1-.064c-.039-.026-.084-.058-.135-.09s-.1-.064-.148-.1-.1-.071-.161-.109-.109-.077-.167-.116c-.855-.611-2.27-1.608-3.955-2.9a.51.51,0,0,0-.09-.071C9.287,58.89-.032,50.735,0,44.632c.032-7.364,8.522-12.451,15.261-14.573,0,0,.09-.039.29-.109a21.282,21.282,0,0,1,2.566-.682,68.039,68.039,0,0,1,8.554-1.119,9.172,9.172,0,0,1,1.858.1,3.073,3.073,0,0,1,3,2.354c.373,1.768-.926,3.962-3.081,5.216-.212.122-1.209.772-1.852,1.183-.714-.611-1.4-1.2-2.051-1.749.842-.553,2.238-1.441,2.611-1.659,1.273-.739,1.975-1.7,1.859-2.463-.032-.187-.489-.476-.83-.515a49.137,49.137,0,0,0-8.3.919s-3.685.888-4.611,1.3a6,6,0,0,0-3.216,3.081c-.482,2.032.489,4.534,2.63,6.766.212.231,1.871,1.768,1.871,1.768,1.878,1.711,7.126,6.232,10.065,8.753,1.228,1.048,2.051,1.756,2.051,1.756.032.026.058.052.09.077a43.084,43.084,0,0,1,4.611,4.611c-1.106.289-2.135.54-2.135.54-.09.026-.206.051-.347.084-2.753-2.347-13.9-11.936-16.161-14L12.869,44.5c-2.753-2.855-3.994-6.225-3.331-9.113C5.73,37.641,2.592,40.8,2.572,44.645c-.013,2.843,3,6.688,6.759,10.342a10.351,10.351,0,0,1,1.82-8.65c.277-.315.592-.662.926-1.01L13.7,47.352c-.225.238-.425.463-.611.675-1.827,2.09-2.341,7.228.965,10.849a26.354,26.354,0,0,0,2.476,2.335,50.655,50.655,0,0,0,4.952,3.64,29,29,0,0,0,7.885,3.833,12.462,12.462,0,0,0,2.791.373c1.306,0,2.18-.341,2.515-1.016.476-.984.077-2.688-.862-4.38l2.322-1.151c1.254,2.309,1.756,4.8.849,6.656" transform="translate(0 -20.081)" fill="#1d365a"/>
          <g id="Group_4" data-name="Group 4" transform="translate(29.648 4.659)" opacity="0.33">
            <g id="Group_3" data-name="Group 3">
              <g id="Group_2" data-name="Group 2" clip-path="url(#clip-path-3)">
                <path id="Path_1324" data-name="Path 1324" d="M108.558,27.339c-1.929-1.511-3.685-2.772-4.952-3.634V23.7a50.6,50.6,0,0,1,4.952,3.64" transform="translate(-103.606 -21.577)" fill="#1d365a"/>
                <path id="Path_1325" data-name="Path 1325" d="M108.765,16.353l-.1-.064v-.006c.032.019.064.045.1.071" transform="translate(-107.215 -16.282)" fill="#1d365a"/>
              </g>
            </g>
          </g>
          <path id="Path_1326" data-name="Path 1326" d="M85.4,27c-.032,7.364-8.521,12.451-15.261,14.573,0,0-2.8,1.235-11.409,1.91a9.147,9.147,0,0,1-1.859-.1,3.073,3.073,0,0,1-3-2.354c-.373-1.768.926-3.962,3.081-5.216.276-.161.656-.405,1.106-.7l2,1.756c-.752.508-1.389.92-1.813,1.17-1.273.739-1.981,1.7-1.859,2.463.026.18.489.476.83.515a50.051,50.051,0,0,0,7.949-.836c.141-.032.257-.058.347-.084,0,0,1.029-.251,2.135-.54a23.281,23.281,0,0,0,2.482-.759,6.073,6.073,0,0,0,3.216-3.081c.476-2.032-.489-4.534-2.63-6.766-.212-.232-1.871-1.768-1.871-1.768-2.669-2.431-12.116-10.509-12.116-10.509-2.026-1.711-3.666-3.029-3.8-3.138-.277-.219-.54-.457-.8-.708L54.855,11.8c.6.515,2.1,1.781,3.962,3.364.65.553,1.338,1.138,2.051,1.749,3.9,3.319,8.406,7.184,9.8,8.451l1.865,1.769c2.753,2.855,3.994,6.225,3.331,9.113,3.807-2.258,6.946-5.415,6.965-9.261.013-2.843-3-6.688-6.759-10.341a10.35,10.35,0,0,1-1.82,8.65c-.277.315-.592.662-.926,1.01L71.7,24.28c.225-.238.424-.463.611-.675,1.826-2.09,2.341-7.229-.965-10.849a26.285,26.285,0,0,0-2.476-2.334,50.655,50.655,0,0,0-4.952-3.64,29.007,29.007,0,0,0-7.885-3.833,12.466,12.466,0,0,0-2.791-.373c-1.305,0-2.18.341-2.514,1.016-.54,1.113.186,3.537,1.659,5.6a21.283,21.283,0,0,0-2.566.682c-1.647-2.547-2.315-5.531-1.4-7.4C49.208.845,51.273-.821,56.623.446a31.272,31.272,0,0,1,8.74,4.213v.006l.1.064c.039.026.084.058.135.09s.1.064.148.1.1.071.161.109.109.077.167.116c.855.611,2.27,1.608,3.955,2.9a.483.483,0,0,0,.09.071C76.116,12.743,85.435,20.9,85.4,27" transform="translate(-34.269 0)" fill="#1d365a"/>
          <path id="Path_1327" data-name="Path 1327" d="M111.157,17.99c.855.611,2.27,1.608,3.955,2.9a48.671,48.671,0,0,0-3.955-2.9" transform="translate(-79.348 -12.842)" fill="#1d365a"/>
          <path id="Path_1328" data-name="Path 1328" d="M101.822,99.616c-.058.052-.09.084-.1.1l-.122.1c-.2.148-3.537,2.727-6.412,4.785-.032-.026-.058-.051-.09-.077,0,0-.823-.707-2.051-1.756,2.862-2.039,6.483-4.617,6.965-4.978.045-.045.122-.116.225-.219Z" transform="translate(-66.418 -69.65)" fill="#1d365a"/>
          <rect id="Rectangle_8" data-name="Rectangle 8" width="6.275" height="22.793" transform="translate(53.719 14.196)" fill="#1d365a"/>
          <path id="Path_1329" data-name="Path 1329" d="M223.714,63.677a11.271,11.271,0,0,0,2.732,2.351,5.327,5.327,0,0,0,2.686.778,3.088,3.088,0,0,0,2.047-.669,2.117,2.117,0,0,0,.8-1.7,2.22,2.22,0,0,0-.693-1.752,8.772,8.772,0,0,0-3.137-1.269,10.227,10.227,0,0,1-4.733-2.351,5.505,5.505,0,0,1-1.386-3.97,7,7,0,0,1,2.187-5.332A7.936,7.936,0,0,1,229.9,47.7a12.394,12.394,0,0,1,3.573.506,11.569,11.569,0,0,1,3.2,1.534l-1.946,4.468a8.152,8.152,0,0,0-2.172-1.362,5.745,5.745,0,0,0-2.2-.46,2.91,2.91,0,0,0-1.822.537,1.663,1.663,0,0,0-.7,1.378,1.694,1.694,0,0,0,.615,1.37,6.662,6.662,0,0,0,2.374.981l.28.078q3.8,1.027,5,2.258a5.567,5.567,0,0,1,1.23,2.016,7.7,7.7,0,0,1,.421,2.608,7.565,7.565,0,0,1-2.382,5.831,8.984,8.984,0,0,1-6.352,2.2,11.225,11.225,0,0,1-4.336-.81,12.27,12.27,0,0,1-3.76-2.538Z" transform="translate(-157.696 -34.052)" fill="#1d365a"/>
          <path id="Path_1330" data-name="Path 1330" d="M300.34,62.726v-4.78h12.206q.015.233.023.514t.008.826q0,5.885-3.106,9.131t-8.742,3.246a13.607,13.607,0,0,1-4.928-.833,10.921,10.921,0,0,1-3.853-2.546,11.51,11.51,0,0,1-2.514-3.869,12.458,12.458,0,0,1-.9-4.678,12.324,12.324,0,0,1,.872-4.694,11.533,11.533,0,0,1,6.531-6.375,13.189,13.189,0,0,1,4.788-.857,12.792,12.792,0,0,1,5.924,1.323,11.579,11.579,0,0,1,4.336,3.939L305.6,55.658a6.549,6.549,0,0,0-2.172-1.969,5.631,5.631,0,0,0-2.7-.646,5.493,5.493,0,0,0-4.391,1.86,7.528,7.528,0,0,0-1.6,5.083,7.609,7.609,0,0,0,1.6,5.122,5.481,5.481,0,0,0,4.391,1.868,6.486,6.486,0,0,0,3.946-1.16,4.439,4.439,0,0,0,1.845-3.09Z" transform="translate(-205.971 -34.129)" fill="#1d365a"/>
          <rect id="Rectangle_9" data-name="Rectangle 9" width="0.948" height="7.218" transform="translate(53.947 39.555)" fill="#1d365a"/>
          <path id="Path_1331" data-name="Path 1331" d="M198.606,147.181a1.923,1.923,0,0,0-.927.219,1.726,1.726,0,0,0-.387.287v-.351h-.873v4.5h.9v-2.342a1.838,1.838,0,0,1,.279-1.136,1.014,1.014,0,0,1,.851-.333.853.853,0,0,1,.686.248,1.26,1.26,0,0,1,.222.826v2.737h.91v-3a1.532,1.532,0,0,0-1.663-1.659" transform="translate(-140.212 -105.064)" fill="#1d365a"/>
          <path id="Path_1332" data-name="Path 1332" d="M214.094,136.526a1.807,1.807,0,0,0-.326-.028,1.089,1.089,0,0,0-1,.45,3.65,3.65,0,0,0-.26,1.718v1.045h-.782v.816h.782v3.684h.9v-3.684h.919v-.816h-.919v-1.422a1.937,1.937,0,0,1,.108-.818c.048-.091.157-.211.446-.134a1,1,0,0,1,.188.073l.186.093.18-.846-.128-.049a1.675,1.675,0,0,0-.293-.081" transform="translate(-151.14 -97.438)" fill="#1d365a"/>
          <path id="Path_1333" data-name="Path 1333" d="M225.341,147.275a1.857,1.857,0,0,0-.27-.072,1.377,1.377,0,0,0-1.091.231,1.964,1.964,0,0,0-.373.373v-.474h-.9v4.5h.9v-2.215a1.82,1.82,0,0,1,.337-1.123.89.89,0,0,1,.93-.41c.062.012.121.026.179.043l.148.045.291-.844Z" transform="translate(-158.977 -105.06)" fill="#1d365a"/>
          <path id="Path_1334" data-name="Path 1334" d="M235.47,147.729a1.6,1.6,0,0,0-.357-.292,2.049,2.049,0,0,0-2.525.434,2.6,2.6,0,0,0-.58,1.742,2.526,2.526,0,0,0,.589,1.736,2.006,2.006,0,0,0,1.568.671,1.754,1.754,0,0,0,.971-.268,1.606,1.606,0,0,0,.334-.288v.373h.9v-4.5h-.9Zm-.334,3.01a1.093,1.093,0,0,1-.913.417,1.118,1.118,0,0,1-.92-.38,1.752,1.752,0,0,1-.328-1.145,1.843,1.843,0,0,1,.345-1.187,1.1,1.1,0,0,1,.912-.409,1.123,1.123,0,0,1,.909.384,1.653,1.653,0,0,1,.338,1.1,1.922,1.922,0,0,1-.344,1.216" transform="translate(-165.617 -105.064)" fill="#1d365a"/>
          <path id="Path_1335" data-name="Path 1335" d="M262.317,140.863l-.332-.175c-.737-.386-1.11-.793-1.11-1.209a.925.925,0,0,1,.254-.694.938.938,0,0,1,.7-.252,1.153,1.153,0,0,1,.573.135.888.888,0,0,1,.362.385l.078.154.765-.461-.074-.135a1.806,1.806,0,0,0-.685-.72,1.958,1.958,0,0,0-.982-.24,1.979,1.979,0,0,0-1.4.5,1.831,1.831,0,0,0-.168,2.424,4.841,4.841,0,0,0,1.434,1.01,3.249,3.249,0,0,1,1.009.718,1.191,1.191,0,0,1,.215.733,1.342,1.342,0,0,1-.323.958,1.18,1.18,0,0,1-.906.336,1.258,1.258,0,0,1-.791-.248,1.313,1.313,0,0,1-.464-.706l-.056-.189-.839.449.055.134a2.356,2.356,0,0,0,.813,1.076,2.138,2.138,0,0,0,3.43-1.811,2.1,2.1,0,0,0-.325-1.21,3.578,3.578,0,0,0-1.233-.966" transform="translate(-185.297 -98.26)" fill="#1d365a"/>
          <path id="Path_1336" data-name="Path 1336" d="M280.272,150.266a1.693,1.693,0,0,1-.527.69,1.188,1.188,0,0,1-.716.22,1.1,1.1,0,0,1-.9-.4,1.775,1.775,0,0,1-.359-1.009h3.312v-.288a2.4,2.4,0,0,0-.564-1.66,1.94,1.94,0,0,0-1.509-.635,2.039,2.039,0,0,0-1.592.685,2.561,2.561,0,0,0-.6,1.765,2.446,2.446,0,0,0,.611,1.722,2.089,2.089,0,0,0,1.6.667,2.224,2.224,0,0,0,1.225-.325,2.476,2.476,0,0,0,.841-1l.07-.138-.82-.45Zm-2.111-1.916a1.086,1.086,0,0,1,.774-.287,1.131,1.131,0,0,1,.809.273,1.049,1.049,0,0,1,.31.612h-2.226a1.113,1.113,0,0,1,.333-.6" transform="translate(-197.601 -105.064)" fill="#1d365a"/>
          <path id="Path_1337" data-name="Path 1337" d="M299.312,150.229l-1.173-2.9h-.532l0,0-.152-.052a1.9,1.9,0,0,0-.27-.072,1.376,1.376,0,0,0-1.09.231,1.972,1.972,0,0,0-.373.373v-.474h-.9v4.5h.9v-2.215a1.82,1.82,0,0,1,.338-1.123.89.89,0,0,1,.93-.41c.062.012.121.026.179.043l.148.045.087-.252,1.908,4.425,2.167-5.013h-1Z" transform="translate(-210.456 -105.06)" fill="#1d365a"/>
          <rect id="Rectangle_10" data-name="Rectangle 10" width="0.92" height="4.5" transform="translate(91.56 42.273)" fill="#1d365a"/>
          <path id="Path_1338" data-name="Path 1338" d="M319.628,140.659a.6.6,0,0,0,0,.858.593.593,0,0,0,.431.173.6.6,0,0,0,.435-.173.583.583,0,0,0,.178-.43.576.576,0,0,0-.183-.429.615.615,0,0,0-.858,0" transform="translate(-228.035 -100.283)" fill="#1d365a"/>
          <path id="Path_1339" data-name="Path 1339" d="M329.479,151.094a1.97,1.97,0,0,1-.634.109,1.492,1.492,0,0,1-1.109-.429,1.468,1.468,0,0,1-.431-1.1,1.7,1.7,0,0,1,.419-1.217,1.444,1.444,0,0,1,1.121-.446,2.147,2.147,0,0,1,.631.094,2.087,2.087,0,0,1,.577.282l.248.172.016-1.036-.087-.046a2.518,2.518,0,0,0-.632-.225,3.485,3.485,0,0,0-.744-.076,2.349,2.349,0,0,0-2.459,2.459,2.374,2.374,0,0,0,.658,1.721,2.259,2.259,0,0,0,1.684.678,3.672,3.672,0,0,0,.833-.092,2.7,2.7,0,0,0,.721-.278l.081-.046v-1.039l-.254.178a2.533,2.533,0,0,1-.639.333" transform="translate(-232.994 -105.064)" fill="#1d365a"/>
          <path id="Path_1340" data-name="Path 1340" d="M345.16,150.266a1.692,1.692,0,0,1-.527.69,1.188,1.188,0,0,1-.716.22,1.1,1.1,0,0,1-.9-.4,1.775,1.775,0,0,1-.359-1.009h3.312v-.288a2.4,2.4,0,0,0-.564-1.66,1.94,1.94,0,0,0-1.509-.635,2.039,2.039,0,0,0-1.592.685,2.561,2.561,0,0,0-.6,1.765,2.446,2.446,0,0,0,.611,1.722,2.089,2.089,0,0,0,1.6.667,2.224,2.224,0,0,0,1.225-.325,2.476,2.476,0,0,0,.841-1l.07-.138-.82-.45Zm-2.111-1.916a1.086,1.086,0,0,1,.774-.287,1.131,1.131,0,0,1,.809.273,1.049,1.049,0,0,1,.31.612h-2.226a1.113,1.113,0,0,1,.333-.6" transform="translate(-243.92 -105.064)" fill="#1d365a"/>
          <path id="Path_1341" data-name="Path 1341" d="M359.982,149.116a2.351,2.351,0,0,1-.745-.341.383.383,0,0,1-.139-.308.406.406,0,0,1,.143-.322.769.769,0,0,1,.864-.007.685.685,0,0,1,.267.37l.062.184.825-.46-.053-.131a1.444,1.444,0,0,0-.588-.708,1.776,1.776,0,0,0-.951-.246,1.557,1.557,0,0,0-1.083.383,1.284,1.284,0,0,0-.43.993,1.106,1.106,0,0,0,.308.792,2.737,2.737,0,0,0,.973.57c.037.017.088.037.149.06.5.2.751.419.751.665a.464.464,0,0,1-.161.375.705.705,0,0,1-.479.147.95.95,0,0,1-.545-.149.93.93,0,0,1-.336-.451l-.068-.173-.832.477.049.128a1.521,1.521,0,0,0,.618.764,1.845,1.845,0,0,0,1,.268,1.823,1.823,0,0,0,1.206-.381,1.3,1.3,0,0,0,.467-1.042,1.338,1.338,0,0,0-.276-.886,2.282,2.282,0,0,0-1-.572" transform="translate(-255.493 -105.04)" fill="#1d365a"/>
        </g>
      </g>
    </g>
  </g>
</svg>
