<svg id="Group_928" data-name="Group 928" xmlns="http://www.w3.org/2000/svg" xmlns:xlink="http://www.w3.org/1999/xlink" width="119.793" height="121.705" viewBox="0 0 119.793 121.705">
  <defs>
    <linearGradient id="linear-gradient" x1="0.104" y1="1" x2="0.86" y2="0.072" gradientUnits="objectBoundingBox">
      <stop offset="0" stop-color="#60c"/>
      <stop offset="1" stop-color="#cc0166"/>
    </linearGradient>
    <clipPath id="clip-path">
      <rect id="Rectangle_977" data-name="Rectangle 977" width="119.793" height="121.705" stroke="rgba(0,0,0,0)" stroke-width="1" fill="url(#linear-gradient)"/>
    </clipPath>
  </defs>
  <g id="Group_920" data-name="Group 920" clip-path="url(#clip-path)">
    <path id="Path_2008" data-name="Path 2008" d="M71.633,95.6a1.426,1.426,0,0,0-1.426,1.426V103.4H3.3V15.691h66.91v28.8l-7.9-7.9a1.426,1.426,0,0,0-2.017,2.017L70.624,48.941a1.412,1.412,0,0,0,.217.178s.008,0,.011.006a1.421,1.421,0,0,0,1.8-.193L82.974,38.607q.033-.031.064-.064a1.426,1.426,0,1,0-2.079-1.952l-7.9,7.9V9.178h0A9.177,9.177,0,0,0,63.882,0H9.621A9.177,9.177,0,0,0,.445,9.178v4.056a1.417,1.417,0,0,0,0,2.062v88.5a1.417,1.417,0,0,0,0,2.062v6.675h0a9.177,9.177,0,0,0,9.178,9.176H63.883a9.177,9.177,0,0,0,9.176-9.178v-15.5A1.426,1.426,0,0,0,71.633,95.6M9.623,2.852H63.882a6.333,6.333,0,0,1,6.325,6.325v3.661H3.3V9.178A6.333,6.333,0,0,1,9.623,2.852m54.259,116H9.623A6.333,6.333,0,0,1,3.3,112.528v-6.28h66.91v6.28a6.333,6.333,0,0,1-6.325,6.326" transform="translate(0 0)" stroke="rgba(0,0,0,0)" stroke-width="1" fill="url(#linear-gradient)"/>
    <path id="Path_2009" data-name="Path 2009" d="M53.27,156.005H45.426a1.426,1.426,0,1,0,0,2.852H53.27a1.426,1.426,0,1,0,0-2.852" transform="translate(-12.626 -44.765)" stroke="rgba(0,0,0,0)" stroke-width="1" fill="url(#linear-gradient)"/>
    <path id="Path_2010" data-name="Path 2010" d="M130.136,85.931v-11.3a1.409,1.409,0,0,0,0-1.533V45.441a9.268,9.268,0,0,0-2.618-6.5,8.817,8.817,0,0,0-6.369-2.71h-31.2a1.426,1.426,0,0,0,0,2.852h31.195a6.255,6.255,0,0,1,6.132,6.356V72.437H50.039V54.022l7.9,7.9a1.425,1.425,0,1,0,2.015-2.017L49.621,49.571c-.016-.016-.036-.027-.052-.043a1.409,1.409,0,0,0-.164-.133,1.313,1.313,0,0,0-.135-.073,1.223,1.223,0,0,0-.109-.058,1.384,1.384,0,0,0-.175-.054c-.031-.009-.059-.021-.091-.027a1.433,1.433,0,0,0-.562,0c-.031.006-.06.019-.091.026a1.4,1.4,0,0,0-.176.055c-.038.016-.072.038-.108.057a1,1,0,0,0-.3.21c-.016.014-.034.025-.049.04L37.27,59.906l-.035.035a1.426,1.426,0,0,0,2.051,1.982l7.9-7.9V91.89a9.267,9.267,0,0,0,2.615,6.5,8.817,8.817,0,0,0,6.369,2.71H121.15a8.819,8.819,0,0,0,6.368-2.712,9.268,9.268,0,0,0,2.618-6.5V87.464a1.409,1.409,0,0,0,0-1.533m-2.856-.66H50.039V75.289H127.28Zm-6.132,12.974H56.171a6.255,6.255,0,0,1-6.132-6.356V88.124H127.28V91.89a6.255,6.255,0,0,1-6.132,6.356" transform="translate(-10.569 -10.398)" stroke="rgba(0,0,0,0)" stroke-width="1" fill="url(#linear-gradient)"/>
    <path id="Path_2011" data-name="Path 2011" d="M67.846,72.846h0Z" transform="translate(-19.468 -20.903)" stroke="rgba(0,0,0,0)" stroke-width="1" fill="url(#linear-gradient)"/>
  </g>
</svg>
