<svg id="Group_910" data-name="Group 910" xmlns="http://www.w3.org/2000/svg" xmlns:xlink="http://www.w3.org/1999/xlink" width="119.793" height="162.829" viewBox="0 0 119.793 162.829">
  <defs>
    <linearGradient id="linear-gradient" x1="0.104" y1="1" x2="0.86" y2="0.072" gradientUnits="objectBoundingBox">
      <stop offset="0" stop-color="#60c"/>
      <stop offset="1" stop-color="#cc0166"/>
    </linearGradient>
    <clipPath id="clip-path">
      <rect id="Rectangle_978" data-name="Rectangle 978" width="61.168" height="16.668" stroke="rgba(0,0,0,0)" stroke-width="1" fill="url(#linear-gradient)"/>
    </clipPath>
    <clipPath id="clip-path-2">
      <rect id="Rectangle_979" data-name="Rectangle 979" width="119.793" height="162.829" stroke="rgba(0,0,0,0)" stroke-width="1" fill="url(#linear-gradient)"/>
    </clipPath>
    <clipPath id="clip-path-3">
      <rect id="Rectangle_980" data-name="Rectangle 980" width="13.611" height="5.599" fill="#60c"/>
    </clipPath>
  </defs>
  <g id="Group_922" data-name="Group 922" transform="translate(29.895 127.778)">
    <g id="Group_921" data-name="Group 921" clip-path="url(#clip-path)">
      <path id="Path_2012" data-name="Path 2012" d="M98.188,197.315H47.505a5.242,5.242,0,0,1-5.241-5.241V185.89a5.242,5.242,0,0,1,5.239-5.245H98.188a5.242,5.242,0,0,1,5.241,5.241v6.184a5.242,5.242,0,0,1-5.241,5.241" transform="translate(-42.264 -180.647)" stroke="rgba(0,0,0,0)" stroke-width="1" fill="url(#linear-gradient)"/>
    </g>
  </g>
  <g id="Group_924" data-name="Group 924">
    <g id="Group_923" data-name="Group 923" clip-path="url(#clip-path-2)">
      <path id="Path_2013" data-name="Path 2013" d="M109,33.521H22.844A4.249,4.249,0,0,0,18.6,37.765V48.453A4.249,4.249,0,0,0,22.844,52.7H109a4.248,4.248,0,0,0,4.244-4.244V37.765A4.249,4.249,0,0,0,109,33.521m2.829,14.932A2.832,2.832,0,0,1,109,51.282H22.844a2.832,2.832,0,0,1-2.829-2.829V37.765a2.833,2.833,0,0,1,2.829-2.829H109a2.833,2.833,0,0,1,2.829,2.829Z" transform="translate(-5.444 -9.81)" stroke="rgba(0,0,0,0)" stroke-width="1" fill="url(#linear-gradient)"/>
      <path id="Path_2014" data-name="Path 2014" d="M109,63.787H22.844A4.249,4.249,0,0,0,18.6,68.031V78.719a4.249,4.249,0,0,0,4.244,4.244H109a4.248,4.248,0,0,0,4.244-4.244V68.031A4.249,4.249,0,0,0,109,63.787m2.829,14.932A2.832,2.832,0,0,1,109,81.548H22.844a2.832,2.832,0,0,1-2.829-2.829V68.031A2.833,2.833,0,0,1,22.844,65.2H109a2.833,2.833,0,0,1,2.829,2.829Z" transform="translate(-5.444 -18.668)" stroke="rgba(0,0,0,0)" stroke-width="1" fill="url(#linear-gradient)"/>
      <path id="Path_2015" data-name="Path 2015" d="M109,94.054H22.844A4.249,4.249,0,0,0,18.6,98.3v10.688a4.249,4.249,0,0,0,4.244,4.244H109a4.248,4.248,0,0,0,4.244-4.244V98.3A4.249,4.249,0,0,0,109,94.054m2.829,14.932A2.832,2.832,0,0,1,109,111.815H22.844a2.832,2.832,0,0,1-2.829-2.829V98.3a2.833,2.833,0,0,1,2.829-2.829H109a2.833,2.833,0,0,1,2.829,2.829Z" transform="translate(-5.444 -27.526)" stroke="rgba(0,0,0,0)" stroke-width="1" fill="url(#linear-gradient)"/>
      <path id="Path_2016" data-name="Path 2016" d="M105.647,0h-91.5A14.162,14.162,0,0,0,0,14.147V148.682a14.162,14.162,0,0,0,14.147,14.147h91.5a14.163,14.163,0,0,0,14.147-14.147V14.147A14.163,14.163,0,0,0,105.647,0m11.317,148.682A11.331,11.331,0,0,1,105.647,160h-91.5A11.33,11.33,0,0,1,2.829,148.682V14.147A11.33,11.33,0,0,1,14.147,2.829h91.5a11.331,11.331,0,0,1,11.317,11.317Z" stroke="rgba(0,0,0,0)" stroke-width="1" fill="url(#linear-gradient)"/>
      <path id="Path_2020" data-name="Path 2020" d="M72.882,186.744a10.9,10.9,0,0,1,1.839-.145,3.049,3.049,0,0,1,2.082.618,1.991,1.991,0,0,1,.65,1.556,2.193,2.193,0,0,1-.572,1.587,3.078,3.078,0,0,1-2.268.815,3.473,3.473,0,0,1-.775-.064v2.971h-.957Zm.957,3.58a3.044,3.044,0,0,0,.792.079c1.16,0,1.865-.566,1.865-1.589,0-.978-.693-1.45-1.752-1.45a3.925,3.925,0,0,0-.9.076Z" transform="translate(-21.33 -54.609)" fill="#fff"/>
      <path id="Path_2021" data-name="Path 2021" d="M83.5,194.926l-.081-.67h-.028a1.989,1.989,0,0,1-1.634.792,1.52,1.52,0,0,1-1.623-1.408c0-.042,0-.083,0-.124,0-1.288,1.146-1.993,3.206-1.981v-.112a1.1,1.1,0,0,0-.946-1.231,1.115,1.115,0,0,0-.266,0,2.656,2.656,0,0,0-1.386.395l-.221-.637a3.305,3.305,0,0,1,1.749-.477c1.633,0,2.029,1.111,2.029,2.181v2a7.374,7.374,0,0,0,.089,1.273Zm-.145-2.723c-1.056-.023-2.257.166-2.257,1.2a.855.855,0,0,0,.779.924.908.908,0,0,0,.132,0,1.328,1.328,0,0,0,1.291-.891,1.058,1.058,0,0,0,.055-.311Z" transform="translate(-23.452 -55.452)" fill="#fff"/>
      <path id="Path_2022" data-name="Path 2022" d="M88.172,189.642l1.166,3.153c.122.354.253.772.345,1.091H89.7c.1-.319.212-.728.345-1.114l1.056-3.13h1.024l-1.454,3.8a8.1,8.1,0,0,1-1.831,3.339,2.67,2.67,0,0,1-1.189.63l-.243-.818a2.564,2.564,0,0,0,.849-.473,2.986,2.986,0,0,0,.818-1.082.753.753,0,0,0,.076-.229.822.822,0,0,0-.071-.255l-1.97-4.914Z" transform="translate(-25.495 -55.502)" fill="#fff"/>
    </g>
  </g>
  <g id="Group_926" data-name="Group 926" transform="translate(19.848 74.141)">
    <g id="Group_925" data-name="Group 925" clip-path="url(#clip-path-3)">
      <path id="Path_2023" data-name="Path 2023" d="M32.172,110.16a3.5,3.5,0,0,1-1.436.258,2.54,2.54,0,0,1-2.687-2.384,2.6,2.6,0,0,1,0-.364,2.7,2.7,0,0,1,2.549-2.849,2.633,2.633,0,0,1,.289,0,2.879,2.879,0,0,1,1.288.24l-.168.572a2.557,2.557,0,0,0-1.1-.226,2.021,2.021,0,0,0-2.118,2.239,1.974,1.974,0,0,0,1.749,2.176,1.953,1.953,0,0,0,.34.008,2.806,2.806,0,0,0,1.14-.226Z" transform="translate(-28.056 -104.818)" fill="#60c"/>
      <path id="Path_2024" data-name="Path 2024" d="M36.2,110.374l-1.773-5.43h.755l.849,2.674c.235.734.438,1.4.583,2.031h.015c.153-.63.377-1.314.621-2.022l.92-2.683h.748l-1.941,5.43Z" transform="translate(-29.925 -104.855)" fill="#60c"/>
      <path id="Path_2025" data-name="Path 2025" d="M42.733,110.374l-1.773-5.43h.76l.844,2.674c.235.734.438,1.4.583,2.031h.015c.153-.63.377-1.314.621-2.022l.92-2.683h.748l-1.941,5.43Z" transform="translate(-31.835 -104.855)" fill="#60c"/>
    </g>
  </g>
</svg>
