<svg id="BSL_logo_hr" xmlns="http://www.w3.org/2000/svg" width="206.547" height="35.531" viewBox="0 0 206.547 35.531">
  <path id="Path_1233" data-name="Path 1233" d="M645.724,50.085h-7.179a1.761,1.761,0,1,1,0-3.521h7.179a1.761,1.761,0,1,1,0,3.521" transform="translate(-611.932 -46.564)" fill="#ab2346"/>
  <path id="Path_1234" data-name="Path 1234" d="M649.287,62.816H638.545a1.761,1.761,0,1,1,0-3.521h10.742a1.761,1.761,0,1,1,0,3.521" transform="translate(-611.931 -53.96)" fill="#ab2346"/>
  <path id="Path_1235" data-name="Path 1235" d="M652.826,75.548H638.545a1.761,1.761,0,0,1,0-3.521h14.281a1.761,1.761,0,1,1,0,3.521" transform="translate(-611.932 -61.357)" fill="#ab2346"/>
  <path id="Path_1236" data-name="Path 1236" d="M645.724,101.01h-7.179a1.761,1.761,0,1,1,0-3.521h7.179a1.761,1.761,0,1,1,0,3.521" transform="translate(-611.932 -76.149)" fill="#ab2346"/>
  <path id="Path_1237" data-name="Path 1237" d="M643.942,113.741h-5.4a1.761,1.761,0,1,1,0-3.521h5.4a1.761,1.761,0,1,1,0,3.521" transform="translate(-611.931 -83.546)" fill="#ab2346"/>
  <path id="Path_1238" data-name="Path 1238" d="M620.94,50.085h-3.615a1.761,1.761,0,1,1,0-3.521h3.615a1.761,1.761,0,1,1,0,3.521" transform="translate(-599.603 -46.564)" fill="#82aec9"/>
  <path id="Path_1239" data-name="Path 1239" d="M616.04,62.816h-7.149a1.761,1.761,0,1,1,0-3.521h7.149a1.761,1.761,0,1,1,0,3.521" transform="translate(-594.703 -53.96)" fill="#82aec9"/>
  <path id="Path_1240" data-name="Path 1240" d="M611.134,75.548H600.447a1.761,1.761,0,1,1,0-3.521h10.687a1.761,1.761,0,1,1,0,3.521" transform="translate(-589.798 -61.357)" fill="#82aec9"/>
  <path id="Path_1241" data-name="Path 1241" d="M606.176,88.279H591.912a1.761,1.761,0,1,1,0-3.521h14.264a1.761,1.761,0,1,1,0,3.521" transform="translate(-584.839 -68.753)" fill="#82aec9"/>
  <path id="Path_1242" data-name="Path 1242" d="M656.39,88.279H638.546a1.761,1.761,0,1,1,0-3.521H656.39a1.761,1.761,0,1,1,0,3.521" transform="translate(-611.932 -68.753)" fill="#82aec9"/>
  <path id="Path_1243" data-name="Path 1243" d="M611.117,101.01h-10.7a1.761,1.761,0,1,1,0-3.521h10.7a1.761,1.761,0,1,1,0,3.521" transform="translate(-589.78 -76.149)" fill="#82aec9"/>
  <path id="Path_1244" data-name="Path 1244" d="M673.654,101.01h-5.393a1.761,1.761,0,0,1,0-3.521h5.393a1.761,1.761,0,1,1,0,3.521" transform="translate(-629.195 -76.149)" fill="#82aec9"/>
  <path id="Path_1245" data-name="Path 1245" d="M616.022,113.741h-7.161a1.761,1.761,0,1,1,0-3.521h7.161a1.761,1.761,0,1,1,0,3.521" transform="translate(-594.686 -83.546)" fill="#82aec9"/>
  <path id="Path_1246" data-name="Path 1246" d="M671.556,113.741H664.08a1.761,1.761,0,0,1,0-3.521h7.476a1.761,1.761,0,1,1,0,3.521" transform="translate(-626.766 -83.546)" fill="#82aec9"/>
  <path id="Path_1247" data-name="Path 1247" d="M620.94,126.473h-3.615a1.761,1.761,0,1,1,0-3.521h3.615a1.761,1.761,0,1,1,0,3.521" transform="translate(-599.603 -90.942)" fill="#82aec9"/>
  <path id="Path_1248" data-name="Path 1248" d="M645.724,126.473h-7.179a1.761,1.761,0,1,1,0-3.521h7.179a1.761,1.761,0,1,1,0,3.521" transform="translate(-611.932 -90.942)" fill="#82aec9"/>
  <path id="Path_1249" data-name="Path 1249" d="M607.765,52.11a1.345,1.345,0,1,1-1.345-1.345,1.345,1.345,0,0,1,1.345,1.345" transform="translate(-593.509 -49.005)" fill="#1d365a"/>
  <path id="Path_1250" data-name="Path 1250" d="M607.643,124.2a1.345,1.345,0,1,1-1.345-1.345,1.345,1.345,0,0,1,1.345,1.345" transform="translate(-593.439 -90.887)" fill="#1d365a"/>
  <path id="Path_1251" data-name="Path 1251" d="M597.062,65.257h-1.778a.88.88,0,1,1,0-1.761h1.778a.88.88,0,0,1,0,1.761" transform="translate(-587.31 -56.401)" fill="#1d365a"/>
  <path id="Path_1252" data-name="Path 1252" d="M586.1,77.989h-3.551a.88.88,0,1,1,0-1.761H586.1a.88.88,0,0,1,0,1.761" transform="translate(-579.91 -63.798)" fill="#1d365a"/>
  <path id="Path_1253" data-name="Path 1253" d="M583.688,99.16h-5.333a.88.88,0,0,1,0-1.761h5.333a.88.88,0,0,1,0,1.761" transform="translate(-577.475 -76.097)" fill="#1d365a"/>
  <path id="Path_1254" data-name="Path 1254" d="M597.07,111.847h-1.786a.88.88,0,1,1,0-1.761h1.786a.88.88,0,0,1,0,1.761" transform="translate(-587.31 -83.468)" fill="#1d365a"/>
  <path id="Path_1255" data-name="Path 1255" d="M719.591,75.612a3.292,3.292,0,0,1,.726,2.1,3.387,3.387,0,0,1-.525,1.881,3.5,3.5,0,0,1-1.519,1.27,5.561,5.561,0,0,1-2.349.458h-5.75V67.99h5.5a5.716,5.716,0,0,1,2.34.439,3.343,3.343,0,0,1,1.49,1.223,3.2,3.2,0,0,1,.506,1.777,3.04,3.04,0,0,1-.62,1.949,3.323,3.323,0,0,1-1.652,1.108,3,3,0,0,1,1.853,1.126m-6.744-2.12h2.446a2.236,2.236,0,0,0,1.47-.43,1.511,1.511,0,0,0,.516-1.232,1.54,1.54,0,0,0-.516-1.242,2.2,2.2,0,0,0-1.47-.44h-2.446Zm4.212,5.2a1.6,1.6,0,0,0,.544-1.3,1.673,1.673,0,0,0-.573-1.347,2.313,2.313,0,0,0-1.547-.487h-2.636v3.591h2.694a2.289,2.289,0,0,0,1.519-.458" transform="translate(-654.567 -59.012)" fill="#ab2346"/>
  <path id="Path_1256" data-name="Path 1256" d="M743.451,74.667a3.745,3.745,0,0,1,1.9-.478V77h-.707a2.231,2.231,0,0,0-2.541,2.655v5.272H739.43V74.342H742.1v1.643a3.766,3.766,0,0,1,1.347-1.318" transform="translate(-671.564 -62.613)" fill="#ab2346"/>
  <path id="Path_1257" data-name="Path 1257" d="M759.36,84.392a4.881,4.881,0,0,1-1.92-1.92,5.749,5.749,0,0,1-.7-2.865,5.632,5.632,0,0,1,.716-2.866,4.974,4.974,0,0,1,1.958-1.92,6,6,0,0,1,5.54,0,4.976,4.976,0,0,1,1.958,1.92,5.631,5.631,0,0,1,.717,2.866,5.515,5.515,0,0,1-.735,2.865,5.1,5.1,0,0,1-1.987,1.92,5.777,5.777,0,0,1-2.8.678,5.573,5.573,0,0,1-2.751-.678m4.117-2.006a2.573,2.573,0,0,0,1.022-1.06,3.578,3.578,0,0,0,.382-1.719,3.189,3.189,0,0,0-.792-2.321,2.608,2.608,0,0,0-1.939-.811,2.547,2.547,0,0,0-1.92.811,3.236,3.236,0,0,0-.774,2.321,3.284,3.284,0,0,0,.755,2.321,2.484,2.484,0,0,0,1.9.812,2.785,2.785,0,0,0,1.366-.353" transform="translate(-681.622 -62.587)" fill="#ab2346"/>
  <path id="Path_1258" data-name="Path 1258" d="M786.67,76.722a4.693,4.693,0,0,1,1.739-1.91,4.631,4.631,0,0,1,2.455-.669,4.311,4.311,0,0,1,2.073.478,4.213,4.213,0,0,1,1.423,1.2V74.315h2.694V84.9h-2.694V83.351a3.975,3.975,0,0,1-1.423,1.232,4.35,4.35,0,0,1-2.092.487,4.5,4.5,0,0,1-2.436-.688,4.813,4.813,0,0,1-1.739-1.939,6.227,6.227,0,0,1-.64-2.875,6.129,6.129,0,0,1,.64-2.847m7.307,1.213a2.694,2.694,0,0,0-1.032-1.069,2.756,2.756,0,0,0-1.395-.373,2.686,2.686,0,0,0-2.4,1.423,3.326,3.326,0,0,0-.392,1.653,3.43,3.43,0,0,0,.392,1.672,2.814,2.814,0,0,0,1.032,1.1,2.618,2.618,0,0,0,1.366.382,2.759,2.759,0,0,0,1.395-.372,2.7,2.7,0,0,0,1.032-1.07,3.85,3.85,0,0,0,0-3.343" transform="translate(-698.637 -62.586)" fill="#ab2346"/>
  <path id="Path_1259" data-name="Path 1259" d="M817.391,72.034a4.615,4.615,0,0,1,4.212-2.579,4.5,4.5,0,0,1,1.968.449,3.935,3.935,0,0,1,1.49,1.194V66.074h2.713V80.21h-2.713V78.644a3.623,3.623,0,0,1-1.394,1.261,4.369,4.369,0,0,1-2.082.478,4.544,4.544,0,0,1-2.445-.688,4.79,4.79,0,0,1-1.748-1.939,6.225,6.225,0,0,1-.64-2.875,6.127,6.127,0,0,1,.64-2.847m7.307,1.213a2.694,2.694,0,0,0-1.031-1.069,2.756,2.756,0,0,0-1.394-.373,2.686,2.686,0,0,0-2.4,1.423,3.326,3.326,0,0,0-.392,1.653,3.431,3.431,0,0,0,.392,1.672,2.814,2.814,0,0,0,1.032,1.1,2.617,2.617,0,0,0,1.366.382,2.759,2.759,0,0,0,1.394-.372,2.7,2.7,0,0,0,1.031-1.07,3.846,3.846,0,0,0,0-3.343" transform="translate(-716.485 -57.899)" fill="#ab2346"/>
  <path id="Path_1260" data-name="Path 1260" d="M849.976,84.6a4.122,4.122,0,0,1-1.633-1.271,3.221,3.221,0,0,1-.659-1.776h2.694a1.465,1.465,0,0,0,.6,1.012,2.09,2.09,0,0,0,1.308.4,2.028,2.028,0,0,0,1.194-.306.925.925,0,0,0,.43-.783.826.826,0,0,0-.525-.774,9.9,9.9,0,0,0-1.672-.564,14.14,14.14,0,0,1-1.939-.592,3.37,3.37,0,0,1-1.3-.936,2.513,2.513,0,0,1-.544-1.7,2.742,2.742,0,0,1,.506-1.6,3.393,3.393,0,0,1,1.452-1.146,5.438,5.438,0,0,1,2.226-.421,4.544,4.544,0,0,1,3.018.946,3.5,3.5,0,0,1,1.242,2.55h-2.56a1.387,1.387,0,0,0-.525-1,2.37,2.37,0,0,0-2.369-.1.852.852,0,0,0-.391.745.877.877,0,0,0,.535.813,8.345,8.345,0,0,0,1.662.563,14.057,14.057,0,0,1,1.891.593,3.339,3.339,0,0,1,1.289.945,2.6,2.6,0,0,1,.564,1.691,2.809,2.809,0,0,1-.506,1.643,3.336,3.336,0,0,1-1.452,1.137,5.5,5.5,0,0,1-2.206.41,5.584,5.584,0,0,1-2.331-.468" transform="translate(-734.455 -62.587)" fill="#ab2346"/>
  <path id="Path_1261" data-name="Path 1261" d="M877.9,74.631a4.307,4.307,0,0,1,2.073-.487,4.632,4.632,0,0,1,2.455.668,4.715,4.715,0,0,1,1.739,1.9,6.118,6.118,0,0,1,.64,2.856,6.232,6.232,0,0,1-.64,2.875,4.821,4.821,0,0,1-1.739,1.939,4.533,4.533,0,0,1-2.455.688,4.268,4.268,0,0,1-2.053-.478,4.4,4.4,0,0,1-1.442-1.2v6.552h-2.675V74.316h2.675v1.528a4.059,4.059,0,0,1,1.423-1.213m3.782,3.285a2.705,2.705,0,0,0-1.031-1.06,2.76,2.76,0,0,0-1.385-.363,2.665,2.665,0,0,0-1.366.373,2.762,2.762,0,0,0-1.031,1.079,3.722,3.722,0,0,0,0,3.324,2.765,2.765,0,0,0,1.031,1.079,2.7,2.7,0,0,0,2.751-.01,2.833,2.833,0,0,0,1.031-1.089,3.418,3.418,0,0,0,.392-1.681,3.323,3.323,0,0,0-.392-1.653" transform="translate(-749.631 -62.587)" fill="#ab2346"/>
  <path id="Path_1262" data-name="Path 1262" d="M913.426,80.409h-7.737a2.623,2.623,0,0,0,.8,1.8,2.471,2.471,0,0,0,1.738.65,2.184,2.184,0,0,0,2.12-1.281h2.885a4.82,4.82,0,0,1-1.757,2.513,5.128,5.128,0,0,1-3.19.983,5.523,5.523,0,0,1-2.741-.678,4.77,4.77,0,0,1-1.891-1.92,5.882,5.882,0,0,1-.678-2.865,5.988,5.988,0,0,1,.669-2.885,4.665,4.665,0,0,1,1.872-1.91,6.01,6.01,0,0,1,5.473-.019,4.576,4.576,0,0,1,1.853,1.843,5.583,5.583,0,0,1,.659,2.742,6.383,6.383,0,0,1-.076,1.031m-2.694-1.8a2.12,2.12,0,0,0-.745-1.652,2.639,2.639,0,0,0-1.776-.621,2.425,2.425,0,0,0-1.672.6,2.642,2.642,0,0,0-.831,1.671Z" transform="translate(-766.578 -62.587)" fill="#ab2346"/>
  <path id="Path_1263" data-name="Path 1263" d="M932.458,76.731a4.773,4.773,0,0,1,1.853-1.91,5.36,5.36,0,0,1,2.713-.678,5.212,5.212,0,0,1,3.256.984,4.782,4.782,0,0,1,1.729,2.76h-2.885a2.11,2.11,0,0,0-.774-1.079A2.249,2.249,0,0,0,937,76.417a2.2,2.2,0,0,0-1.814.831,4.462,4.462,0,0,0,0,4.7,2.2,2.2,0,0,0,1.814.831,2.028,2.028,0,0,0,2.12-1.452h2.885a4.88,4.88,0,0,1-1.739,2.732,5.119,5.119,0,0,1-3.247,1.012,5.359,5.359,0,0,1-2.713-.678,4.777,4.777,0,0,1-1.853-1.91,6.514,6.514,0,0,1,0-5.75" transform="translate(-783.317 -62.586)" fill="#ab2346"/>
  <path id="Path_1264" data-name="Path 1264" d="M963.258,73.123v5.12a1.012,1.012,0,0,0,.258.774,1.267,1.267,0,0,0,.869.238h1.242v2.254h-1.681q-3.381,0-3.381-3.285v-5.1H959.3v-2.2h1.261V68.309h2.693v2.617h2.369v2.2Z" transform="translate(-799.302 -59.197)" fill="#ab2346"/>
  <path id="Path_1265" data-name="Path 1265" d="M983.641,74.667a3.744,3.744,0,0,1,1.9-.478V77h-.707a2.23,2.23,0,0,0-2.541,2.655v5.272h-2.675V74.342h2.675v1.643a3.761,3.761,0,0,1,1.347-1.318" transform="translate(-811.104 -62.613)" fill="#ab2346"/>
  <path id="Path_1266" data-name="Path 1266" d="M1008.019,74.554V85.137h-2.694V83.8a3.521,3.521,0,0,1-1.346,1.079,4.186,4.186,0,0,1-1.805.391,4.48,4.48,0,0,1-2.2-.525,3.706,3.706,0,0,1-1.5-1.547,5.11,5.11,0,0,1-.544-2.435V74.554h2.675v5.827a2.742,2.742,0,0,0,.63,1.938,2.229,2.229,0,0,0,1.719.678,2.252,2.252,0,0,0,1.738-.678,2.741,2.741,0,0,0,.63-1.938V74.554Z" transform="translate(-821.744 -62.825)" fill="#ab2346"/>
  <path id="Path_1267" data-name="Path 1267" d="M1044.952,75.384a4.506,4.506,0,0,1,1.194,3.334v6.208h-2.674V79.08a2.643,2.643,0,0,0-.631-1.9,2.266,2.266,0,0,0-1.719-.659,2.3,2.3,0,0,0-1.729.659,2.617,2.617,0,0,0-.64,1.9v5.846h-2.674V79.08a2.648,2.648,0,0,0-.63-1.9,2.267,2.267,0,0,0-1.719-.659,2.322,2.322,0,0,0-1.748.659,2.619,2.619,0,0,0-.64,1.9v5.846h-2.675V74.343h2.675v1.28a3.555,3.555,0,0,1,1.328-1.05,4.14,4.14,0,0,1,1.786-.382,4.6,4.6,0,0,1,2.216.525,3.683,3.683,0,0,1,1.509,1.5,3.835,3.835,0,0,1,1.5-1.47,4.586,4.586,0,0,1,5.272.64" transform="translate(-839.599 -62.614)" fill="#ab2346"/>
</svg>
