<svg xmlns="http://www.w3.org/2000/svg" width="14.254" height="17.984" viewBox="0 0 14.254 17.984">
  <path id="home-alt" d="M5.376,19.105A2.429,2.429,0,0,1,3,16.626V8.36q0-.042,0-.083H3a1.836,1.836,0,0,1,.5-1.269l4.943-5.16a2.306,2.306,0,0,1,3.36,0l4.943,5.16a1.836,1.836,0,0,1,.5,1.269h0q0,.041,0,.083v8.266a2.429,2.429,0,0,1-2.376,2.48ZM10.687,3.017l4.983,5.2v8.408a.81.81,0,0,1-.792.827H12.5V13.319a2.429,2.429,0,0,0-2.376-2.48,2.429,2.429,0,0,0-2.376,2.48v4.133H5.376a.81.81,0,0,1-.792-.827V8.218l4.983-5.2A.769.769,0,0,1,10.687,3.017Z" transform="translate(-3 -1.121)" fill="#fff" fill-rule="evenodd"/>
</svg>
