<svg id="ISG-logo-gray" xmlns="http://www.w3.org/2000/svg" xmlns:xlink="http://www.w3.org/1999/xlink" width="86.86" height="42.004" viewBox="0 0 86.86 42.004">
  <defs>
    <clipPath id="clip-path">
      <rect id="Rectangle_12" data-name="Rectangle 12" width="86.86" height="42.004" fill="#b9b9b9"/>
    </clipPath>
    <clipPath id="clip-path-3">
      <rect id="Rectangle_7" data-name="Rectangle 7" width="4.035" height="4.695" fill="#b9b9b9"/>
    </clipPath>
  </defs>
  <g id="Group_7" data-name="Group 7" transform="translate(0)" clip-path="url(#clip-path)">
    <g id="Group_6" data-name="Group 6">
      <g id="Group_5" data-name="Group 5" clip-path="url(#clip-path)">
        <path id="Path_1321" data-name="Path 1321" d="M53.714,152.026a39.711,39.711,0,0,0,3.222,2.363c-.7-.5-1.85-1.31-3.222-2.363" transform="translate(-41.19 -116.58)" fill="#b9b9b9"/>
        <g id="Group_4" data-name="Group 4" transform="translate(24.156 3.796)" opacity="0.33">
          <g id="Group_3" data-name="Group 3">
            <g id="Group_2" data-name="Group 2" clip-path="url(#clip-path-3)">
              <path id="Path_1324" data-name="Path 1324" d="M107.641,26.665c-1.572-1.231-3-2.258-4.035-2.961V23.7a41.231,41.231,0,0,1,4.035,2.966" transform="translate(-103.606 -21.97)" fill="#b9b9b9"/>
              <path id="Path_1325" data-name="Path 1325" d="M108.746,16.34l-.084-.052v-.005c.026.016.052.037.084.058" transform="translate(-107.483 -16.282)" fill="#b9b9b9"/>
            </g>
          </g>
        </g>
        <path id="Path_1326" data-name="Path 1326" d="M78.476,22c-.026,6-6.943,10.145-12.434,11.874,0,0-2.285,1.006-9.3,1.556a7.453,7.453,0,0,1-1.514-.079,2.5,2.5,0,0,1-2.447-1.918c-.3-1.441.755-3.228,2.51-4.25.225-.131.534-.33.9-.571l1.63,1.431c-.613.414-1.132.749-1.478.954-1.038.6-1.614,1.383-1.514,2.007.021.147.4.388.676.419a40.779,40.779,0,0,0,6.477-.681c.115-.026.21-.047.283-.068,0,0,.838-.2,1.74-.44a18.968,18.968,0,0,0,2.023-.618,4.948,4.948,0,0,0,2.62-2.51c.388-1.656-.4-3.694-2.143-5.513-.173-.189-1.525-1.441-1.525-1.441-2.175-1.981-9.872-8.562-9.872-8.562-1.651-1.394-2.987-2.468-3.1-2.557-.225-.178-.44-.372-.655-.577l2.227-.838c.487.419,1.713,1.451,3.228,2.741.529.45,1.09.928,1.671,1.425,3.175,2.7,6.849,5.853,7.986,6.885l1.519,1.441c2.243,2.326,3.254,5.072,2.714,7.425,3.1-1.839,5.659-4.412,5.675-7.546.01-2.316-2.447-5.45-5.507-8.426a8.433,8.433,0,0,1-1.483,7.048c-.225.257-.482.54-.754.823L67.31,19.783c.183-.194.346-.377.5-.55,1.488-1.7,1.907-5.89-.786-8.84A21.415,21.415,0,0,0,65,8.491a41.272,41.272,0,0,0-4.035-2.966A23.634,23.634,0,0,0,54.545,2.4a10.157,10.157,0,0,0-2.274-.3c-1.064,0-1.776.278-2.049.828-.44.907.152,2.882,1.352,4.559a17.34,17.34,0,0,0-2.091.555C48.142,5.965,47.6,3.534,48.341,2.009,48.986.689,50.668-.669,55.027.364A25.48,25.48,0,0,1,62.149,3.8V3.8l.084.052c.031.021.068.047.11.073s.079.052.121.084.084.058.131.089.089.063.136.094c.7.5,1.85,1.31,3.223,2.363a.393.393,0,0,0,.073.058C70.91,10.383,78.5,17.027,78.476,22" transform="translate(-36.813 0)" fill="#ab2346"/>
        <path id="Path_1327" data-name="Path 1327" d="M111.157,17.99c.7.5,1.85,1.31,3.222,2.363a39.653,39.653,0,0,0-3.222-2.363" transform="translate(-85.24 -13.795)" fill="#b9b9b9"/>
        <g id="Group_87" data-name="Group 87">
          <path id="Path_1322" data-name="Path 1322" d="M60.249,58.915c-2.411,1.713-4.921,3.563-5.094,3.689l-.1.084c-.011.01-.037.037-.084.079l1.294,1.666c.084-.084.147-.142.183-.178.409-.3,3.081-2.258,5.455-3.946-.587-.493-1.142-.964-1.656-1.394" transform="translate(-42.154 -45.178)" fill="#1d365a"/>
          <path id="Path_1323" data-name="Path 1323" d="M30.135,61.566c-.644,1.321-2.327,2.678-6.686,1.645a25.479,25.479,0,0,1-7.121-3.432v-.005l-.084-.052c-.031-.021-.068-.047-.11-.073s-.079-.052-.121-.084-.084-.058-.131-.089-.089-.063-.136-.094c-.7-.5-1.85-1.31-3.222-2.363a.415.415,0,0,0-.073-.058C7.566,53.193-.026,46.548,0,41.575c.026-6,6.943-10.145,12.434-11.874,0,0,.073-.031.236-.089a17.34,17.34,0,0,1,2.091-.555,55.435,55.435,0,0,1,6.969-.912,7.473,7.473,0,0,1,1.514.079,2.5,2.5,0,0,1,2.447,1.918c.3,1.441-.754,3.228-2.51,4.25-.173.1-.985.629-1.509.964-.581-.5-1.142-.975-1.671-1.425.686-.451,1.824-1.174,2.127-1.352,1.038-.6,1.609-1.388,1.515-2.007-.026-.152-.4-.388-.676-.419A40.035,40.035,0,0,0,16.2,30.9s-3,.723-3.757,1.059a4.892,4.892,0,0,0-2.62,2.51c-.393,1.656.4,3.694,2.143,5.513.173.189,1.525,1.441,1.525,1.441,1.53,1.394,5.806,5.078,8.2,7.132,1,.854,1.671,1.43,1.671,1.43.026.021.047.042.073.063A35.1,35.1,0,0,1,27.2,53.806c-.9.236-1.74.44-1.74.44-.073.021-.168.042-.283.068C22.93,52.4,13.849,44.589,12,42.907l-1.52-1.441c-2.243-2.326-3.254-5.072-2.714-7.425-3.1,1.839-5.659,4.412-5.675,7.545-.01,2.316,2.447,5.45,5.507,8.426a8.434,8.434,0,0,1,1.483-7.048c.225-.257.482-.54.755-.823l1.326,1.651c-.183.194-.346.377-.5.55-1.488,1.7-1.907,5.89.786,8.84a21.471,21.471,0,0,0,2.017,1.9,41.273,41.273,0,0,0,4.035,2.966,23.631,23.631,0,0,0,6.424,3.123,10.153,10.153,0,0,0,2.274.3c1.064,0,1.776-.278,2.049-.828.388-.8.063-2.19-.7-3.568l1.892-.938c1.022,1.881,1.431,3.909.692,5.423" transform="translate(0 -21.572)" fill="#1d365a"/>
          <path id="Path_1328" data-name="Path 1328" d="M100.2,99.237c-.047.042-.073.068-.084.079l-.1.084c-.162.121-2.882,2.222-5.224,3.9-.026-.021-.047-.042-.073-.063,0,0-.671-.576-1.671-1.431,2.332-1.661,5.282-3.762,5.675-4.056.037-.037.1-.094.183-.178Z" transform="translate(-71.35 -74.822)" fill="#1d365a"/>
        </g>
        <g id="Group_86" data-name="Group 86">
          <rect id="Rectangle_8" data-name="Rectangle 8" width="5.112" height="18.571" transform="translate(43.77 11.566)" fill="#1d365a"/>
          <path id="Path_1329" data-name="Path 1329" d="M223.2,60.718a9.184,9.184,0,0,0,2.226,1.916,4.34,4.34,0,0,0,2.188.634,2.516,2.516,0,0,0,1.668-.545,1.725,1.725,0,0,0,.653-1.383,1.809,1.809,0,0,0-.564-1.427,7.147,7.147,0,0,0-2.556-1.034,8.332,8.332,0,0,1-3.856-1.915,4.485,4.485,0,0,1-1.129-3.235,5.7,5.7,0,0,1,1.782-4.345,6.466,6.466,0,0,1,4.624-1.681,10.1,10.1,0,0,1,2.911.412,9.426,9.426,0,0,1,2.607,1.249l-1.586,3.641a6.642,6.642,0,0,0-1.769-1.11,4.681,4.681,0,0,0-1.795-.374,2.371,2.371,0,0,0-1.484.438,1.355,1.355,0,0,0-.571,1.122,1.38,1.38,0,0,0,.5,1.116,5.429,5.429,0,0,0,1.934.8l.228.063A9.478,9.478,0,0,1,233.28,56.9a4.536,4.536,0,0,1,1,1.643,6.271,6.271,0,0,1,.343,2.125,6.164,6.164,0,0,1-1.941,4.751,7.32,7.32,0,0,1-5.176,1.8,9.145,9.145,0,0,1-3.533-.66,10,10,0,0,1-3.063-2.068Z" transform="translate(-169.404 -36.58)" fill="#1d365a"/>
          <path id="Path_1330" data-name="Path 1330" d="M298.154,59.964V56.069H308.1q.013.19.019.419t.006.673q0,4.795-2.531,7.44a9.391,9.391,0,0,1-7.123,2.645,11.087,11.087,0,0,1-4.015-.678,8.9,8.9,0,0,1-3.14-2.074,9.379,9.379,0,0,1-2.049-3.152,10.152,10.152,0,0,1-.729-3.812,10.041,10.041,0,0,1,.71-3.824,9.4,9.4,0,0,1,5.321-5.195,10.746,10.746,0,0,1,3.9-.7,10.423,10.423,0,0,1,4.827,1.078,9.434,9.434,0,0,1,3.533,3.209L302.442,54.2a5.336,5.336,0,0,0-1.77-1.6,4.588,4.588,0,0,0-2.2-.526,4.476,4.476,0,0,0-3.577,1.516,6.134,6.134,0,0,0-1.307,4.142,6.2,6.2,0,0,0,1.307,4.174,4.466,4.466,0,0,0,3.577,1.522,5.285,5.285,0,0,0,3.215-.945,3.617,3.617,0,0,0,1.5-2.518Z" transform="translate(-221.264 -36.664)" fill="#1d365a"/>
          <rect id="Rectangle_9" data-name="Rectangle 9" width="0.772" height="5.881" transform="translate(43.955 32.229)" fill="#1d365a"/>
          <path id="Path_1331" data-name="Path 1331" d="M198.2,147.181a1.567,1.567,0,0,0-.755.179,1.406,1.406,0,0,0-.315.234v-.286h-.711v3.666h.734v-1.908a1.5,1.5,0,0,1,.227-.926.826.826,0,0,1,.694-.271.7.7,0,0,1,.559.2,1.026,1.026,0,0,1,.181.673v2.23h.742v-2.441a1.248,1.248,0,0,0-1.355-1.351" transform="translate(-150.623 -112.865)" fill="#1d365a"/>
          <path id="Path_1332" data-name="Path 1332" d="M213.656,136.521a1.472,1.472,0,0,0-.265-.023.887.887,0,0,0-.813.366,2.974,2.974,0,0,0-.212,1.4v.851h-.637v.665h.637v3h.73v-3h.748v-.665H213.1v-1.159a1.578,1.578,0,0,1,.088-.666c.039-.074.128-.172.363-.109a.812.812,0,0,1,.153.06l.152.076.147-.69-.1-.04a1.366,1.366,0,0,0-.239-.066" transform="translate(-162.363 -104.672)" fill="#1d365a"/>
          <path id="Path_1333" data-name="Path 1333" d="M224.853,147.257a1.512,1.512,0,0,0-.22-.059,1.122,1.122,0,0,0-.889.188,1.6,1.6,0,0,0-.3.3V147.3h-.734v3.666h.734v-1.8a1.482,1.482,0,0,1,.275-.915.725.725,0,0,1,.758-.334c.05.01.1.021.146.035l.121.036.237-.688Z" transform="translate(-170.781 -112.861)" fill="#1d365a"/>
          <path id="Path_1334" data-name="Path 1334" d="M234.829,147.627a1.3,1.3,0,0,0-.291-.238,1.67,1.67,0,0,0-2.057.353,2.116,2.116,0,0,0-.473,1.419,2.058,2.058,0,0,0,.48,1.415,1.634,1.634,0,0,0,1.278.547,1.429,1.429,0,0,0,.791-.219,1.307,1.307,0,0,0,.272-.235v.3h.734v-3.666h-.734Zm-.273,2.453a.89.89,0,0,1-.744.34.911.911,0,0,1-.749-.31,1.428,1.428,0,0,1-.267-.933,1.5,1.5,0,0,1,.281-.967.9.9,0,0,1,.743-.333.915.915,0,0,1,.741.313,1.347,1.347,0,0,1,.276.9,1.566,1.566,0,0,1-.28.991" transform="translate(-177.914 -112.865)" fill="#1d365a"/>
          <path id="Path_1335" data-name="Path 1335" d="M261.81,140.268l-.27-.143c-.6-.314-.9-.646-.9-.985a.754.754,0,0,1,.207-.566.765.765,0,0,1,.568-.205.939.939,0,0,1,.467.11.724.724,0,0,1,.295.314l.064.125.623-.375-.06-.11a1.472,1.472,0,0,0-.558-.586,1.6,1.6,0,0,0-.8-.2,1.613,1.613,0,0,0-1.139.411,1.492,1.492,0,0,0-.137,1.975,3.945,3.945,0,0,0,1.168.823,2.647,2.647,0,0,1,.822.585.97.97,0,0,1,.175.6,1.093,1.093,0,0,1-.263.781.962.962,0,0,1-.738.274,1.025,1.025,0,0,1-.644-.2,1.07,1.07,0,0,1-.378-.575l-.046-.154-.683.366.045.11a1.919,1.919,0,0,0,.662.877,1.742,1.742,0,0,0,2.794-1.475,1.708,1.708,0,0,0-.265-.986,2.915,2.915,0,0,0-1-.787" transform="translate(-199.057 -105.557)" fill="#1d365a"/>
          <path id="Path_1336" data-name="Path 1336" d="M279.631,149.694a1.379,1.379,0,0,1-.429.562.968.968,0,0,1-.584.179.892.892,0,0,1-.732-.329,1.447,1.447,0,0,1-.293-.822h2.7v-.235a1.955,1.955,0,0,0-.46-1.352,1.58,1.58,0,0,0-1.23-.517,1.661,1.661,0,0,0-1.3.558,2.087,2.087,0,0,0-.492,1.438,1.993,1.993,0,0,0,.5,1.4,1.7,1.7,0,0,0,1.307.543,1.812,1.812,0,0,0,1-.265,2.018,2.018,0,0,0,.685-.813l.057-.113-.668-.367Zm-1.72-1.561a.885.885,0,0,1,.63-.234.922.922,0,0,1,.659.222.855.855,0,0,1,.252.5H277.64a.906.906,0,0,1,.272-.487" transform="translate(-212.273 -112.865)" fill="#1d365a"/>
          <path id="Path_1337" data-name="Path 1337" d="M298.48,149.664l-.956-2.36h-.434v0l-.124-.043a1.545,1.545,0,0,0-.22-.059,1.121,1.121,0,0,0-.888.188,1.607,1.607,0,0,0-.3.3V147.3h-.734v3.666h.734v-1.8a1.483,1.483,0,0,1,.275-.915.726.726,0,0,1,.758-.334c.051.01.1.021.146.035l.121.036.071-.2,1.554,3.605,1.765-4.084h-.814Z" transform="translate(-226.082 -112.861)" fill="#1d365a"/>
          <rect id="Rectangle_10" data-name="Rectangle 10" width="0.749" height="3.666" transform="translate(74.6 34.443)" fill="#1d365a"/>
          <path id="Path_1338" data-name="Path 1338" d="M319.595,140.627a.492.492,0,0,0,0,.7.483.483,0,0,0,.351.141.49.49,0,0,0,.355-.141.475.475,0,0,0,.145-.35.469.469,0,0,0-.149-.35.5.5,0,0,0-.7,0" transform="translate(-244.967 -107.729)" fill="#1d365a"/>
          <path id="Path_1339" data-name="Path 1339" d="M328.907,150.369a1.6,1.6,0,0,1-.516.089,1.216,1.216,0,0,1-.9-.349,1.2,1.2,0,0,1-.351-.893,1.388,1.388,0,0,1,.341-.991,1.176,1.176,0,0,1,.913-.363,1.75,1.75,0,0,1,.514.077,1.7,1.7,0,0,1,.47.23l.2.14.013-.844-.071-.038a2.051,2.051,0,0,0-.515-.183,2.841,2.841,0,0,0-.606-.062,1.914,1.914,0,0,0-2,2,1.935,1.935,0,0,0,.536,1.4,1.84,1.84,0,0,0,1.372.552,2.99,2.99,0,0,0,.678-.075,2.2,2.2,0,0,0,.588-.227l.066-.038v-.847l-.207.145a2.064,2.064,0,0,1-.521.271" transform="translate(-250.295 -112.865)" fill="#1d365a"/>
          <path id="Path_1340" data-name="Path 1340" d="M344.519,149.694a1.378,1.378,0,0,1-.429.562.968.968,0,0,1-.584.179.892.892,0,0,1-.732-.329,1.447,1.447,0,0,1-.293-.822h2.7v-.235a1.955,1.955,0,0,0-.46-1.352,1.58,1.58,0,0,0-1.23-.517,1.661,1.661,0,0,0-1.3.558,2.087,2.087,0,0,0-.492,1.438,1.993,1.993,0,0,0,.5,1.4,1.7,1.7,0,0,0,1.307.543,1.812,1.812,0,0,0,1-.265,2.018,2.018,0,0,0,.685-.813l.057-.113-.668-.367Zm-1.72-1.561a.885.885,0,0,1,.63-.234.921.921,0,0,1,.659.222.854.854,0,0,1,.252.5h-1.814a.907.907,0,0,1,.272-.487" transform="translate(-262.033 -112.865)" fill="#1d365a"/>
          <path id="Path_1341" data-name="Path 1341" d="M359.6,148.751a1.916,1.916,0,0,1-.607-.277.312.312,0,0,1-.113-.251.331.331,0,0,1,.116-.262.626.626,0,0,1,.7-.005.558.558,0,0,1,.217.3l.05.15.672-.375-.043-.107a1.176,1.176,0,0,0-.479-.577,1.447,1.447,0,0,0-.775-.2,1.268,1.268,0,0,0-.882.312,1.047,1.047,0,0,0-.35.809.9.9,0,0,0,.251.645,2.23,2.23,0,0,0,.793.464c.03.014.072.03.121.049.406.159.612.341.612.542a.378.378,0,0,1-.131.305.575.575,0,0,1-.391.12.774.774,0,0,1-.444-.121.758.758,0,0,1-.274-.367l-.055-.141-.678.388.04.1a1.24,1.24,0,0,0,.5.622,1.5,1.5,0,0,0,.816.218,1.485,1.485,0,0,0,.982-.311,1.057,1.057,0,0,0,.381-.849,1.09,1.09,0,0,0-.225-.722,1.859,1.859,0,0,0-.813-.466" transform="translate(-274.465 -112.84)" fill="#1d365a"/>
        </g>
      </g>
    </g>
  </g>
</svg>
