<svg id="Instagram" xmlns="http://www.w3.org/2000/svg" width="40.713" height="40.713" viewBox="0 0 40.713 40.713">
  <path id="Path_1307" data-name="Path 1307" d="M45.246,24.89A20.357,20.357,0,1,1,24.89,4.534,20.356,20.356,0,0,1,45.246,24.89" transform="translate(-4.533 -4.534)" fill="#fff" opacity="0.5"/>
  <g id="IG" transform="translate(12.769 12.739)">
    <path id="Path_1309" data-name="Path 1309" d="M33.7,36.962H25.184a3.166,3.166,0,0,1-3.2-3.125V25.071a3.166,3.166,0,0,1,3.2-3.125H33.7a3.165,3.165,0,0,1,3.2,3.125v8.767a3.165,3.165,0,0,1-3.2,3.125M25.184,23.233a1.878,1.878,0,0,0-1.911,1.838v8.767a1.877,1.877,0,0,0,1.911,1.837H33.7a1.877,1.877,0,0,0,1.91-1.837V25.071a1.878,1.878,0,0,0-1.91-1.838Z" transform="translate(-21.986 -21.946)" fill="#1d365a"/>
    <path id="Path_1310" data-name="Path 1310" d="M30.745,34.676a3.9,3.9,0,1,1,3.9-3.9,3.9,3.9,0,0,1-3.9,3.9m0-6.508a2.61,2.61,0,1,0,2.61,2.61,2.613,2.613,0,0,0-2.61-2.61" transform="translate(-23.291 -23.27)" fill="#1d365a"/>
    <path id="Path_1311" data-name="Path 1311" d="M38.47,26.279a.912.912,0,1,1-.912-.912.912.912,0,0,1,.912.912" transform="translate(-25.921 -22.864)" fill="#1d365a"/>
  </g>
</svg>
