<svg id="LinkedIn" xmlns="http://www.w3.org/2000/svg" width="40.713" height="40.713" viewBox="0 0 40.713 40.713">
  <path id="Path_1304" data-name="Path 1304" d="M45.246,24.89A20.357,20.357,0,1,1,24.89,4.534,20.356,20.356,0,0,1,45.246,24.89" transform="translate(-4.533 -4.534)" fill="#fff" opacity="0.5"/>
  <path id="Linkedin-icon" d="M36.963,30.162v5.809H33.6v-5.42c0-1.361-.487-2.29-1.706-2.29a1.843,1.843,0,0,0-1.727,1.231,2.309,2.309,0,0,0-.111.821v5.658H26.682s.045-9.18,0-10.129h3.368v1.435c-.007.011-.016.022-.022.033h.022v-.033A3.344,3.344,0,0,1,33.086,25.6c2.216,0,3.877,1.448,3.877,4.559m-13.8-9.2a1.755,1.755,0,1,0-.044,3.5h.021a1.756,1.756,0,1,0,.023-3.5M21.453,35.971H24.82V25.841H21.453Z" transform="translate(-9.021 -8.942)" fill="#1d365a"/>
</svg>
