<svg xmlns="http://www.w3.org/2000/svg" xmlns:xlink="http://www.w3.org/1999/xlink" width="159.152" height="41.852" viewBox="0 0 159.152 41.852">
  <defs>
    <clipPath id="clip-path">
      <rect id="Rectangle_16" data-name="Rectangle 16" width="159.152" height="41.852" fill="none"/>
    </clipPath>
  </defs>
  <g id="bdp" opacity="0.995">
    <g id="Group_17" data-name="Group 17" clip-path="url(#clip-path)">
      <path id="Path_1374" data-name="Path 1374" d="M17.289,6.335,2.761.161A1.984,1.984,0,0,0,0,1.987v15.89a2.091,2.091,0,0,0,2.825,1.958l9.639-3.614L2.021,11.87a.637.637,0,0,1,.49-1.175l11.7,4.872h0L17.5,14.333c5.628-1.952,5.921-5.852-.21-8m1.376,5.056a.637.637,0,0,1-.831.343L1.783,5.047a.636.636,0,1,1,.489-1.175l16.051,6.687a.636.636,0,0,1,.343.833" transform="translate(0 -0.001)" fill="#c06"/>
      <path id="Path_1375" data-name="Path 1375" d="M713.578,178.391a4.1,4.1,0,0,1-.22,1.408,2.676,2.676,0,0,1-.623,1,2.506,2.506,0,0,1-.968.592,3.872,3.872,0,0,1-1.256.193q-.3,0-.709-.027a2.674,2.674,0,0,1-.753-.152.544.544,0,0,1-.439-.538V175.88a.367.367,0,0,1,.09-.264.6.6,0,0,1,.242-.148,3.477,3.477,0,0,1,.731-.144q.39-.036.758-.036a4.154,4.154,0,0,1,1.282.188,2.58,2.58,0,0,1,1,.578,2.648,2.648,0,0,1,.641.973,3.718,3.718,0,0,1,.229,1.363m-1.049.009a2.918,2.918,0,0,0-.157-1.013,1.809,1.809,0,0,0-.44-.69,1.786,1.786,0,0,0-.664-.4,2.531,2.531,0,0,0-.821-.13,3.992,3.992,0,0,0-.825.072v4.394a2.707,2.707,0,0,0,.417.063q.229.018.471.018a1.9,1.9,0,0,0,1.5-.583,2.543,2.543,0,0,0,.516-1.731" transform="translate(-618.383 -152.969)" fill="#c06"/>
      <path id="Path_1376" data-name="Path 1376" d="M755.938,171.742a.608.608,0,0,1,.166-.435.572.572,0,0,1,.435-.175.562.562,0,0,1,.426.175.653.653,0,0,1,0,.87.562.562,0,0,1-.426.175.572.572,0,0,1-.435-.175.607.607,0,0,1-.166-.435m1.094,6.08a1.106,1.106,0,0,1-.184.054,1.218,1.218,0,0,1-.264.027.617.617,0,0,1-.408-.112.469.469,0,0,1-.13-.372V173.2l.188-.049a1.047,1.047,0,0,1,.269-.031.6.6,0,0,1,.4.112.492.492,0,0,1,.125.381Z" transform="translate(-659.684 -149.342)" fill="#c06"/>
      <path id="Path_1377" data-name="Path 1377" d="M776.6,190.431a1.765,1.765,0,0,1-.439.2,2.1,2.1,0,0,1-.619.081,2.462,2.462,0,0,1-.793-.126,1.756,1.756,0,0,1-.659-.4,1.844,1.844,0,0,1-.448-.708,3.128,3.128,0,0,1-.161-1.081,2.891,2.891,0,0,1,.161-1.009,1.928,1.928,0,0,1,.462-.726,2.02,2.02,0,0,1,.708-.444,2.611,2.611,0,0,1,.919-.152,2.8,2.8,0,0,1,.852.125,2.524,2.524,0,0,1,.646.3.9.9,0,0,1,.242.247.625.625,0,0,1,.09.345V191a2.086,2.086,0,0,1-.161.861,1.493,1.493,0,0,1-.453.583,1.9,1.9,0,0,1-.691.327,3.413,3.413,0,0,1-.857.1,3.055,3.055,0,0,1-.825-.1,2.4,2.4,0,0,1-.52-.2.6.6,0,0,1-.224-.78.491.491,0,0,1,.179-.188,2.221,2.221,0,0,0,.574.291,2.248,2.248,0,0,0,.771.13,1.462,1.462,0,0,0,.919-.256.977.977,0,0,0,.327-.821Zm-.924-.538a1.325,1.325,0,0,0,.543-.1,1.2,1.2,0,0,0,.363-.242V187.14a1.493,1.493,0,0,0-.345-.161,1.517,1.517,0,0,0-.489-.072,1.231,1.231,0,0,0-.928.368,1.547,1.547,0,0,0-.354,1.112,2.263,2.263,0,0,0,.094.7,1.25,1.25,0,0,0,.26.466.988.988,0,0,0,.381.26,1.342,1.342,0,0,0,.475.081" transform="translate(-674.988 -162.372)" fill="#c06"/>
      <path id="Path_1378" data-name="Path 1378" d="M815.239,171.742a.608.608,0,0,1,.166-.435.572.572,0,0,1,.435-.175.561.561,0,0,1,.426.175.653.653,0,0,1,0,.87.561.561,0,0,1-.426.175.572.572,0,0,1-.435-.175.607.607,0,0,1-.166-.435m1.094,6.08a1.11,1.11,0,0,1-.184.054,1.219,1.219,0,0,1-.265.027.616.616,0,0,1-.408-.112.468.468,0,0,1-.13-.372V173.2l.188-.049a1.047,1.047,0,0,1,.269-.031.6.6,0,0,1,.4.112.492.492,0,0,1,.125.381Z" transform="translate(-711.435 -149.342)" fill="#c06"/>
      <path id="Path_1379" data-name="Path 1379" d="M835.8,181.655a.931.931,0,0,0,.56.148,1.284,1.284,0,0,0,.341-.049,1.511,1.511,0,0,0,.314-.121,1.344,1.344,0,0,1,.117.179.513.513,0,0,1-.2.673,1.376,1.376,0,0,1-.758.17,1.779,1.779,0,0,1-1.134-.336,1.316,1.316,0,0,1-.426-1.1v-4.654a1.453,1.453,0,0,1,.2-.054,1.288,1.288,0,0,1,.269-.027.6.6,0,0,1,.395.108.463.463,0,0,1,.125.368v.986h1.471a1,1,0,0,1,.072.17.74.74,0,0,1,.036.233q0,.422-.35.421h-1.229v2.377a.587.587,0,0,0,.2.507" transform="translate(-728.336 -154.013)" fill="#c06"/>
      <path id="Path_1380" data-name="Path 1380" d="M862.453,186.064a2.225,2.225,0,0,1,1.4.4,1.512,1.512,0,0,1,.52,1.273v2.323a.55.55,0,0,1-.1.354,1.266,1.266,0,0,1-.269.238,2.742,2.742,0,0,1-.628.256,3.267,3.267,0,0,1-.906.112,2.364,2.364,0,0,1-1.43-.381,1.3,1.3,0,0,1-.516-1.117,1.264,1.264,0,0,1,.4-1,2.041,2.041,0,0,1,1.152-.431l1.318-.144v-.215a.737.737,0,0,0-.269-.637,1.238,1.238,0,0,0-.744-.2,2.457,2.457,0,0,0-.726.107,3.818,3.818,0,0,0-.628.251.887.887,0,0,1-.161-.2.505.505,0,0,1,.009-.533.635.635,0,0,1,.251-.193,2.4,2.4,0,0,1,.605-.2,3.684,3.684,0,0,1,.722-.067m.018,4.143a2.07,2.07,0,0,0,.583-.072,1.021,1.021,0,0,0,.341-.153v-1.264l-1.022.108a1.456,1.456,0,0,0-.655.206.543.543,0,0,0-.215.475.622.622,0,0,0,.233.511,1.165,1.165,0,0,0,.735.188" transform="translate(-750.954 -162.372)" fill="#c06"/>
      <path id="Path_1381" data-name="Path 1381" d="M901.77,179.01a.619.619,0,0,1-.4-.112.459.459,0,0,1-.135-.372v-6.044l.188-.049a1.039,1.039,0,0,1,.269-.031.637.637,0,0,1,.4.107.446.446,0,0,1,.135.368v6.053q-.081.027-.2.054a1.148,1.148,0,0,1-.26.027" transform="translate(-786.478 -150.449)" fill="#c06"/>
      <path id="Path_1382" data-name="Path 1382" d="M937.4,179.386v2.063a1.967,1.967,0,0,1-.206.054,1.272,1.272,0,0,1-.269.027.615.615,0,0,1-.417-.117.5.5,0,0,1-.13-.386v-5.139a.367.367,0,0,1,.09-.264.6.6,0,0,1,.242-.148,3.046,3.046,0,0,1,.708-.148q.4-.04.762-.04a2.625,2.625,0,0,1,1.829.547,1.928,1.928,0,0,1,.592,1.489,1.974,1.974,0,0,1-.592,1.5,2.483,2.483,0,0,1-1.776.565Zm.78-.87a1.576,1.576,0,0,0,1.018-.3,1.079,1.079,0,0,0,.372-.892,1.049,1.049,0,0,0-.354-.879,1.619,1.619,0,0,0-1.018-.278q-.206,0-.422.018a3.205,3.205,0,0,0-.386.054v2.278Z" transform="translate(-817.146 -152.969)" fill="#c06"/>
      <path id="Path_1383" data-name="Path 1383" d="M977.6,186.064a2.224,2.224,0,0,1,1.4.4,1.511,1.511,0,0,1,.52,1.273v2.323a.55.55,0,0,1-.1.354,1.266,1.266,0,0,1-.269.238,2.746,2.746,0,0,1-.628.256,3.265,3.265,0,0,1-.906.112,2.364,2.364,0,0,1-1.43-.381,1.3,1.3,0,0,1-.516-1.117,1.264,1.264,0,0,1,.4-1,2.04,2.04,0,0,1,1.152-.431l1.318-.144v-.215a.736.736,0,0,0-.269-.637,1.237,1.237,0,0,0-.744-.2,2.457,2.457,0,0,0-.726.107,3.819,3.819,0,0,0-.628.251.888.888,0,0,1-.161-.2.505.505,0,0,1,.009-.533.636.636,0,0,1,.251-.193,2.4,2.4,0,0,1,.605-.2,3.683,3.683,0,0,1,.722-.067m.018,4.143a2.07,2.07,0,0,0,.583-.072,1.022,1.022,0,0,0,.341-.153v-1.264l-1.022.108a1.455,1.455,0,0,0-.655.206.543.543,0,0,0-.215.475.622.622,0,0,0,.233.511,1.166,1.166,0,0,0,.735.188" transform="translate(-851.441 -162.372)" fill="#c06"/>
      <path id="Path_1384" data-name="Path 1384" d="M1014.035,190.093q-.242-.493-.587-1.39t-.659-2.027a.784.784,0,0,1,.229-.184.614.614,0,0,1,.3-.076.544.544,0,0,1,.341.1.71.71,0,0,1,.215.363q.26.807.534,1.592t.605,1.619h.036q.143-.323.291-.749t.287-.906q.139-.48.265-.973t.224-.941a1.318,1.318,0,0,1,.188-.076.775.775,0,0,1,.233-.031.584.584,0,0,1,.35.1.375.375,0,0,1,.143.327,3.674,3.674,0,0,1-.13.789q-.13.529-.336,1.175t-.471,1.3q-.265.655-.534,1.166a7.82,7.82,0,0,1-.852,1.336,1.035,1.035,0,0,1-.726.457.569.569,0,0,1-.421-.152.722.722,0,0,1-.2-.386,4.012,4.012,0,0,0,.332-.336q.179-.2.359-.43t.345-.471a3.25,3.25,0,0,0,.273-.475.821.821,0,0,1-.309-.2,1.871,1.871,0,0,1-.327-.529" transform="translate(-883.83 -162.68)" fill="#c06"/>
      <path id="Path_1385" data-name="Path 1385" d="M1058.779,187.109a.94.94,0,0,0-.637-.2,1.27,1.27,0,0,0-.5.1,1.558,1.558,0,0,0-.44.282,1.511,1.511,0,0,1,.027.17c.006.06.009.12.009.179v3.211a1.094,1.094,0,0,1-.184.054,1.165,1.165,0,0,1-.255.027.637.637,0,0,1-.413-.112.46.46,0,0,1-.134-.372v-2.7a.805.805,0,0,0-.233-.641.94.94,0,0,0-.637-.2,1.39,1.39,0,0,0-.5.09,2,2,0,0,0-.394.2v3.659a1.087,1.087,0,0,1-.184.054,1.215,1.215,0,0,1-.265.027.618.618,0,0,1-.4-.112.459.459,0,0,1-.135-.372v-3.282a.7.7,0,0,1,.085-.372,1.047,1.047,0,0,1,.282-.283,2.965,2.965,0,0,1,1.542-.448,2.283,2.283,0,0,1,.8.13,1.49,1.49,0,0,1,.583.381,2.374,2.374,0,0,1,.623-.363,2.235,2.235,0,0,1,.847-.148,2.389,2.389,0,0,1,.7.1,1.472,1.472,0,0,1,.552.3,1.429,1.429,0,0,1,.363.511,1.848,1.848,0,0,1,.135.74v3.139a2.05,2.05,0,0,1-.2.054,1.169,1.169,0,0,1-.255.027.62.62,0,0,1-.4-.112.46.46,0,0,1-.135-.372v-2.7a.8.8,0,0,0-.233-.641" transform="translate(-919.355 -162.372)" fill="#c06"/>
      <path id="Path_1386" data-name="Path 1386" d="M1114.083,189.068a1.333,1.333,0,0,0,.511.838,1.666,1.666,0,0,0,.986.273,1.939,1.939,0,0,0,.722-.13,2.666,2.666,0,0,0,.534-.274.5.5,0,0,1,.269.448.468.468,0,0,1-.125.314,1.044,1.044,0,0,1-.341.247,2.3,2.3,0,0,1-.5.166,3.122,3.122,0,0,1-1.614-.1,2.086,2.086,0,0,1-.771-.48,2.135,2.135,0,0,1-.5-.789,3.1,3.1,0,0,1-.175-1.081,3.062,3.062,0,0,1,.166-1.054,2.115,2.115,0,0,1,.462-.758,2,2,0,0,1,.695-.466,2.239,2.239,0,0,1,.848-.161,2.115,2.115,0,0,1,.829.157,1.926,1.926,0,0,1,1.063,1.081,2.179,2.179,0,0,1,.152.825.5.5,0,0,1-.117.368.59.59,0,0,1-.332.152Zm1.166-2.2a1.131,1.131,0,0,0-.865.372,1.554,1.554,0,0,0-.363,1.054l2.331-.35a1.28,1.28,0,0,0-.309-.762,1,1,0,0,0-.793-.314" transform="translate(-971.351 -162.372)" fill="#c06"/>
      <path id="Path_1387" data-name="Path 1387" d="M1156.875,187.136a1.036,1.036,0,0,0-.708-.229,1.81,1.81,0,0,0-.592.09,2.664,2.664,0,0,0-.448.2v3.659a1.085,1.085,0,0,1-.184.054,1.213,1.213,0,0,1-.265.027.619.619,0,0,1-.4-.112.459.459,0,0,1-.135-.372v-3.282a.707.707,0,0,1,.085-.372,1.048,1.048,0,0,1,.283-.283,3.606,3.606,0,0,1,.695-.3,3.015,3.015,0,0,1,.964-.143,2.189,2.189,0,0,1,1.439.435,1.609,1.609,0,0,1,.525,1.314v3.04a1.482,1.482,0,0,1-.193.054,1.212,1.212,0,0,1-.264.027.619.619,0,0,1-.4-.112.459.459,0,0,1-.134-.372v-2.6a.9.9,0,0,0-.26-.713" transform="translate(-1007.183 -162.372)" fill="#c06"/>
      <path id="Path_1388" data-name="Path 1388" d="M1197.021,181.655a.932.932,0,0,0,.56.148,1.281,1.281,0,0,0,.341-.049,1.513,1.513,0,0,0,.314-.121,1.344,1.344,0,0,1,.117.179.512.512,0,0,1-.2.673,1.376,1.376,0,0,1-.758.17,1.779,1.779,0,0,1-1.134-.336,1.315,1.315,0,0,1-.426-1.1v-4.654a1.45,1.45,0,0,1,.2-.054,1.29,1.29,0,0,1,.269-.027.6.6,0,0,1,.395.108.463.463,0,0,1,.126.368v.986h1.471a.96.96,0,0,1,.072.17.737.737,0,0,1,.036.233q0,.422-.35.421h-1.229v2.377a.587.587,0,0,0,.2.507" transform="translate(-1043.568 -154.013)" fill="#c06"/>
      <path id="Path_1389" data-name="Path 1389" d="M1225.767,189.588a1.27,1.27,0,0,1-.471,1.045,2.13,2.13,0,0,1-1.368.381,3.53,3.53,0,0,1-.69-.063,2.12,2.12,0,0,1-.529-.17,1.025,1.025,0,0,1-.34-.26.509.509,0,0,1-.126-.332.586.586,0,0,1,.067-.274.525.525,0,0,1,.2-.211,3.535,3.535,0,0,0,.6.327,1.966,1.966,0,0,0,.789.148,1.164,1.164,0,0,0,.655-.152.5.5,0,0,0,.224-.439.53.53,0,0,0-.152-.4,1.027,1.027,0,0,0-.458-.229l-.646-.179a2.1,2.1,0,0,1-.942-.489,1.154,1.154,0,0,1-.3-.847,1.288,1.288,0,0,1,.117-.543,1.238,1.238,0,0,1,.336-.439,1.636,1.636,0,0,1,.552-.291,2.439,2.439,0,0,1,.753-.108,3.075,3.075,0,0,1,.628.058,2.209,2.209,0,0,1,.48.153.859.859,0,0,1,.314.233.469.469,0,0,1,.112.3.527.527,0,0,1-.067.269.6.6,0,0,1-.166.188,3.54,3.54,0,0,0-.511-.238,1.949,1.949,0,0,0-.717-.13,1.162,1.162,0,0,0-.628.143.481.481,0,0,0-.1.731.936.936,0,0,0,.44.211l.556.144a2.427,2.427,0,0,1,1.054.543,1.242,1.242,0,0,1,.336.919" transform="translate(-1066.615 -162.372)" fill="#c06"/>
      <g id="Group_118" data-name="Group 118">
        <path id="Path_1373" data-name="Path 1373" d="M25.05,102.98v17.507a5.6,5.6,0,0,1-3.667,5.256L5.417,131.615a1.662,1.662,0,0,1-2.237-1.56V115.2a4.374,4.374,0,0,1,2.857-4.1l14.757-5.458c2.329-.943,3.239-1.52,4.257-2.657" transform="translate(-2.775 -89.867)" fill="#fff"/>
        <path id="Path_1390" data-name="Path 1390" d="M240.289,95.07a2.568,2.568,0,0,1-2.46,2.5h-3.346a.728.728,0,0,1-.745-.71V89.572a.722.722,0,0,1,.733-.733H237.7a2.5,2.5,0,0,1,1.632,4.268,2.547,2.547,0,0,1,.958,1.963m-5.132-2.6,2.377-.024a1.138,1.138,0,0,0,1.1-1.1,1.071,1.071,0,0,0-1.041-1.064h-2.436Zm3.666,2.6a1.192,1.192,0,0,0-1.147-1.111h-2.46v2.187h2.53a1.112,1.112,0,0,0,1.076-1.076" transform="translate(-203.977 -77.527)" fill="#fff"/>
        <path id="Path_1391" data-name="Path 1391" d="M313.616,93.959H312.54v2.9a.725.725,0,0,1-.733.709.712.712,0,0,1-.71-.709V89.548a.732.732,0,0,1,.733-.709h2.589a2.6,2.6,0,0,1,2.542,2.519,2.65,2.65,0,0,1-1.762,2.436l1.644,2.684a.735.735,0,0,1-.248.993.769.769,0,0,1-.367.095.724.724,0,0,1-.615-.343Zm1.916-2.59a1.14,1.14,0,0,0-1.159-1.088H312.54v2.235h1.833a1.158,1.158,0,0,0,1.159-1.147" transform="translate(-271.484 -77.527)" fill="#fff"/>
        <path id="Path_1392" data-name="Path 1392" d="M392.772,97.727a4.363,4.363,0,0,1-4.316-4.387,4.311,4.311,0,1,1,4.316,4.387m-2.921-4.387a2.927,2.927,0,1,0,2.921-2.932,2.95,2.95,0,0,0-2.921,2.932" transform="translate(-338.994 -77.689)" fill="#fff"/>
        <path id="Path_1393" data-name="Path 1393" d="M492.52,97.343a.734.734,0,0,1-.958-.438l-2-5.4-2.01,5.4a.714.714,0,0,1-.946.438.726.726,0,0,1-.438-.958l2.672-7.249a.76.76,0,0,1,.721-.485.784.784,0,0,1,.721.485l2.672,7.249a.726.726,0,0,1-.437.958" transform="translate(-424.221 -77.363)" fill="#fff"/>
        <path id="Path_1394" data-name="Path 1394" d="M563.234,97.1V89.826a.727.727,0,0,1,.709-.709h1.762a4.561,4.561,0,0,1,1.845.378,4.257,4.257,0,0,1,1.466,1.064,4.314,4.314,0,0,1,1.041,3.405,4.379,4.379,0,0,1-4.328,3.843h-1.785a.727.727,0,0,1-.709-.709m5.392-3.3a2.821,2.821,0,0,0-.674-2.294,2.962,2.962,0,0,0-2.247-.981h-1.052v5.865h1.076a2.917,2.917,0,0,0,2.9-2.59" transform="translate(-491.518 -77.77)" fill="#fff"/>
        <path id="Path_1395" data-name="Path 1395" d="M646.215,95.643a2.508,2.508,0,0,1-3.358.78.8.8,0,0,1-.307-1.029.78.78,0,0,1,1.052-.118,1.1,1.1,0,0,0,1.454-.378,1.124,1.124,0,0,0-.307-1.561c-.579-.367-.6-.378-1.159-.745a2.488,2.488,0,0,1-.733-3.441,2.532,2.532,0,0,1,3.358-.781.741.741,0,0,1,.284.981.755.755,0,0,1-1.029.166,1.122,1.122,0,0,0-1.123,1.939c.3.189.3.189,1.147.745a2.484,2.484,0,0,1,.721,3.441" transform="translate(-560.652 -76.822)" fill="#fff"/>
        <path id="Path_1396" data-name="Path 1396" d="M711.165,94.1a16.9,16.9,0,0,1-1.987.024v2.9a.725.725,0,0,1-.733.709.712.712,0,0,1-.709-.709V89.733a.7.7,0,0,1,.709-.709h2.649a2.563,2.563,0,0,1,2.483,2.53,2.591,2.591,0,0,1-2.412,2.542M711,90.443h-1.821v2.235H711a1.166,1.166,0,0,0,1.159-1.147A1.148,1.148,0,0,0,711,90.443" transform="translate(-617.619 -77.689)" fill="#fff"/>
        <path id="Path_1397" data-name="Path 1397" d="M783.331,96.855V89.547a.712.712,0,0,1,.709-.709H788.3a.724.724,0,0,1,.733.709.737.737,0,0,1-.733.733h-3.524v2.235h2.661a.7.7,0,0,1,.709.709.7.7,0,0,1-.709.71h-2.661v2.187H788.3a.737.737,0,0,1,.733.733.725.725,0,0,1-.733.709h-4.257a.712.712,0,0,1-.709-.709" transform="translate(-683.59 -77.525)" fill="#fff"/>
        <path id="Path_1398" data-name="Path 1398" d="M867.667,96.456a4.241,4.241,0,0,1-2.649.922,4.363,4.363,0,0,1,0-8.727,4.206,4.206,0,0,1,2.223.639.7.7,0,0,1,.284.97.685.685,0,0,1-.981.213,2.952,2.952,0,0,0-1.525-.414A2.919,2.919,0,0,0,862.1,92.98a2.921,2.921,0,0,0,4.682,2.4.682.682,0,0,1,.969.083.706.706,0,0,1-.083.993" transform="translate(-751.098 -77.363)" fill="#fff"/>
        <path id="Path_1399" data-name="Path 1399" d="M949.646,89.454a.7.7,0,0,1-.709.7H947.2v6.622a.7.7,0,1,1-1.407,0V90.152h-1.738a.7.7,0,1,1,0-1.407h4.883a.7.7,0,0,1,.709.709" transform="translate(-823.229 -77.445)" fill="#fff"/>
        <path id="Path_1400" data-name="Path 1400" d="M1023.221,93.959h-1.076v2.9a.725.725,0,0,1-.733.709.712.712,0,0,1-.71-.709V89.548a.732.732,0,0,1,.733-.709h2.59a2.6,2.6,0,0,1,2.542,2.519,2.65,2.65,0,0,1-1.762,2.436l1.644,2.684a.735.735,0,0,1-.249.993.768.768,0,0,1-.367.095.724.724,0,0,1-.615-.343Zm1.916-2.59a1.14,1.14,0,0,0-1.159-1.088h-1.833v2.235h1.833a1.158,1.158,0,0,0,1.159-1.147" transform="translate(-890.736 -77.527)" fill="#fff"/>
        <path id="Path_1401" data-name="Path 1401" d="M1104.447,89.454v4.836a3.193,3.193,0,1,1-6.385,0V89.454a.721.721,0,0,1,1.443,0v4.836a1.762,1.762,0,0,0,3.524,0V89.454a.7.7,0,0,1,.709-.709.7.7,0,0,1,.709.709" transform="translate(-958.246 -77.445)" fill="#fff"/>
        <path id="Path_1402" data-name="Path 1402" d="M1184.764,96.539a.67.67,0,0,1-.485.84h-.036c-.012,0-.012,0-.023.024h-.083a.72.72,0,0,1-.7-.579l-.97-4.73-1.785,4.789a.722.722,0,0,1-1.372,0l-1.573-4.564-.828,4.505a.7.7,0,0,1-.7.591c-.036,0-.083-.012-.118-.012a.644.644,0,0,1-.461-.308.621.621,0,0,1-.118-.52l1.218-7.331a.728.728,0,0,1,.674-.591h.059a.72.72,0,0,1,.686.5l1.868,5.262,1.951-5.286a.683.683,0,0,1,.674-.473h.036a.673.673,0,0,1,.662.579Z" transform="translate(-1025.828 -77.363)" fill="#fff"/>
      </g>
    </g>
  </g>
</svg>
