<svg xmlns="http://www.w3.org/2000/svg" xmlns:xlink="http://www.w3.org/1999/xlink" width="125.555" height="33.017" viewBox="0 0 125.555 33.017">
  <defs>
    <clipPath id="clip-path">
      <rect id="Rectangle_16" data-name="Rectangle 16" width="125.555" height="33.017" fill="#1d365a"/>
    </clipPath>
  </defs>
  <g id="Group_120" data-name="Group 120" transform="translate(0.001 0)">
    <g id="Group_17" data-name="Group 17" transform="translate(-0.001 0)" clip-path="url(#clip-path)">
      <path id="Path_1373" data-name="Path 1373" d="M20.433,102.98v13.811a4.42,4.42,0,0,1-2.893,4.147l-12.6,4.633A1.311,1.311,0,0,1,3.18,124.34V112.619a3.451,3.451,0,0,1,2.254-3.237l11.641-4.305a7.657,7.657,0,0,0,3.358-2.1" transform="translate(-2.861 -92.636)" fill="#1d365a"/>
      <path id="Path_1374" data-name="Path 1374" d="M13.639,5,2.178.127A1.565,1.565,0,0,0,0,1.568V14.1a1.649,1.649,0,0,0,2.229,1.545l7.6-2.851L1.594,9.365a.5.5,0,0,1,.387-.927l9.226,3.843h0l2.6-.973c4.44-1.54,4.671-4.617-.166-6.309m1.086,3.989a.5.5,0,0,1-.656.27L1.406,3.981a.5.5,0,1,1,.386-.927L14.455,8.33a.5.5,0,0,1,.27.657" transform="translate(0 -0.001)" fill="#1d365a"/>
      <path id="Path_1375" data-name="Path 1375" d="M712.529,177.736a3.234,3.234,0,0,1-.173,1.111,2.111,2.111,0,0,1-.492.789,1.977,1.977,0,0,1-.764.467,3.055,3.055,0,0,1-.991.152q-.233,0-.559-.021a2.11,2.11,0,0,1-.594-.12.429.429,0,0,1-.347-.424v-3.934a.29.29,0,0,1,.071-.209.476.476,0,0,1,.191-.117,2.743,2.743,0,0,1,.577-.113q.308-.028.6-.028a3.277,3.277,0,0,1,1.011.149,2.035,2.035,0,0,1,.785.456,2.088,2.088,0,0,1,.506.768,2.933,2.933,0,0,1,.18,1.075m-.828.007a2.3,2.3,0,0,0-.124-.8,1.427,1.427,0,0,0-.347-.545,1.409,1.409,0,0,0-.524-.315,2,2,0,0,0-.647-.1,3.151,3.151,0,0,0-.651.057V179.5a2.14,2.14,0,0,0,.329.05q.18.014.371.014a1.5,1.5,0,0,0,1.185-.46,2.006,2.006,0,0,0,.407-1.365" transform="translate(-637.43 -157.68)" fill="#1d365a"/>
      <path id="Path_1376" data-name="Path 1376" d="M755.938,171.613a.479.479,0,0,1,.131-.343.451.451,0,0,1,.343-.138.443.443,0,0,1,.336.138.515.515,0,0,1,0,.686.443.443,0,0,1-.336.138.451.451,0,0,1-.343-.138.479.479,0,0,1-.131-.343m.863,4.8a.873.873,0,0,1-.145.042.962.962,0,0,1-.209.021.486.486,0,0,1-.322-.088.37.37,0,0,1-.1-.294v-3.325l.149-.039a.825.825,0,0,1,.212-.025.473.473,0,0,1,.319.088.388.388,0,0,1,.1.3Z" transform="translate(-680.004 -153.942)" fill="#1d365a"/>
      <path id="Path_1377" data-name="Path 1377" d="M775.937,189.509a1.393,1.393,0,0,1-.347.156,1.659,1.659,0,0,1-.488.064,1.943,1.943,0,0,1-.626-.1,1.386,1.386,0,0,1-.52-.315,1.454,1.454,0,0,1-.354-.559,2.466,2.466,0,0,1-.127-.853,2.28,2.28,0,0,1,.127-.8,1.521,1.521,0,0,1,.364-.573,1.593,1.593,0,0,1,.559-.35,2.06,2.06,0,0,1,.725-.12,2.21,2.21,0,0,1,.672.1,1.99,1.99,0,0,1,.51.233.713.713,0,0,1,.191.195.494.494,0,0,1,.071.272v3.092a1.646,1.646,0,0,1-.127.679,1.178,1.178,0,0,1-.357.46,1.5,1.5,0,0,1-.545.258,2.694,2.694,0,0,1-.676.081,2.411,2.411,0,0,1-.651-.078,1.893,1.893,0,0,1-.41-.156.474.474,0,0,1-.177-.616.386.386,0,0,1,.141-.149,1.754,1.754,0,0,0,.453.23,1.774,1.774,0,0,0,.609.1,1.154,1.154,0,0,0,.725-.2.771.771,0,0,0,.258-.647Zm-.729-.425a1.046,1.046,0,0,0,.428-.078.95.95,0,0,0,.286-.191v-1.9a1.176,1.176,0,0,0-.272-.127,1.2,1.2,0,0,0-.386-.057.971.971,0,0,0-.732.29,1.221,1.221,0,0,0-.279.877,1.782,1.782,0,0,0,.074.552.984.984,0,0,0,.205.368.779.779,0,0,0,.3.205,1.059,1.059,0,0,0,.375.064" transform="translate(-695.779 -167.374)" fill="#1d365a"/>
      <path id="Path_1378" data-name="Path 1378" d="M815.239,171.613a.479.479,0,0,1,.131-.343.451.451,0,0,1,.343-.138.443.443,0,0,1,.336.138.515.515,0,0,1,0,.686.443.443,0,0,1-.336.138.451.451,0,0,1-.343-.138.479.479,0,0,1-.131-.343m.863,4.8a.877.877,0,0,1-.145.042.962.962,0,0,1-.209.021.486.486,0,0,1-.322-.088.37.37,0,0,1-.1-.294v-3.325l.149-.039a.826.826,0,0,1,.212-.025.473.473,0,0,1,.318.088.388.388,0,0,1,.1.3Z" transform="translate(-733.348 -153.942)" fill="#1d365a"/>
      <path id="Path_1379" data-name="Path 1379" d="M835.544,180.564a.735.735,0,0,0,.442.117,1.013,1.013,0,0,0,.269-.039,1.189,1.189,0,0,0,.248-.1,1.063,1.063,0,0,1,.092.142.4.4,0,0,1-.159.531,1.086,1.086,0,0,1-.6.134,1.4,1.4,0,0,1-.895-.265,1.038,1.038,0,0,1-.336-.867v-3.672a1.146,1.146,0,0,1,.156-.042,1.018,1.018,0,0,1,.212-.021.472.472,0,0,1,.311.085.365.365,0,0,1,.1.29v.778h1.16a.784.784,0,0,1,.057.134.582.582,0,0,1,.028.184q0,.333-.276.333h-.969v1.875a.463.463,0,0,0,.159.4" transform="translate(-750.77 -158.757)" fill="#1d365a"/>
      <path id="Path_1380" data-name="Path 1380" d="M862.046,186.064a1.755,1.755,0,0,1,1.1.318,1.193,1.193,0,0,1,.41,1v1.832a.433.433,0,0,1-.078.279,1,1,0,0,1-.212.187,2.164,2.164,0,0,1-.5.2,2.579,2.579,0,0,1-.715.088,1.865,1.865,0,0,1-1.128-.3,1.026,1.026,0,0,1-.407-.881,1,1,0,0,1,.315-.792,1.609,1.609,0,0,1,.909-.34l1.04-.113v-.17a.581.581,0,0,0-.212-.5.976.976,0,0,0-.587-.156,1.939,1.939,0,0,0-.573.085,3.017,3.017,0,0,0-.5.2.7.7,0,0,1-.127-.156.4.4,0,0,1,.007-.421.5.5,0,0,1,.2-.152,1.894,1.894,0,0,1,.478-.159,2.9,2.9,0,0,1,.57-.053m.014,3.268a1.633,1.633,0,0,0,.46-.057.8.8,0,0,0,.269-.12v-1l-.806.085a1.15,1.15,0,0,0-.517.163.428.428,0,0,0-.17.375.49.49,0,0,0,.184.4.919.919,0,0,0,.58.149" transform="translate(-774.085 -167.374)" fill="#1d365a"/>
      <path id="Path_1381" data-name="Path 1381" d="M901.656,177.615a.488.488,0,0,1-.318-.089.362.362,0,0,1-.106-.294v-4.768l.149-.039a.82.82,0,0,1,.212-.025.5.5,0,0,1,.318.085.352.352,0,0,1,.106.29v4.775q-.064.021-.156.042a.907.907,0,0,1-.205.021" transform="translate(-810.703 -155.083)" fill="#1d365a"/>
      <path id="Path_1382" data-name="Path 1382" d="M937.181,178.521v1.627a1.557,1.557,0,0,1-.163.042,1,1,0,0,1-.212.021.485.485,0,0,1-.329-.092.391.391,0,0,1-.1-.3v-4.054a.29.29,0,0,1,.071-.209.475.475,0,0,1,.191-.117,2.4,2.4,0,0,1,.559-.117q.318-.032.6-.032a2.071,2.071,0,0,1,1.443.432,1.521,1.521,0,0,1,.467,1.174,1.557,1.557,0,0,1-.467,1.182,1.959,1.959,0,0,1-1.4.446Zm.616-.686a1.243,1.243,0,0,0,.8-.237.851.851,0,0,0,.294-.7.828.828,0,0,0-.28-.693,1.277,1.277,0,0,0-.8-.219q-.163,0-.333.014a2.528,2.528,0,0,0-.3.042v1.8Z" transform="translate(-842.315 -157.68)" fill="#1d365a"/>
      <path id="Path_1383" data-name="Path 1383" d="M977.194,186.064a1.755,1.755,0,0,1,1.1.318,1.192,1.192,0,0,1,.41,1v1.832a.434.434,0,0,1-.078.279,1,1,0,0,1-.212.187,2.167,2.167,0,0,1-.5.2,2.578,2.578,0,0,1-.714.088,1.865,1.865,0,0,1-1.128-.3,1.026,1.026,0,0,1-.407-.881,1,1,0,0,1,.315-.792,1.611,1.611,0,0,1,.909-.34l1.04-.113v-.17a.581.581,0,0,0-.212-.5.976.976,0,0,0-.587-.156,1.941,1.941,0,0,0-.573.085,3.008,3.008,0,0,0-.5.2.7.7,0,0,1-.127-.156.4.4,0,0,1,.007-.421.5.5,0,0,1,.2-.152,1.892,1.892,0,0,1,.478-.159,2.9,2.9,0,0,1,.569-.053m.014,3.268a1.632,1.632,0,0,0,.46-.057.805.805,0,0,0,.269-.12v-1l-.806.085a1.149,1.149,0,0,0-.517.163.429.429,0,0,0-.17.375.491.491,0,0,0,.184.4.92.92,0,0,0,.58.149" transform="translate(-877.666 -167.374)" fill="#1d365a"/>
      <path id="Path_1384" data-name="Path 1384" d="M1013.771,189.317q-.191-.389-.463-1.1t-.52-1.6a.619.619,0,0,1,.18-.145.485.485,0,0,1,.237-.06.43.43,0,0,1,.269.081.561.561,0,0,1,.17.286q.205.637.421,1.256t.478,1.277h.028q.113-.255.23-.591t.226-.715q.11-.378.209-.768t.177-.743a1.033,1.033,0,0,1,.148-.06.611.611,0,0,1,.184-.025.461.461,0,0,1,.276.081.3.3,0,0,1,.113.258,2.893,2.893,0,0,1-.1.623q-.1.418-.265.927t-.372,1.026q-.209.516-.421.92a6.16,6.16,0,0,1-.672,1.054.816.816,0,0,1-.573.361.449.449,0,0,1-.332-.12.569.569,0,0,1-.156-.3,3.17,3.17,0,0,0,.262-.265q.141-.159.283-.34t.272-.371a2.574,2.574,0,0,0,.216-.375.649.649,0,0,1-.244-.156,1.477,1.477,0,0,1-.258-.417" transform="translate(-911.053 -167.69)" fill="#1d365a"/>
      <path id="Path_1385" data-name="Path 1385" d="M1057.664,186.888a.742.742,0,0,0-.5-.159,1,1,0,0,0-.4.081,1.23,1.23,0,0,0-.347.223,1.141,1.141,0,0,1,.021.134q.007.071.007.142v2.533a.868.868,0,0,1-.145.042.92.92,0,0,1-.2.021.5.5,0,0,1-.326-.089.362.362,0,0,1-.106-.294v-2.129a.635.635,0,0,0-.184-.506.741.741,0,0,0-.5-.159,1.1,1.1,0,0,0-.4.071,1.59,1.59,0,0,0-.311.156v2.886a.866.866,0,0,1-.145.042.959.959,0,0,1-.209.021.487.487,0,0,1-.318-.089.362.362,0,0,1-.106-.294v-2.589a.556.556,0,0,1,.067-.294.831.831,0,0,1,.223-.223,2.341,2.341,0,0,1,1.217-.354,1.8,1.8,0,0,1,.63.1,1.176,1.176,0,0,1,.46.3,1.876,1.876,0,0,1,.492-.287,1.764,1.764,0,0,1,.669-.117,1.885,1.885,0,0,1,.552.078,1.161,1.161,0,0,1,.435.237,1.125,1.125,0,0,1,.286.4,1.457,1.457,0,0,1,.106.584v2.476a1.615,1.615,0,0,1-.159.042.923.923,0,0,1-.2.021.487.487,0,0,1-.318-.089.362.362,0,0,1-.106-.294v-2.129a.635.635,0,0,0-.184-.506" transform="translate(-947.673 -167.374)" fill="#1d365a"/>
      <path id="Path_1386" data-name="Path 1386" d="M1113.871,188.434a1.051,1.051,0,0,0,.4.661,1.314,1.314,0,0,0,.778.216,1.53,1.53,0,0,0,.57-.1,2.1,2.1,0,0,0,.421-.216.394.394,0,0,1,.212.354.37.37,0,0,1-.1.248.823.823,0,0,1-.269.194,1.82,1.82,0,0,1-.4.131,2.463,2.463,0,0,1-1.273-.078,1.65,1.65,0,0,1-.609-.379,1.683,1.683,0,0,1-.392-.623,2.706,2.706,0,0,1-.007-1.684,1.67,1.67,0,0,1,.365-.6,1.578,1.578,0,0,1,.548-.368,1.766,1.766,0,0,1,.669-.127,1.669,1.669,0,0,1,.654.124,1.52,1.52,0,0,1,.838.852,1.721,1.721,0,0,1,.12.651.4.4,0,0,1-.092.29.467.467,0,0,1-.262.12Zm.92-1.733a.893.893,0,0,0-.683.294,1.228,1.228,0,0,0-.286.831l1.839-.276a1.012,1.012,0,0,0-.244-.6.785.785,0,0,0-.626-.248" transform="translate(-1001.27 -167.374)" fill="#1d365a"/>
      <path id="Path_1387" data-name="Path 1387" d="M1156.3,186.909a.818.818,0,0,0-.559-.18,1.428,1.428,0,0,0-.467.071,2.094,2.094,0,0,0-.354.156v2.886a.866.866,0,0,1-.145.042.954.954,0,0,1-.208.021.488.488,0,0,1-.318-.089.362.362,0,0,1-.106-.294v-2.589a.557.557,0,0,1,.067-.294.827.827,0,0,1,.223-.223,2.847,2.847,0,0,1,.548-.241,2.38,2.38,0,0,1,.761-.113,1.726,1.726,0,0,1,1.135.343,1.268,1.268,0,0,1,.414,1.036v2.4a1.165,1.165,0,0,1-.152.042.955.955,0,0,1-.208.021.487.487,0,0,1-.318-.089.362.362,0,0,1-.106-.294v-2.051a.712.712,0,0,0-.205-.563" transform="translate(-1038.206 -167.374)" fill="#1d365a"/>
      <path id="Path_1388" data-name="Path 1388" d="M1196.77,180.564a.735.735,0,0,0,.442.117,1.011,1.011,0,0,0,.269-.039,1.2,1.2,0,0,0,.248-.1,1.081,1.081,0,0,1,.092.142.4.4,0,0,1-.159.531,1.085,1.085,0,0,1-.6.134,1.4,1.4,0,0,1-.9-.265,1.038,1.038,0,0,1-.336-.867v-3.672a1.149,1.149,0,0,1,.156-.042,1.018,1.018,0,0,1,.212-.021.472.472,0,0,1,.311.085.365.365,0,0,1,.1.29v.778h1.16a.764.764,0,0,1,.057.134.58.58,0,0,1,.028.184q0,.333-.276.333h-.969v1.875a.463.463,0,0,0,.159.4" transform="translate(-1075.711 -158.757)" fill="#1d365a"/>
      <path id="Path_1389" data-name="Path 1389" d="M1225.023,188.844a1,1,0,0,1-.371.824,1.681,1.681,0,0,1-1.079.3,2.785,2.785,0,0,1-.545-.05,1.669,1.669,0,0,1-.418-.134.811.811,0,0,1-.269-.205.4.4,0,0,1-.1-.262.463.463,0,0,1,.053-.216.414.414,0,0,1,.159-.166,2.788,2.788,0,0,0,.474.258,1.549,1.549,0,0,0,.623.117.918.918,0,0,0,.516-.12.394.394,0,0,0,.177-.347.418.418,0,0,0-.12-.315.811.811,0,0,0-.361-.181l-.509-.141a1.661,1.661,0,0,1-.743-.385.911.911,0,0,1-.24-.669,1.015,1.015,0,0,1,.092-.428.974.974,0,0,1,.265-.347,1.291,1.291,0,0,1,.435-.23,1.925,1.925,0,0,1,.594-.085,2.426,2.426,0,0,1,.5.046,1.747,1.747,0,0,1,.379.12.679.679,0,0,1,.247.184.371.371,0,0,1,.088.237.417.417,0,0,1-.053.212.471.471,0,0,1-.131.149,2.793,2.793,0,0,0-.4-.187,1.538,1.538,0,0,0-.566-.1.917.917,0,0,0-.5.113.379.379,0,0,0-.078.577.737.737,0,0,0,.347.166l.438.113a1.916,1.916,0,0,1,.831.428.98.98,0,0,1,.265.725" transform="translate(-1099.468 -167.374)" fill="#1d365a"/>
      <path id="Path_1390" data-name="Path 1390" d="M238.906,93.755a2.026,2.026,0,0,1-1.94,1.968h-2.64a.574.574,0,0,1-.588-.56V89.417a.569.569,0,0,1,.578-.578h2.547a1.974,1.974,0,0,1,1.287,3.367,2.009,2.009,0,0,1,.756,1.549M234.857,91.7l1.875-.019a.9.9,0,0,0,.868-.868.845.845,0,0,0-.821-.839h-1.922Zm2.892,2.052a.94.94,0,0,0-.9-.877H234.9V94.6h2a.877.877,0,0,0,.849-.849" transform="translate(-210.259 -79.915)" fill="#1d365a"/>
      <path id="Path_1391" data-name="Path 1391" d="M313.084,92.878h-.849v2.285a.572.572,0,0,1-.578.56.561.561,0,0,1-.56-.56V89.4a.578.578,0,0,1,.578-.56h2.043a2.049,2.049,0,0,1,2.006,1.987,2.09,2.09,0,0,1-1.39,1.922l1.3,2.117a.58.58,0,0,1-.2.784.607.607,0,0,1-.289.075.571.571,0,0,1-.485-.271Zm1.511-2.043a.9.9,0,0,0-.914-.858h-1.446V91.74h1.446a.914.914,0,0,0,.914-.9" transform="translate(-279.847 -79.915)" fill="#1d365a"/>
      <path id="Path_1392" data-name="Path 1392" d="M391.861,95.89a3.442,3.442,0,0,1-3.4-3.461,3.4,3.4,0,1,1,3.4,3.461m-2.3-3.461a2.309,2.309,0,1,0,2.3-2.313,2.327,2.327,0,0,0-2.3,2.313" transform="translate(-349.435 -80.082)" fill="#1d365a"/>
      <path id="Path_1393" data-name="Path 1393" d="M491.169,95.508a.579.579,0,0,1-.756-.345L488.837,90.9l-1.586,4.263a.563.563,0,0,1-.746.345.573.573,0,0,1-.345-.755l2.108-5.718a.6.6,0,0,1,.569-.383.618.618,0,0,1,.569.383l2.108,5.718a.573.573,0,0,1-.345.755" transform="translate(-437.288 -79.747)" fill="#1d365a"/>
      <path id="Path_1394" data-name="Path 1394" d="M563.234,95.414V89.677a.574.574,0,0,1,.56-.56h1.39a3.6,3.6,0,0,1,1.455.3,3.358,3.358,0,0,1,1.157.84,3.4,3.4,0,0,1,.821,2.687,3.454,3.454,0,0,1-3.414,3.032h-1.409a.574.574,0,0,1-.56-.56m4.254-2.6a2.226,2.226,0,0,0-.532-1.81,2.337,2.337,0,0,0-1.772-.774h-.83v4.627h.849a2.3,2.3,0,0,0,2.285-2.043" transform="translate(-506.657 -80.165)" fill="#1d365a"/>
      <path id="Path_1395" data-name="Path 1395" d="M645.422,94.036a1.979,1.979,0,0,1-2.649.616.628.628,0,0,1-.242-.812.615.615,0,0,1,.83-.093.87.87,0,0,0,1.147-.3.887.887,0,0,0-.242-1.231c-.457-.289-.476-.3-.914-.588a1.962,1.962,0,0,1-.578-2.714,2,2,0,0,1,2.649-.616.585.585,0,0,1,.224.774.6.6,0,0,1-.811.131.885.885,0,0,0-.886,1.53c.233.149.233.149.9.588a1.96,1.96,0,0,1,.569,2.714" transform="translate(-577.921 -79.189)" fill="#1d365a"/>
      <path id="Path_1396" data-name="Path 1396" d="M710.441,93.026a13.334,13.334,0,0,1-1.567.019V95.33a.571.571,0,0,1-.578.56.561.561,0,0,1-.56-.56V89.584a.555.555,0,0,1,.56-.56h2.09a2.022,2.022,0,0,1,1.959,2,2.044,2.044,0,0,1-1.9,2.006m-.131-2.882h-1.437v1.763h1.437a.92.92,0,0,0,.914-.9.905.905,0,0,0-.914-.858" transform="translate(-636.644 -80.082)" fill="#1d365a"/>
      <path id="Path_1397" data-name="Path 1397" d="M783.331,95.163V89.4a.561.561,0,0,1,.56-.56h3.358a.571.571,0,0,1,.578.56.581.581,0,0,1-.578.578h-2.78v1.763h2.1a.555.555,0,0,1,.56.56.55.55,0,0,1-.56.56h-2.1v1.726h2.78a.581.581,0,0,1,.578.578.572.572,0,0,1-.578.56h-3.358a.561.561,0,0,1-.56-.56" transform="translate(-704.645 -79.914)" fill="#1d365a"/>
      <path id="Path_1398" data-name="Path 1398" d="M866.194,94.809a3.346,3.346,0,0,1-2.09.728,3.442,3.442,0,0,1,0-6.884,3.319,3.319,0,0,1,1.754.5.552.552,0,0,1,.224.765.54.54,0,0,1-.774.168,2.329,2.329,0,0,0-1.2-.326,2.3,2.3,0,0,0-2.3,2.3,2.3,2.3,0,0,0,3.694,1.894.538.538,0,0,1,.765.065.557.557,0,0,1-.065.784" transform="translate(-774.233 -79.747)" fill="#1d365a"/>
      <path id="Path_1399" data-name="Path 1399" d="M948.316,89.3a.553.553,0,0,1-.56.55h-1.371v5.224a.555.555,0,1,1-1.11,0V89.855H943.9a.555.555,0,1,1,0-1.11h3.853a.55.55,0,0,1,.56.56" transform="translate(-848.585 -79.831)" fill="#1d365a"/>
      <path id="Path_1400" data-name="Path 1400" d="M1022.689,92.878h-.849v2.285a.572.572,0,0,1-.578.56.561.561,0,0,1-.56-.56V89.4a.578.578,0,0,1,.578-.56h2.043a2.048,2.048,0,0,1,2.005,1.987,2.09,2.09,0,0,1-1.39,1.922l1.3,2.117a.58.58,0,0,1-.2.784.606.606,0,0,1-.289.075.572.572,0,0,1-.485-.271Zm1.511-2.043a.9.9,0,0,0-.914-.858h-1.446V91.74h1.446a.914.914,0,0,0,.914-.9" transform="translate(-918.172 -79.915)" fill="#1d365a"/>
      <path id="Path_1401" data-name="Path 1401" d="M1103.1,89.3V93.12a2.519,2.519,0,1,1-5.037,0V89.3a.569.569,0,0,1,1.138,0V93.12a1.39,1.39,0,0,0,2.78,0V89.3a.556.556,0,0,1,.56-.56.55.55,0,0,1,.56.56" transform="translate(-987.761 -79.831)" fill="#1d365a"/>
      <path id="Path_1402" data-name="Path 1402" d="M1182.809,94.874a.529.529,0,0,1-.383.662h-.028c-.009,0-.009,0-.019.019h-.065a.568.568,0,0,1-.55-.457L1181,91.367l-1.408,3.778a.57.57,0,0,1-1.082,0l-1.241-3.6-.653,3.554a.554.554,0,0,1-.55.466c-.028,0-.065-.009-.093-.009a.508.508,0,0,1-.364-.243.49.49,0,0,1-.093-.41l.961-5.784a.575.575,0,0,1,.532-.466h.047a.568.568,0,0,1,.541.392l1.474,4.151,1.539-4.17a.538.538,0,0,1,.532-.373h.028a.531.531,0,0,1,.522.457Z" transform="translate(-1057.424 -79.747)" fill="#1d365a"/>
    </g>
  </g>
</svg>
