<svg id="Twitter" xmlns="http://www.w3.org/2000/svg" width="40.714" height="40.713" viewBox="0 0 40.714 40.713">
  <path id="Path_1312" data-name="Path 1312" d="M45.246,24.89A20.357,20.357,0,1,1,24.89,4.534,20.356,20.356,0,0,1,45.246,24.89" transform="translate(-4.533 -4.534)" fill="#fff" opacity="0.5"/>
  <path id="twitter-icon" d="M23.13,35.315a8.5,8.5,0,0,0,13.078-7.549A6.071,6.071,0,0,0,37.7,26.219a5.965,5.965,0,0,1-1.716.47A2.988,2.988,0,0,0,37.3,25.036a5.981,5.981,0,0,1-1.9.726A2.991,2.991,0,0,0,30.3,28.488a8.483,8.483,0,0,1-6.16-3.124,2.993,2.993,0,0,0,.925,3.992,2.983,2.983,0,0,1-1.354-.375,2.992,2.992,0,0,0,2.4,2.969,2.993,2.993,0,0,1-1.35.051,2.99,2.99,0,0,0,2.793,2.076,6.008,6.008,0,0,1-4.425,1.238" transform="translate(-9.524 -9.978)" fill="#1d365a"/>
</svg>
