<svg xmlns="http://www.w3.org/2000/svg" width="40.713" height="40.713" viewBox="0 0 40.713 40.713">
  <g id="youtube" transform="translate(0)">
    <path id="Path_1318" data-name="Path 1318" d="M45.246,24.89A20.357,20.357,0,1,1,24.89,4.534,20.356,20.356,0,0,1,45.246,24.89" transform="translate(-4.533 -4.534)" fill="#fff" opacity="0.5"/>
    <path id="youtube-icon" d="M34.031,23.915H23.664A3.683,3.683,0,0,0,19.98,27.6v5.183a3.683,3.683,0,0,0,3.684,3.684H34.031a3.683,3.683,0,0,0,3.683-3.684V27.6a3.683,3.683,0,0,0-3.683-3.683M31.54,30.442l-4.849,2.313a.194.194,0,0,1-.279-.176v-4.77a.194.194,0,0,1,.282-.173l4.85,2.457a.2.2,0,0,1,0,.35" transform="translate(-8.679 -9.735)" fill="#1d365a"/>
  </g>
</svg>
