<svg xmlns="http://www.w3.org/2000/svg" xmlns:xlink="http://www.w3.org/1999/xlink" width="85.382" height="126.229" viewBox="0 0 85.382 126.229">
  <defs>
    <linearGradient id="linear-gradient" x1="0.362" y1="0.801" x2="0.665" y2="0.259" gradientUnits="objectBoundingBox">
      <stop offset="0" stop-color="#60c"/>
      <stop offset="1" stop-color="#cc0166"/>
    </linearGradient>
    <clipPath id="clip-path">
      <rect id="Rectangle_981" data-name="Rectangle 981" width="85.382" height="126.228" stroke="rgba(0,0,0,0)" stroke-width="1" fill="url(#linear-gradient)"/>
    </clipPath>
  </defs>
  <g id="Group_911" data-name="Group 911" transform="translate(11188 6099.8)">
    <g id="Group_927" data-name="Group 927" transform="translate(-11188 -6099.8)" clip-path="url(#clip-path)">
      <path id="Path_2028" data-name="Path 2028" d="M56.3,126.228a1.847,1.847,0,0,1-1.847-1.847v-95.3a1.847,1.847,0,1,1,3.695,0v90.845L82.229,95.845a1.847,1.847,0,0,1,2.612,2.613l-27.23,27.23a1.847,1.847,0,0,1-1.306.541M29.077,99a1.847,1.847,0,0,1-1.847-1.847V6.307L3.154,30.383A1.847,1.847,0,0,1,.541,27.771L27.771.541a1.847,1.847,0,0,1,3.154,1.306v95.3A1.847,1.847,0,0,1,29.077,99" transform="translate(0 0)" stroke="rgba(0,0,0,0)" stroke-width="1" fill="url(#linear-gradient)"/>
    </g>
  </g>
</svg>
