<svg id="Group_25" data-name="Group 25" xmlns="http://www.w3.org/2000/svg" xmlns:xlink="http://www.w3.org/1999/xlink" width="78.564" height="38.67" viewBox="0 0 78.564 38.67">
  <defs>
    <clipPath id="clip-path">
      <rect id="Rectangle_26" data-name="Rectangle 26" width="78.564" height="38.671" fill="none"/>
    </clipPath>
  </defs>
  <path id="Path_1403" data-name="Path 1403" d="M57.3,11.594V24.25H54.368l-6-7.234V24.25H45.175V11.594h3.178L54.1,18.571V11.594ZM32.245,14.46V11.594h11.92V14.46H39.992v9.79h-3.56V14.46Zm-1.009-2.866V24.25H27.744v-7.1l-2.332,3.421H23.584L21.02,17.151v7.1H17.828V11.594h3.219l3.683,4.962,3.3-4.962Z" transform="translate(1.84 1.197)" fill="#000001"/>
  <g id="Group_24" data-name="Group 24" transform="translate(0 0)">
    <g id="Group_23" data-name="Group 23" clip-path="url(#clip-path)">
      <path id="Path_1404" data-name="Path 1404" d="M39.282,2.853c-9.9,0-19.178,1.812-26.133,5.111C6.533,11.1,2.878,15.144,2.878,19.349S6.52,27.6,13.148,30.721c6.956,3.3,16.245,5.11,26.133,5.11s19.178-1.812,26.133-5.11c6.615-3.124,10.27-7.18,10.27-11.372S72.043,11.1,65.415,7.977C58.459,4.664,49.184,2.853,39.282,2.853m0,35.818c-10.312,0-20.036-1.906-27.375-5.382C4.229,29.652,0,24.7,0,19.335S4.229,9.019,11.907,5.382C19.246,1.906,28.97,0,39.282,0S59.318,1.906,66.656,5.382c7.679,3.637,11.907,8.586,11.907,13.954S74.335,29.652,66.656,33.289c-7.339,3.475-17.063,5.382-27.375,5.382" transform="translate(0 0)" fill="#000001"/>
    </g>
  </g>
</svg>
