<svg xmlns="http://www.w3.org/2000/svg" xmlns:xlink="http://www.w3.org/1999/xlink" width="127.42" height="34.776" viewBox="0 0 127.42 34.776">
  <defs>
    <clipPath id="clip-path">
      <rect id="Rectangle_15" data-name="Rectangle 15" width="127.42" height="34.776" fill="#1d365a"/>
    </clipPath>
    <clipPath id="clip-path-2">
      <rect id="Rectangle_13" data-name="Rectangle 13" width="28.751" height="34.776" fill="#1d365a"/>
    </clipPath>
    <clipPath id="clip-path-3">
      <rect id="Rectangle_14" data-name="Rectangle 14" width="22.243" height="26.726" fill="#1d365a"/>
    </clipPath>
  </defs>
  <g id="Group_119" data-name="Group 119" transform="translate(-0.001 -0.001)">
    <g id="Group_15" data-name="Group 15" transform="translate(0.001 0.001)" clip-path="url(#clip-path)">
      <g id="Group_11" data-name="Group 11" style="mix-blend-mode: normal;isolation: isolate">
        <g id="Group_10" data-name="Group 10">
          <g id="Group_9" data-name="Group 9" clip-path="url(#clip-path-2)">
            <path id="Path_1342" data-name="Path 1342" d="M28.751,30.55a17.388,17.388,0,1,1-.356-26.623,15.119,15.119,0,1,0,.356,26.623" fill="#1d365a"/>
          </g>
        </g>
      </g>
      <g id="Group_14" data-name="Group 14" transform="translate(12.533 4.025)" style="mix-blend-mode: normal;isolation: isolate">
        <g id="Group_13" data-name="Group 13">
          <g id="Group_12" data-name="Group 12" clip-path="url(#clip-path-3)">
            <path id="Path_1343" data-name="Path 1343" d="M168.2,60.234a13.363,13.363,0,0,1-22.243,9.986,11.166,11.166,0,1,0,.209-20.154A13.363,13.363,0,0,1,168.2,60.234" transform="translate(-145.96 -46.87)" fill="#1d365a"/>
          </g>
        </g>
      </g>
      <path id="Path_1344" data-name="Path 1344" d="M104.135,107.884a5.081,5.081,0,0,1-.613,2.031,20.122,20.122,0,0,1-5.334,6.805,11.82,11.82,0,0,1-1.224.856c-.076.047-.287.151-.553.271A9.716,9.716,0,0,1,94.8,99.68a14.571,14.571,0,0,0-3.133,6.085c-.506,2.415.978,3.621,2.8,3.34a19.152,19.152,0,0,0,3.2-.9A37.207,37.207,0,0,1,102,106.874a5.408,5.408,0,0,1,1.1-.127c.757,0,1.072.386,1.038,1.137" transform="translate(-81.568 -91.121)" fill="#1d365a"/>
      <path id="Path_1345" data-name="Path 1345" d="M153.641,98.613a9.715,9.715,0,0,1-8.173,9.591c.2-.181.429-.4.692-.651a22.2,22.2,0,0,0,4.321-6.565,7.111,7.111,0,0,0,.677-2.677c.038-1.993-.9-3.223-3.171-3.256a11.289,11.289,0,0,0-4.038.824q-1.945.714-3.892,1.42a3.489,3.489,0,0,1-1.042.214c-.4.018-.565-.13-.574-.54a5.738,5.738,0,0,1,.445-2.075,16.085,16.085,0,0,1,2.822-4.8,6.019,6.019,0,0,1,1.255-1.152c.317-.031.64-.047.965-.047a9.713,9.713,0,0,1,9.713,9.713" transform="translate(-126.553 -81.266)" fill="#1d365a"/>
      <path id="Path_1346" data-name="Path 1346" d="M473.155,62.016a6.551,6.551,0,0,1-2.717-.561,4.928,4.928,0,0,1-1.963-1.508l1.586-1.76a4.015,4.015,0,0,0,3.191,1.47,3.238,3.238,0,0,0,2.089-.609,1.76,1.76,0,0,0,.754-1.383,1.308,1.308,0,0,0-.058-.4.836.836,0,0,0-.213-.338q-.155-.154-.28-.261a1.988,1.988,0,0,0-.416-.242q-.29-.135-.464-.2l-.57-.222-.59-.232a6.575,6.575,0,0,1-2.311-1.392,2.936,2.936,0,0,1-.841-2.185A3.965,3.965,0,0,1,471.869,49a5.938,5.938,0,0,1,3.916-1.257,6.017,6.017,0,0,1,4.1,1.45l-1.47,1.8a4.074,4.074,0,0,0-2.688-.986,3.193,3.193,0,0,0-1.924.541,1.574,1.574,0,0,0-.744,1.3,1.274,1.274,0,0,0,.5,1.054,6.439,6.439,0,0,0,1.6.822q.715.271,1.054.406a7.888,7.888,0,0,1,.938.483,3.667,3.667,0,0,1,.9.687,3.4,3.4,0,0,1,.541.89,3.026,3.026,0,0,1,.242,1.228,4.108,4.108,0,0,1-1.6,3.268,6.159,6.159,0,0,1-4.09,1.334" transform="translate(-428.248 -43.645)" fill="#1d365a"/>
      <path id="Path_1347" data-name="Path 1347" d="M600.031,95.938a3.2,3.2,0,0,1,2.466,1.015,3.989,3.989,0,0,1,.938,2.814,7.241,7.241,0,0,1-.629,2.978,5.862,5.862,0,0,1-1.982,2.388,5.245,5.245,0,0,1-3.152.977,4.607,4.607,0,0,1-2.011-.425l-.677,3.809h-2.649l2.359-13.3h2.495l-.135.754a5.169,5.169,0,0,1,2.978-1.006m-2.4,7.986a2.6,2.6,0,0,0,2.282-1.209,4.7,4.7,0,0,0,.812-2.678,2.233,2.233,0,0,0-.406-1.421A1.461,1.461,0,0,0,599.1,98.1a3.586,3.586,0,0,0-2.262.909l-.793,4.525a3.5,3.5,0,0,0,1.586.387" transform="translate(-541.473 -87.7)" fill="#1d365a"/>
      <path id="Path_1348" data-name="Path 1348" d="M743.315,98.858a3.514,3.514,0,0,1-.087.774,3.1,3.1,0,0,1-1.054,1.634,3.6,3.6,0,0,1-1.17.571,5.757,5.757,0,0,1-1.711.232h-3.075a1.847,1.847,0,0,0,2.088,1.876,6.024,6.024,0,0,0,3.133-1.025l.793,1.8a7.434,7.434,0,0,1-4.332,1.354,4.116,4.116,0,0,1-3.046-1.093,3.908,3.908,0,0,1-1.092-2.891,6.051,6.051,0,0,1,.387-2.1,7.138,7.138,0,0,1,1.112-1.972,5.416,5.416,0,0,1,1.914-1.5,5.9,5.9,0,0,1,2.62-.58,3.994,3.994,0,0,1,2.523.773,2.566,2.566,0,0,1,1,2.146m-3.713-.909a2.907,2.907,0,0,0-1.886.667,3.916,3.916,0,0,0-1.209,1.692h2.823a1.686,1.686,0,0,0,1.209-.4,1.233,1.233,0,0,0,.416-.919.929.929,0,0,0-.348-.764,1.572,1.572,0,0,0-1.005-.28" transform="translate(-670.756 -87.7)" fill="#1d365a"/>
      <path id="Path_1349" data-name="Path 1349" d="M857.2,106.071a4.184,4.184,0,0,1-2.939-1.044,3.783,3.783,0,0,1-1.141-2.939,6.413,6.413,0,0,1,1.586-4.293A5.353,5.353,0,0,1,859,95.938a4.529,4.529,0,0,1,2.427.638,3.178,3.178,0,0,1,1.4,1.837l-2.166.889a1.73,1.73,0,0,0-1.779-1.2,2.67,2.67,0,0,0-2.272,1.151,4.418,4.418,0,0,0-.841,2.678,1.929,1.929,0,0,0,.512,1.47,1.852,1.852,0,0,0,1.325.483,3.525,3.525,0,0,0,2.669-1.586L862,103.634a5.7,5.7,0,0,1-2.03,1.769,5.806,5.806,0,0,1-2.765.667" transform="translate(-779.866 -87.7)" fill="#1d365a"/>
      <path id="Path_1350" data-name="Path 1350" d="M980.386,68.775l-.754,4.293a1.477,1.477,0,0,0-.039.387q0,1.044,1.083,1.044a3.7,3.7,0,0,0,1.682-.483l.522,1.953a6.616,6.616,0,0,1-3.171.87q-2.785,0-2.785-2.611A5.407,5.407,0,0,1,977,73.3l.773-4.525h-1.47l.329-1.818h1.45l.5-3h2.63l-.5,3h3.133l-.329,1.818Z" transform="translate(-892.473 -58.468)" fill="#1d365a"/>
      <path id="Path_1351" data-name="Path 1351" d="M1071.946,95.938a2.673,2.673,0,0,1,1.431.348l-.87,2.088a2.994,2.994,0,0,0-1.1-.213,4.5,4.5,0,0,0-2.765,1.064l-1.16,6.633h-2.669l1.7-9.669h2.572l-.193,1.063a4.654,4.654,0,0,1,3.055-1.315" transform="translate(-973.377 -87.7)" fill="#1d365a"/>
      <path id="Path_1352" data-name="Path 1352" d="M1170.191,98.866h2.61l-1.7,9.688-2.495-.019.193-1.064a6.685,6.685,0,0,1-3.635,1.3,2.531,2.531,0,0,1-2.117-.87,3.018,3.018,0,0,1-.416-2.456l1.141-6.575h2.649l-1.083,6.169a1.652,1.652,0,0,0,.087,1.189.985.985,0,0,0,.88.358,4.793,4.793,0,0,0,2.765-1.141Z" transform="translate(-1062.727 -90.377)" fill="#1d365a"/>
      <path id="Path_1353" data-name="Path 1353" d="M1303.144,95.957a2.954,2.954,0,0,1,1.963.609,2.228,2.228,0,0,1,.725,1.808,7.345,7.345,0,0,1-.077.909l-1.16,6.575h-2.688l1.064-6.053a5.966,5.966,0,0,0,.1-.773q0-.909-1.064-.909a4.511,4.511,0,0,0-2.649,1.083l-1.18,6.652h-2.688l1.1-6.188a3.916,3.916,0,0,0,.058-.638q0-.909-1.006-.909a4.526,4.526,0,0,0-2.688,1.18l-1.16,6.556H1289.1l1.7-9.669h2.495l-.213,1.2a6.4,6.4,0,0,1,3.79-1.45,2.2,2.2,0,0,1,2.4,1.47,6.667,6.667,0,0,1,3.868-1.45" transform="translate(-1178.412 -87.7)" fill="#1d365a"/>
      <path id="Path_1354" data-name="Path 1354" d="M621.326,279.09h-2.14l-.206,1.159h1.865l-.144.83h-1.865l-.37,2.078h-.974l.8-4.5a.47.47,0,0,1,.171-.288.482.482,0,0,1,.309-.11h2.709Z" transform="translate(-564.469 -254.366)" fill="#1d365a"/>
      <path id="Path_1355" data-name="Path 1355" d="M660.461,282.426l.61-3.429h.94l-.624,3.429Zm1.173-3.841a.439.439,0,0,1-.48-.466.661.661,0,0,1,.175-.473.6.6,0,0,1,.456-.185.478.478,0,0,1,.363.137.438.438,0,0,1,.123.329.672.672,0,0,1-.171.47.6.6,0,0,1-.466.189" transform="translate(-603.749 -253.636)" fill="#1d365a"/>
      <path id="Path_1356" data-name="Path 1356" d="M683.98,279.658a1.152,1.152,0,0,1,.885.353,1.348,1.348,0,0,1,.329.957,2.4,2.4,0,0,1-.147.833,2.368,2.368,0,0,1-.422.724,1.936,1.936,0,0,1-.713.514,2.425,2.425,0,0,1-.981.192,2.245,2.245,0,0,1-1.385-.384l.8-4.588h.933l-.3,1.721a1.8,1.8,0,0,1,1.008-.322m-1.022,2.8a1.139,1.139,0,0,0,.933-.432,1.507,1.507,0,0,0,.35-.974.658.658,0,0,0-.158-.473.545.545,0,0,0-.412-.165,1.242,1.242,0,0,0-.83.343l-.288,1.632a1.12,1.12,0,0,0,.4.069" transform="translate(-623.022 -254.366)" fill="#1d365a"/>
      <path id="Path_1357" data-name="Path 1357" d="M729.921,294.313a.948.948,0,0,1,.508.123l-.309.741a1.061,1.061,0,0,0-.391-.075,1.6,1.6,0,0,0-.981.377l-.411,2.352h-.946l.6-3.429h.912l-.069.377a1.651,1.651,0,0,1,1.084-.466" transform="translate(-664.931 -269.041)" fill="#1d365a"/>
      <path id="Path_1358" data-name="Path 1358" d="M763.444,295.349a1.248,1.248,0,0,1-.031.274,1.1,1.1,0,0,1-.374.58,1.28,1.28,0,0,1-.415.2,2.042,2.042,0,0,1-.607.082h-1.09a.655.655,0,0,0,.741.665,2.136,2.136,0,0,0,1.111-.364l.281.638a2.637,2.637,0,0,1-1.536.48,1.46,1.46,0,0,1-1.08-.388,1.385,1.385,0,0,1-.388-1.025,2.143,2.143,0,0,1,.137-.744,2.531,2.531,0,0,1,.394-.7,1.922,1.922,0,0,1,.679-.532,2.09,2.09,0,0,1,.929-.206,1.417,1.417,0,0,1,.9.274.91.91,0,0,1,.353.761m-1.317-.322a1.031,1.031,0,0,0-.669.237,1.389,1.389,0,0,0-.429.6h1a.6.6,0,0,0,.429-.141.437.437,0,0,0,.147-.326.33.33,0,0,0-.123-.271.558.558,0,0,0-.357-.1" transform="translate(-694.792 -269.041)" fill="#1d365a"/>
      <path id="Path_1359" data-name="Path 1359" d="M824.364,282.283a2.037,2.037,0,0,1-1.478-.514,1.939,1.939,0,0,1-.531-1.461,3.279,3.279,0,0,1,.2-1.114,3.412,3.412,0,0,1,.549-.988,2.6,2.6,0,0,1,.909-.713,2.746,2.746,0,0,1,1.221-.271,1.97,1.97,0,0,1,1.145.326,1.619,1.619,0,0,1,.645.9l-.816.35a1.038,1.038,0,0,0-1.056-.72,1.581,1.581,0,0,0-.779.2,1.64,1.64,0,0,0-.569.511,2.57,2.57,0,0,0-.333.686,2.454,2.454,0,0,0-.116.741,1.225,1.225,0,0,0,.3.881,1.1,1.1,0,0,0,.833.312,2.124,2.124,0,0,0,1.481-.706l.569.6a3.034,3.034,0,0,1-.957.713,2.737,2.737,0,0,1-1.211.274" transform="translate(-751.741 -253.418)" fill="#1d365a"/>
      <path id="Path_1360" data-name="Path 1360" d="M877.426,297.907a1.361,1.361,0,0,1-1.481-1.44,2.693,2.693,0,0,1,.034-.4,2.173,2.173,0,0,1,.676-1.279,1.867,1.867,0,0,1,1.293-.477,1.468,1.468,0,0,1,1.111.394,1.423,1.423,0,0,1,.377,1.025,2.469,2.469,0,0,1-.7,1.694,1.879,1.879,0,0,1-1.307.48m.048-.768a.862.862,0,0,0,.655-.281,1.551,1.551,0,0,0,.36-.8,1.787,1.787,0,0,0,.034-.315.742.742,0,0,0-.151-.494.578.578,0,0,0-.466-.178.866.866,0,0,0-.651.281,1.556,1.556,0,0,0-.363.816,1.6,1.6,0,0,0-.027.3q0,.665.61.665" transform="translate(-800.729 -269.041)" fill="#1d365a"/>
      <path id="Path_1361" data-name="Path 1361" d="M925.093,294.32a1.048,1.048,0,0,1,.7.216.79.79,0,0,1,.257.641,2.631,2.631,0,0,1-.028.322l-.412,2.332h-.953l.377-2.147a2.113,2.113,0,0,0,.034-.274q0-.322-.377-.322a1.6,1.6,0,0,0-.94.384l-.418,2.359h-.953l.391-2.195a1.382,1.382,0,0,0,.021-.226q0-.322-.357-.322a1.6,1.6,0,0,0-.953.418l-.412,2.325h-.953l.6-3.429h.885l-.075.425a2.269,2.269,0,0,1,1.344-.514.78.78,0,0,1,.85.521,2.366,2.366,0,0,1,1.372-.514" transform="translate(-841.106 -269.041)" fill="#1d365a"/>
      <path id="Path_1362" data-name="Path 1362" d="M993.366,294.313a1.134,1.134,0,0,1,.874.36,1.414,1.414,0,0,1,.333,1,2.567,2.567,0,0,1-.223,1.056,2.079,2.079,0,0,1-.7.847,1.86,1.86,0,0,1-1.118.346,1.633,1.633,0,0,1-.713-.151l-.24,1.351h-.94l.837-4.718h.885l-.048.267a1.834,1.834,0,0,1,1.056-.357m-.85,2.832a.92.92,0,0,0,.809-.428,1.667,1.667,0,0,0,.288-.95.792.792,0,0,0-.144-.5.518.518,0,0,0-.432-.182,1.272,1.272,0,0,0-.8.322l-.281,1.6a1.243,1.243,0,0,0,.562.137" transform="translate(-905.572 -269.041)" fill="#1d365a"/>
      <path id="Path_1363" data-name="Path 1363" d="M1043.748,294.4h.857l-.6,3.429h-.85l.062-.343a1.479,1.479,0,0,1-1.056.425,1.22,1.22,0,0,1-.936-.37,1.417,1.417,0,0,1-.346-1.008,2.641,2.641,0,0,1,.213-1.042,2.059,2.059,0,0,1,.655-.84,1.616,1.616,0,0,1,1.011-.34,1.037,1.037,0,0,1,.933.446Zm-1.31,2.75a.848.848,0,0,0,.473-.134.92.92,0,0,0,.319-.35,2.06,2.06,0,0,0,.172-.442,1.811,1.811,0,0,0,.058-.453q0-.693-.631-.693a.843.843,0,0,0-.768.432,1.811,1.811,0,0,0-.26.953q.006.686.638.686" transform="translate(-951.496 -269.042)" fill="#1d365a"/>
      <path id="Path_1364" data-name="Path 1364" d="M1089.658,294.313a.972.972,0,0,1,.669.216.814.814,0,0,1,.243.641,2.288,2.288,0,0,1-.034.384l-.4,2.277h-.953l.364-2.03a1.889,1.889,0,0,0,.048-.377q0-.336-.37-.336a1.688,1.688,0,0,0-.967.377l-.411,2.366h-.96l.6-3.429h.885l-.062.363a2.424,2.424,0,0,1,1.351-.453" transform="translate(-993.552 -269.041)" fill="#1d365a"/>
      <path id="Path_1365" data-name="Path 1365" d="M1135.359,295.352h.919l-.507,2.894a2.043,2.043,0,0,1-2.153,1.948,2.228,2.228,0,0,1-.974-.192l.24-.713a2.16,2.16,0,0,0,.741.137,1.146,1.146,0,0,0,.789-.25,1.387,1.387,0,0,0,.4-.73,1.861,1.861,0,0,1-1.111.411,1,1,0,0,1-.7-.233.835.835,0,0,1-.257-.652,1.514,1.514,0,0,1,.027-.295l.411-2.325h.905l-.377,2.112a1.366,1.366,0,0,0-.034.267q0,.35.4.35a1.573,1.573,0,0,0,.857-.329Z" transform="translate(-1035.385 -269.991)" fill="#1d365a"/>
      <path id="Path_1366" data-name="Path 1366" d="M1197.6,283.157a.322.322,0,0,1-.264-.113.343.343,0,0,1-.065-.285l.8-4.5h.967l-.713,4.074h2.119l-.144.823Z" transform="translate(-1094.457 -254.366)" fill="#1d365a"/>
      <path id="Path_1367" data-name="Path 1367" d="M1238.231,282.426l.61-3.429h.939l-.624,3.429Zm1.173-3.841a.438.438,0,0,1-.48-.466.662.662,0,0,1,.175-.473.6.6,0,0,1,.456-.185.478.478,0,0,1,.364.137.438.438,0,0,1,.123.329.673.673,0,0,1-.171.47.6.6,0,0,1-.467.189" transform="translate(-1131.907 -253.636)" fill="#1d365a"/>
      <path id="Path_1368" data-name="Path 1368" d="M1263.814,294.32a1.047,1.047,0,0,1,.7.216.79.79,0,0,1,.257.641,2.578,2.578,0,0,1-.028.322l-.411,2.332h-.953l.377-2.147a2.1,2.1,0,0,0,.034-.274q0-.322-.377-.322a1.6,1.6,0,0,0-.94.384l-.418,2.359h-.953l.391-2.195a1.386,1.386,0,0,0,.02-.226q0-.322-.357-.322a1.6,1.6,0,0,0-.953.418l-.412,2.325h-.953l.6-3.429h.885l-.075.425a2.269,2.269,0,0,1,1.344-.514.779.779,0,0,1,.85.521,2.366,2.366,0,0,1,1.372-.514" transform="translate(-1150.741 -269.041)" fill="#1d365a"/>
      <path id="Path_1369" data-name="Path 1369" d="M1331.756,282.426l.61-3.429h.939l-.624,3.429Zm1.173-3.841a.438.438,0,0,1-.48-.466.661.661,0,0,1,.175-.473.6.6,0,0,1,.456-.185.478.478,0,0,1,.364.137.438.438,0,0,1,.123.329.673.673,0,0,1-.171.47.6.6,0,0,1-.466.189" transform="translate(-1217.401 -253.636)" fill="#1d365a"/>
      <path id="Path_1370" data-name="Path 1370" d="M1356.123,284.68l-.267,1.522a.529.529,0,0,0-.014.137q0,.37.384.37a1.314,1.314,0,0,0,.6-.171l.185.693a2.347,2.347,0,0,1-1.125.309q-.987,0-.988-.926a1.943,1.943,0,0,1,.027-.329l.275-1.6h-.521l.117-.645h.514l.178-1.063h.933l-.178,1.063h1.111l-.117.645Z" transform="translate(-1238.353 -258.674)" fill="#1d365a"/>
      <path id="Path_1371" data-name="Path 1371" d="M1390.013,295.349a1.234,1.234,0,0,1-.031.274,1.1,1.1,0,0,1-.374.58,1.276,1.276,0,0,1-.415.2,2.041,2.041,0,0,1-.607.082H1387.5a.655.655,0,0,0,.741.665,2.136,2.136,0,0,0,1.111-.364l.281.638a2.637,2.637,0,0,1-1.536.48,1.459,1.459,0,0,1-1.08-.388,1.385,1.385,0,0,1-.388-1.025,2.145,2.145,0,0,1,.137-.744,2.534,2.534,0,0,1,.394-.7,1.922,1.922,0,0,1,.679-.532,2.089,2.089,0,0,1,.929-.206,1.417,1.417,0,0,1,.9.274.91.91,0,0,1,.353.761m-1.317-.322a1.032,1.032,0,0,0-.669.237,1.388,1.388,0,0,0-.428.6h1a.6.6,0,0,0,.429-.141.437.437,0,0,0,.148-.326.329.329,0,0,0-.124-.271.557.557,0,0,0-.357-.1" transform="translate(-1267.558 -269.041)" fill="#1d365a"/>
      <path id="Path_1372" data-name="Path 1372" d="M1431.994,278.259h.926l-.864,4.9h-.878l.055-.295a1.748,1.748,0,0,1-1.056.377,1.142,1.142,0,0,1-.885-.367,1.451,1.451,0,0,1-.336-1.018,2.587,2.587,0,0,1,.216-1.049,2.02,2.02,0,0,1,.675-.83,1.787,1.787,0,0,1,1.084-.336,1.317,1.317,0,0,1,.782.233Zm-2.092,3.532q0,.686.583.686a1.236,1.236,0,0,0,.837-.37l.254-1.454a.872.872,0,0,0-.61-.24.881.881,0,0,0-.792.425,1.737,1.737,0,0,0-.271.953" transform="translate(-1306.255 -254.366)" fill="#1d365a"/>
    </g>
  </g>
</svg>
