<svg id="Group_29" data-name="Group 29" xmlns="http://www.w3.org/2000/svg" xmlns:xlink="http://www.w3.org/1999/xlink" width="133.542" height="52.85" viewBox="0 0 133.542 52.85">
  <defs>
    <clipPath id="clip-path">
      <rect id="Rectangle_28" data-name="Rectangle 28" width="133.542" height="52.85" fill="none"/>
    </clipPath>
  </defs>
  <g id="Group_28" data-name="Group 28" transform="translate(0 0)" clip-path="url(#clip-path)">
    <path id="Path_1409" data-name="Path 1409" d="M37.635,18.961H44.64l2.841,4.81a55.516,55.516,0,0,1,3.856,7.436,8.928,8.928,0,0,1-.078-.937,21.379,21.379,0,0,1,.545-3.406l1.638-7.9H59.63L55.309,39.8H49.548l-4.986-8a25.13,25.13,0,0,1-2.568-5.189,8.159,8.159,0,0,1-.237,2.97L39.618,39.8h-6.3Z" transform="translate(14.216 8.091)" fill="#062341"/>
    <path id="Path_1410" data-name="Path 1410" d="M55.768,18.961h7.513l-1.6,7.689h6.776l1.6-7.689h7.515L73.248,39.807H65.693l1.752-8.373H60.713l-1.753,8.373H51.446Z" transform="translate(21.954 8.091)" fill="#062341"/>
    <path id="Path_1411" data-name="Path 1411" d="M73.9,18.961h7.362L76.941,39.8H69.579Z" transform="translate(29.691 8.091)" fill="#062341"/>
    <path id="Path_1412" data-name="Path 1412" d="M89.879,18.618c4.05,0,6.3.846,7.786,1.691a7.13,7.13,0,0,1,3.306,3.467L94.28,25.154a2.04,2.04,0,0,0-1.173-1.347,5.853,5.853,0,0,0-2.762-.656c-2.1,0-2.532.876-2.532,1.378,0,.718.895,1.153,2.376,1.562l4.437,1.25c2.725.785,5.3,2.659,5.3,5.531,0,3.658-3.627,7.253-11.448,7.253A17.747,17.747,0,0,1,79.713,38.1a7.94,7.94,0,0,1-3.386-3.787L83.8,33.124c.351.718,1.13,2.219,4.788,2.219,2.411,0,3.033-.839,3.033-1.532,0-.808-.895-1.157-2.762-1.684L86.1,31.312c-3.505-1.06-5.143-1.967-6.038-3.535A4.775,4.775,0,0,1,79.44,25.4c0-2,1.324-6.781,10.439-6.781" transform="translate(32.571 7.944)" fill="#062341"/>
    <path id="Path_1413" data-name="Path 1413" d="M33.678,37.921h-.409l.225-1.375-.825-1.908H33.1l.672,1.554,1.12-1.554h.4L33.9,36.544Z" transform="translate(13.941 14.78)" fill="#032442"/>
    <path id="Path_1414" data-name="Path 1414" d="M33.655,37.8h-.361l.2-1.3-.728-1.8h.384l.594,1.465.989-1.465h.351l-1.228,1.8Z" transform="translate(13.982 14.808)" fill="none" stroke="#032442" stroke-width="0.23"/>
    <path id="Path_1415" data-name="Path 1415" d="M35.327,37.456a.642.642,0,0,0,.589-.382,1.814,1.814,0,0,0,.208-.879.725.725,0,0,0-.175-.544.58.58,0,0,0-.415-.167.642.642,0,0,0-.585.381,1.769,1.769,0,0,0-.205.855.834.834,0,0,0,.158.551.532.532,0,0,0,.425.185m-.017.3a.864.864,0,0,1-.708-.317,1.241,1.241,0,0,1-.258-.809,1.6,1.6,0,0,1,.34-1,1.048,1.048,0,0,1,.87-.442.877.877,0,0,1,.7.3,1.231,1.231,0,0,1,.261.829,1.6,1.6,0,0,1-.335.989,1.036,1.036,0,0,1-.87.447" transform="translate(14.656 15.016)" fill="#032442"/>
    <path id="Path_1416" data-name="Path 1416" d="M35.308,37.358A.587.587,0,0,0,35.846,37a1.7,1.7,0,0,0,.19-.815.675.675,0,0,0-.16-.5.523.523,0,0,0-.378-.156.585.585,0,0,0-.535.352,1.658,1.658,0,0,0-.188.793.772.772,0,0,0,.146.509A.482.482,0,0,0,35.308,37.358Zm-.016.278a.787.787,0,0,1-.646-.292,1.167,1.167,0,0,1-.235-.752,1.5,1.5,0,0,1,.31-.927.958.958,0,0,1,.795-.409.791.791,0,0,1,.639.282,1.145,1.145,0,0,1,.24.768,1.5,1.5,0,0,1-.307.917A.944.944,0,0,1,35.293,37.636Z" transform="translate(14.684 15.044)" fill="none" stroke="#032442" stroke-width="0.23"/>
    <path id="Path_1417" data-name="Path 1417" d="M38.378,35.229l-.4,2.438h-.321l.1-.586a.975.975,0,0,1-.875.655.662.662,0,0,1-.372-.1.632.632,0,0,1-.224-.243.8.8,0,0,1-.068-.352,2.934,2.934,0,0,1,.053-.445l.23-1.364h.372l-.247,1.481a2.8,2.8,0,0,0-.043.311.4.4,0,0,0,.11.3.387.387,0,0,0,.287.108.71.71,0,0,0,.554-.331,2.071,2.071,0,0,0,.354-.932l.154-.936Z" transform="translate(15.451 15.033)" fill="#032442"/>
    <path id="Path_1418" data-name="Path 1418" d="M38.238,35.295l-.365,2.257h-.291l.086-.544a.882.882,0,0,1-.792.6.586.586,0,0,1-.335-.094.572.572,0,0,1-.2-.224.759.759,0,0,1-.061-.327,2.864,2.864,0,0,1,.047-.411l.208-1.263h.337l-.223,1.371a2.645,2.645,0,0,0-.039.287.377.377,0,0,0,.1.277.347.347,0,0,0,.26.1.642.642,0,0,0,.5-.307,1.957,1.957,0,0,0,.32-.862l.138-.866Z" transform="translate(15.48 15.061)" fill="none" stroke="#032442" stroke-width="0.23"/>
    <path id="Path_1419" data-name="Path 1419" d="M38.319,37.689h-.371l.4-2.438h.368l-.114.639a1.669,1.669,0,0,1,.4-.542.773.773,0,0,1,.5-.167c.024,0,.051,0,.081,0l-.061.384h-.09a.678.678,0,0,0-.36.084.9.9,0,0,0-.253.237,1.833,1.833,0,0,0-.211.382,4.364,4.364,0,0,0-.2.873Z" transform="translate(16.193 15.012)" fill="#032442"/>
    <path id="Path_1420" data-name="Path 1420" d="M38.346,37.567h-.321l.35-2.257h.32l-.1.592a1.515,1.515,0,0,1,.35-.5.64.64,0,0,1,.431-.156.607.607,0,0,1,.07,0l-.053.355h-.078A.576.576,0,0,0,39,35.68a.806.806,0,0,0-.218.221,1.8,1.8,0,0,0-.184.354,4.327,4.327,0,0,0-.174.808Z" transform="translate(16.226 15.04)" fill="none" stroke="#032442" stroke-width="0.23"/>
    <path id="Path_1421" data-name="Path 1421" d="M41.682,36.463c-.114-.01-.223-.014-.327-.014-.691,0-1.037.2-1.037.592a.393.393,0,0,0,.113.292.428.428,0,0,0,.314.111.824.824,0,0,0,.591-.277,1.285,1.285,0,0,0,.347-.7m.231,1.227h-.377c0-.05,0-.091,0-.123a1.414,1.414,0,0,1,.043-.354,1.063,1.063,0,0,1-.9.544.76.76,0,0,1-.552-.208.7.7,0,0,1-.214-.524.75.75,0,0,1,.308-.6,1.905,1.905,0,0,1,1.15-.251c.051,0,.173.006.364.014a1.614,1.614,0,0,0,.026-.254q0-.462-.552-.462a.722.722,0,0,0-.7.411l-.351-.151a1.047,1.047,0,0,1,1.022-.552,1.214,1.214,0,0,1,.683.181.579.579,0,0,1,.275.512q0,.135-.183,1.266a3.139,3.139,0,0,0-.049.449c0,.016,0,.05.007.1" transform="translate(17.03 15.011)" fill="#032442"/>
    <path id="Path_1422" data-name="Path 1422" d="M41.6,36.437c-.1-.01-.2-.014-.3-.014-.632,0-.949.184-.949.549a.369.369,0,0,0,.1.273.388.388,0,0,0,.287.1.747.747,0,0,0,.541-.257A1.2,1.2,0,0,0,41.6,36.437Zm.211,1.137h-.345c0-.046,0-.084,0-.114a1.352,1.352,0,0,1,.04-.328.97.97,0,0,1-.826.505.687.687,0,0,1-.5-.194.654.654,0,0,1-.2-.485.7.7,0,0,1,.282-.559,1.731,1.731,0,0,1,1.053-.231c.046,0,.157,0,.332.013a1.528,1.528,0,0,0,.023-.237q0-.428-.505-.428a.658.658,0,0,0-.636.381l-.322-.14a.957.957,0,0,1,.936-.514,1.1,1.1,0,0,1,.625.168.542.542,0,0,1,.251.477q0,.124-.167,1.173a3.191,3.191,0,0,0-.044.418C41.8,37.492,41.805,37.524,41.81,37.574Z" transform="translate(17.058 15.039)" fill="none" stroke="#032442" stroke-width="0.23"/>
    <path id="Path_1423" data-name="Path 1423" d="M43.856,36.034l-.364.08a.75.75,0,0,0-.188-.451.484.484,0,0,0-.36-.156.6.6,0,0,0-.564.387,1.91,1.91,0,0,0-.185.839.779.779,0,0,0,.156.526.5.5,0,0,0,.392.18c.287,0,.508-.2.665-.588l.3.116a1.184,1.184,0,0,1-.388.588.964.964,0,0,1-.618.215.756.756,0,0,1-.675-.355,1.4,1.4,0,0,1-.231-.785,1.693,1.693,0,0,1,.32-1,.979.979,0,0,1,.836-.455.866.866,0,0,1,.615.24.942.942,0,0,1,.287.619" transform="translate(17.837 15.01)" fill="#032442"/>
    <path id="Path_1424" data-name="Path 1424" d="M43.728,36.037l-.33.074a.708.708,0,0,0-.171-.418.43.43,0,0,0-.325-.144.539.539,0,0,0-.509.358,1.805,1.805,0,0,0-.168.778.736.736,0,0,0,.14.489.447.447,0,0,0,.357.167c.258,0,.458-.183.6-.545l.275.107a1.11,1.11,0,0,1-.351.546.866.866,0,0,1-.559.2.676.676,0,0,1-.609-.328,1.329,1.329,0,0,1-.21-.729,1.6,1.6,0,0,1,.288-.929.878.878,0,0,1,.756-.421.771.771,0,0,1,.556.223A.876.876,0,0,1,43.728,36.037Z" transform="translate(17.865 15.038)" fill="none" stroke="#032442" stroke-width="0.23"/>
    <path id="Path_1425" data-name="Path 1425" d="M45.44,36.034l-.364.08a.75.75,0,0,0-.188-.451.484.484,0,0,0-.36-.156.6.6,0,0,0-.564.387,1.91,1.91,0,0,0-.185.839.779.779,0,0,0,.156.526.5.5,0,0,0,.392.18c.287,0,.508-.2.665-.588l.3.116a1.184,1.184,0,0,1-.388.588.964.964,0,0,1-.618.215.756.756,0,0,1-.675-.355,1.4,1.4,0,0,1-.231-.785,1.693,1.693,0,0,1,.32-1,.979.979,0,0,1,.836-.455.866.866,0,0,1,.615.24.942.942,0,0,1,.287.619" transform="translate(18.513 15.01)" fill="#032442"/>
    <path id="Path_1426" data-name="Path 1426" d="M45.312,36.037l-.33.074a.708.708,0,0,0-.171-.418.43.43,0,0,0-.325-.144.539.539,0,0,0-.509.358,1.805,1.805,0,0,0-.168.778.736.736,0,0,0,.14.489.447.447,0,0,0,.357.167c.258,0,.458-.183.6-.545l.275.107a1.111,1.111,0,0,1-.351.546.866.866,0,0,1-.559.2.676.676,0,0,1-.609-.328,1.329,1.329,0,0,1-.21-.729,1.6,1.6,0,0,1,.288-.929.878.878,0,0,1,.756-.421.771.771,0,0,1,.556.223A.876.876,0,0,1,45.312,36.037Z" transform="translate(18.541 15.038)" fill="none" stroke="#032442" stroke-width="0.23"/>
    <path id="Path_1427" data-name="Path 1427" d="M45.448,36.226h1.367q0-.077,0-.116a.654.654,0,0,0-.166-.471.569.569,0,0,0-.432-.177.671.671,0,0,0-.511.227,1.03,1.03,0,0,0-.263.536m1.616.892a1.148,1.148,0,0,1-1.04.639.978.978,0,0,1-.739-.3A1.131,1.131,0,0,1,45,36.646a1.57,1.57,0,0,1,.355-1.05,1.112,1.112,0,0,1,.883-.421,1.076,1.076,0,0,1,.484.113.788.788,0,0,1,.348.354,1.253,1.253,0,0,1,.124.582,2.076,2.076,0,0,1-.021.28H45.4a1.5,1.5,0,0,0-.014.19.826.826,0,0,0,.173.542.582.582,0,0,0,.471.208.742.742,0,0,0,.368-.093,1.176,1.176,0,0,0,.355-.381Z" transform="translate(19.203 15.01)" fill="#032442"/>
    <path id="Path_1428" data-name="Path 1428" d="M45.476,36.215h1.248q0-.071,0-.107a.613.613,0,0,0-.151-.437.516.516,0,0,0-.4-.164.6.6,0,0,0-.467.211A.944.944,0,0,0,45.476,36.215Zm1.477.828a1.049,1.049,0,0,1-.95.594.884.884,0,0,1-.675-.278,1.057,1.057,0,0,1-.263-.753,1.47,1.47,0,0,1,.325-.974,1.012,1.012,0,0,1,.808-.389.955.955,0,0,1,.441.1.727.727,0,0,1,.32.328,1.179,1.179,0,0,1,.114.541,2,2,0,0,1-.02.258H45.432a1.532,1.532,0,0,0-.013.175.768.768,0,0,0,.158.5.526.526,0,0,0,.429.193.668.668,0,0,0,.337-.086,1.064,1.064,0,0,0,.325-.354Z" transform="translate(19.231 15.038)" fill="none" stroke="#032442" stroke-width="0.23"/>
    <path id="Path_1429" data-name="Path 1429" d="M48.7,35.768l-.308.133a.616.616,0,0,0-.632-.409.506.506,0,0,0-.345.113.339.339,0,0,0-.131.265.265.265,0,0,0,.1.23,1.189,1.189,0,0,0,.4.14l.15.036a1.905,1.905,0,0,1,.388.126.589.589,0,0,1,.233.22.619.619,0,0,1,.1.342.718.718,0,0,1-.253.554.989.989,0,0,1-.691.23,1.426,1.426,0,0,1-.586-.123,1.041,1.041,0,0,1-.471-.542l.344-.117a.7.7,0,0,0,.726.481.63.63,0,0,0,.411-.12.375.375,0,0,0,.147-.3.3.3,0,0,0-.087-.225.921.921,0,0,0-.385-.154l-.127-.031a2.259,2.259,0,0,1-.425-.137A.64.64,0,0,1,47,36.26a.576.576,0,0,1-.1-.33.682.682,0,0,1,.233-.519,1.044,1.044,0,0,1,1.567.357" transform="translate(19.904 15.019)" fill="#032442"/>
    <path id="Path_1430" data-name="Path 1430" d="M48.544,35.792l-.273.123a.542.542,0,0,0-.556-.38.44.44,0,0,0-.305.1.322.322,0,0,0-.116.247.254.254,0,0,0,.088.213,1.02,1.02,0,0,0,.35.13l.131.033a1.532,1.532,0,0,1,.344.117.527.527,0,0,1,.205.2.608.608,0,0,1,.083.318.68.68,0,0,1-.223.512.846.846,0,0,1-.608.213,1.207,1.207,0,0,1-.519-.114.944.944,0,0,1-.415-.5l.3-.11a.613.613,0,0,0,.641.447.541.541,0,0,0,.364-.111.356.356,0,0,0,.128-.28.282.282,0,0,0-.077-.208.787.787,0,0,0-.34-.143l-.111-.029a1.919,1.919,0,0,1-.377-.128.557.557,0,0,1-.218-.2.547.547,0,0,1-.087-.307.647.647,0,0,1,.2-.481.763.763,0,0,1,.558-.2A.781.781,0,0,1,48.544,35.792Z" transform="translate(19.941 15.046)" fill="none" stroke="#032442" stroke-width="0.23"/>
    <path id="Path_1431" data-name="Path 1431" d="M50.278,35.768l-.308.133a.616.616,0,0,0-.632-.409.508.508,0,0,0-.345.113.339.339,0,0,0-.131.265.265.265,0,0,0,.1.23,1.189,1.189,0,0,0,.4.14l.15.036a1.905,1.905,0,0,1,.388.126.589.589,0,0,1,.233.22.619.619,0,0,1,.1.342.718.718,0,0,1-.253.554.989.989,0,0,1-.691.23,1.426,1.426,0,0,1-.586-.123,1.041,1.041,0,0,1-.471-.542l.344-.117a.7.7,0,0,0,.726.481.63.63,0,0,0,.411-.12.375.375,0,0,0,.147-.3.3.3,0,0,0-.087-.225.912.912,0,0,0-.385-.154l-.127-.031a2.259,2.259,0,0,1-.425-.137.64.64,0,0,1-.248-.215.576.576,0,0,1-.1-.33.682.682,0,0,1,.233-.519,1.044,1.044,0,0,1,1.567.357" transform="translate(20.579 15.019)" fill="#032442"/>
    <path id="Path_1432" data-name="Path 1432" d="M50.124,35.792l-.273.123a.542.542,0,0,0-.556-.38.44.44,0,0,0-.305.1.322.322,0,0,0-.116.247.254.254,0,0,0,.088.213,1.02,1.02,0,0,0,.35.13l.131.033a1.532,1.532,0,0,1,.344.117.527.527,0,0,1,.205.2.608.608,0,0,1,.083.318.68.68,0,0,1-.223.512.846.846,0,0,1-.608.213,1.207,1.207,0,0,1-.519-.114.944.944,0,0,1-.415-.5l.3-.11a.613.613,0,0,0,.641.447.541.541,0,0,0,.364-.111.356.356,0,0,0,.128-.28.282.282,0,0,0-.077-.208.787.787,0,0,0-.34-.143l-.111-.029a1.919,1.919,0,0,1-.377-.128.557.557,0,0,1-.218-.2.547.547,0,0,1-.087-.307.647.647,0,0,1,.2-.481.763.763,0,0,1,.558-.2A.781.781,0,0,1,50.124,35.792Z" transform="translate(20.616 15.046)" fill="none" stroke="#032442" stroke-width="0.23"/>
    <path id="Path_1433" data-name="Path 1433" d="M51.485,35.709l-.221,1.32a2.218,2.218,0,0,0-.039.3q0,.27.3.27c.071,0,.18-.009.328-.024l-.039.3-.068.009c-.131.014-.228.021-.29.021-.4,0-.6-.18-.6-.536a3.584,3.584,0,0,1,.061-.505l.191-1.157h-.367l.05-.294h.375l.094-.588.364-.034-.1.622h.545l-.049.294Z" transform="translate(21.656 14.847)" fill="#032442"/>
    <path id="Path_1434" data-name="Path 1434" d="M51.441,35.724l-.185,1.236a2.345,2.345,0,0,0-.033.284.225.225,0,0,0,.255.253,2.715,2.715,0,0,0,.274-.023l-.031.281s-.02,0-.057.007a2.387,2.387,0,0,1-.243.02.443.443,0,0,1-.5-.5,3.8,3.8,0,0,1,.051-.472l.16-1.083h-.307l.041-.274h.315l.078-.552.3-.031-.083.584h.457l-.041.274Z" transform="translate(21.688 14.878)" fill="none" stroke="#032442" stroke-width="0.23"/>
    <path id="Path_1435" data-name="Path 1435" d="M52.8,37.456a.645.645,0,0,0,.591-.382,1.83,1.83,0,0,0,.207-.879.725.725,0,0,0-.175-.544A.58.58,0,0,0,53,35.484a.642.642,0,0,0-.585.381,1.769,1.769,0,0,0-.205.855.834.834,0,0,0,.158.551.532.532,0,0,0,.425.185m-.017.3a.864.864,0,0,1-.708-.317,1.241,1.241,0,0,1-.258-.809,1.6,1.6,0,0,1,.34-1,1.048,1.048,0,0,1,.87-.442.877.877,0,0,1,.7.3,1.231,1.231,0,0,1,.261.829,1.6,1.6,0,0,1-.335.989,1.036,1.036,0,0,1-.87.447" transform="translate(22.111 15.016)" fill="#032442"/>
    <path id="Path_1436" data-name="Path 1436" d="M52.778,37.358A.592.592,0,0,0,53.319,37a1.728,1.728,0,0,0,.188-.815.675.675,0,0,0-.161-.5.523.523,0,0,0-.378-.156.585.585,0,0,0-.535.352,1.674,1.674,0,0,0-.188.793.772.772,0,0,0,.146.509A.482.482,0,0,0,52.778,37.358Zm-.014.278a.788.788,0,0,1-.648-.292,1.166,1.166,0,0,1-.234-.752,1.5,1.5,0,0,1,.308-.927.958.958,0,0,1,.795-.409.791.791,0,0,1,.639.282,1.145,1.145,0,0,1,.24.768,1.5,1.5,0,0,1-.307.917A.943.943,0,0,1,52.764,37.636Z" transform="translate(22.14 15.044)" fill="none" stroke="#032442" stroke-width="0.23"/>
    <path id="Path_1437" data-name="Path 1437" d="M55.309,34.638l-.214,1.3a.943.943,0,0,1,.8-.524.7.7,0,0,1,.488.181.636.636,0,0,1,.2.494,2.144,2.144,0,0,1-.036.334l-.25,1.5h-.365l.247-1.5a1.71,1.71,0,0,0,.029-.3.381.381,0,0,0-.4-.414.7.7,0,0,0-.524.3,1.916,1.916,0,0,0-.351.907l-.164,1H54.4l.541-3.283Z" transform="translate(23.213 14.781)" fill="#032442"/>
    <path id="Path_1438" data-name="Path 1438" d="M55.3,34.7l-.2,1.226a.855.855,0,0,1,.728-.494.6.6,0,0,1,.622.636,2.236,2.236,0,0,1-.033.315L56.2,37.8h-.33l.223-1.412a1.817,1.817,0,0,0,.027-.282.386.386,0,0,0-.1-.287.35.35,0,0,0-.26-.1.627.627,0,0,0-.475.285,1.842,1.842,0,0,0-.318.856l-.15.943h-.335l.492-3.1Z" transform="translate(23.246 14.808)" fill="none" stroke="#032442" stroke-width="0.23"/>
    <path id="Path_1439" data-name="Path 1439" d="M56.668,36.226h1.367q0-.077,0-.116a.654.654,0,0,0-.165-.471.569.569,0,0,0-.432-.177.671.671,0,0,0-.511.227,1.03,1.03,0,0,0-.263.536m1.616.892a1.148,1.148,0,0,1-1.04.639.978.978,0,0,1-.739-.3,1.131,1.131,0,0,1-.285-.812,1.57,1.57,0,0,1,.355-1.05,1.112,1.112,0,0,1,.883-.421,1.076,1.076,0,0,1,.484.113.788.788,0,0,1,.348.354,1.253,1.253,0,0,1,.124.582,2.078,2.078,0,0,1-.021.28H56.621a1.507,1.507,0,0,0-.014.19.818.818,0,0,0,.173.542.582.582,0,0,0,.471.208.742.742,0,0,0,.368-.093,1.176,1.176,0,0,0,.355-.381Z" transform="translate(23.991 15.01)" fill="#032442"/>
    <path id="Path_1440" data-name="Path 1440" d="M56.7,36.215h1.248q0-.071,0-.107a.613.613,0,0,0-.151-.437.516.516,0,0,0-.4-.164.6.6,0,0,0-.467.211A.944.944,0,0,0,56.7,36.215Zm1.477.828a1.049,1.049,0,0,1-.95.594.884.884,0,0,1-.675-.278,1.057,1.057,0,0,1-.263-.753,1.47,1.47,0,0,1,.327-.974,1.007,1.007,0,0,1,.806-.389.955.955,0,0,1,.441.1.727.727,0,0,1,.32.328,1.179,1.179,0,0,1,.114.541,2,2,0,0,1-.02.258H56.653a1.53,1.53,0,0,0-.013.175.768.768,0,0,0,.158.5.526.526,0,0,0,.429.193.668.668,0,0,0,.337-.086,1.064,1.064,0,0,0,.325-.354Z" transform="translate(24.019 15.038)" fill="none" stroke="#032442" stroke-width="0.23"/>
    <path id="Path_1441" data-name="Path 1441" d="M59.706,36.463c-.114-.01-.224-.014-.327-.014q-1.038,0-1.037.592a.388.388,0,0,0,.113.292.426.426,0,0,0,.314.111.824.824,0,0,0,.591-.277,1.3,1.3,0,0,0,.347-.7m.231,1.227h-.378c0-.05,0-.091,0-.123a1.415,1.415,0,0,1,.041-.354,1.061,1.061,0,0,1-.9.544.76.76,0,0,1-.552-.208.7.7,0,0,1-.215-.524.751.751,0,0,1,.31-.6,1.906,1.906,0,0,1,1.15-.251c.05,0,.173.006.364.014a1.614,1.614,0,0,0,.026-.254q0-.462-.552-.462a.722.722,0,0,0-.7.411l-.351-.151a1.047,1.047,0,0,1,1.022-.552,1.213,1.213,0,0,1,.683.181.578.578,0,0,1,.274.512c0,.09-.06.512-.183,1.266a3.3,3.3,0,0,0-.047.449c0,.016,0,.05.007.1" transform="translate(24.721 15.011)" fill="#032442"/>
    <path id="Path_1442" data-name="Path 1442" d="M59.622,36.437c-.106-.01-.205-.014-.3-.014-.632,0-.949.184-.949.549a.369.369,0,0,0,.1.273.388.388,0,0,0,.287.1.747.747,0,0,0,.541-.257A1.2,1.2,0,0,0,59.622,36.437Zm.211,1.137h-.345c0-.046,0-.084,0-.114a1.352,1.352,0,0,1,.039-.328.968.968,0,0,1-.825.505.693.693,0,0,1-.505-.194.654.654,0,0,1-.2-.485.7.7,0,0,1,.282-.559,1.736,1.736,0,0,1,1.054-.231c.046,0,.157,0,.332.013a1.528,1.528,0,0,0,.023-.237q0-.428-.505-.428a.658.658,0,0,0-.636.381l-.322-.14a.957.957,0,0,1,.936-.514,1.1,1.1,0,0,1,.625.168.542.542,0,0,1,.251.477q0,.124-.167,1.173a2.957,2.957,0,0,0-.044.418C59.826,37.492,59.829,37.524,59.833,37.574Z" transform="translate(24.749 15.039)" fill="none" stroke="#032442" stroke-width="0.23"/>
    <path id="Path_1443" data-name="Path 1443" d="M60.374,34.637l-.541,3.283h.37l.541-3.283Z" transform="translate(25.533 14.78)" fill="#032442"/>
    <path id="Path_1444" data-name="Path 1444" d="M60.608,34.7l-.415,3.1h-.285l.417-3.1Z" transform="translate(25.564 14.808)" fill="none" stroke="#032442" stroke-width="0.23"/>
    <path id="Path_1445" data-name="Path 1445" d="M61.336,35.709l-.223,1.32a2.143,2.143,0,0,0-.037.3c0,.18.1.27.3.27.071,0,.18-.009.328-.024l-.039.3-.068.009c-.131.014-.228.021-.29.021-.4,0-.6-.18-.6-.536a3.586,3.586,0,0,1,.061-.505l.191-1.157H60.6l.05-.294h.375l.094-.588.364-.034-.1.622h.545l-.05.294Z" transform="translate(25.86 14.847)" fill="#032442"/>
    <path id="Path_1446" data-name="Path 1446" d="M61.292,35.724l-.185,1.236a2.347,2.347,0,0,0-.033.284.225.225,0,0,0,.255.253,2.716,2.716,0,0,0,.274-.023l-.031.281s-.021,0-.058.007a2.357,2.357,0,0,1-.243.02.443.443,0,0,1-.5-.5,3.8,3.8,0,0,1,.051-.472l.16-1.083h-.307l.041-.274h.315l.078-.552.3-.031-.084.584h.458l-.043.274Z" transform="translate(25.892 14.878)" fill="none" stroke="#032442" stroke-width="0.23"/>
    <path id="Path_1447" data-name="Path 1447" d="M62.571,34.638l-.214,1.3a.941.941,0,0,1,.8-.524.7.7,0,0,1,.489.181.637.637,0,0,1,.2.494,2.183,2.183,0,0,1-.037.334l-.25,1.5h-.365l.247-1.5a1.71,1.71,0,0,0,.029-.3.381.381,0,0,0-.4-.414.7.7,0,0,0-.524.3,1.9,1.9,0,0,0-.352.907l-.164,1h-.371l.542-3.283Z" transform="translate(26.312 14.781)" fill="#032442"/>
    <path id="Path_1448" data-name="Path 1448" d="M62.562,34.7l-.194,1.226a.853.853,0,0,1,.728-.494.6.6,0,0,1,.622.636,2.236,2.236,0,0,1-.033.315L63.459,37.8h-.332l.224-1.412a1.658,1.658,0,0,0,.027-.282.386.386,0,0,0-.1-.287.353.353,0,0,0-.26-.1.627.627,0,0,0-.475.285,1.842,1.842,0,0,0-.318.856l-.15.943h-.335l.491-3.1Z" transform="translate(26.344 14.808)" fill="none" stroke="#032442" stroke-width="0.23"/>
    <path id="Path_1449" data-name="Path 1449" d="M65.547,36.034l-.362.08a.76.76,0,0,0-.19-.451.484.484,0,0,0-.36-.156.6.6,0,0,0-.564.387,1.911,1.911,0,0,0-.185.839.779.779,0,0,0,.156.526.5.5,0,0,0,.392.18c.285,0,.508-.2.665-.588l.3.116a1.2,1.2,0,0,1-.389.588.964.964,0,0,1-.618.215.756.756,0,0,1-.675-.355,1.4,1.4,0,0,1-.231-.785,1.7,1.7,0,0,1,.32-1,.979.979,0,0,1,.836-.455.863.863,0,0,1,.615.24.942.942,0,0,1,.287.619" transform="translate(27.093 15.01)" fill="#032442"/>
    <path id="Path_1450" data-name="Path 1450" d="M65.419,36.037l-.328.074a.709.709,0,0,0-.173-.418.432.432,0,0,0-.324-.144.541.541,0,0,0-.511.358,1.805,1.805,0,0,0-.168.778.729.729,0,0,0,.141.489.44.44,0,0,0,.355.167c.258,0,.459-.183.6-.545l.277.107a1.115,1.115,0,0,1-.354.546.855.855,0,0,1-.556.2.68.68,0,0,1-.611-.328,1.329,1.329,0,0,1-.21-.729,1.607,1.607,0,0,1,.288-.929.88.88,0,0,1,.756-.421.766.766,0,0,1,.556.223A.883.883,0,0,1,65.419,36.037Z" transform="translate(27.122 15.038)" fill="none" stroke="#032442" stroke-width="0.23"/>
    <path id="Path_1451" data-name="Path 1451" d="M66.821,36.463c-.114-.01-.223-.014-.327-.014q-1.038,0-1.037.592a.393.393,0,0,0,.113.292.426.426,0,0,0,.314.111.824.824,0,0,0,.591-.277,1.3,1.3,0,0,0,.347-.7m.231,1.227h-.378c0-.05,0-.091,0-.123a1.351,1.351,0,0,1,.043-.354,1.065,1.065,0,0,1-.9.544.76.76,0,0,1-.552-.208.7.7,0,0,1-.214-.524.75.75,0,0,1,.308-.6,1.9,1.9,0,0,1,1.15-.251c.05,0,.173.006.364.014a1.614,1.614,0,0,0,.026-.254q0-.462-.552-.462a.722.722,0,0,0-.7.411L65.3,35.73a1.047,1.047,0,0,1,1.022-.552,1.214,1.214,0,0,1,.683.181.578.578,0,0,1,.274.512c0,.09-.06.512-.183,1.266a3.305,3.305,0,0,0-.047.449c0,.016,0,.05.007.1" transform="translate(27.758 15.011)" fill="#032442"/>
    <path id="Path_1452" data-name="Path 1452" d="M66.738,36.437c-.106-.01-.2-.014-.3-.014-.633,0-.949.184-.949.549a.369.369,0,0,0,.1.273.388.388,0,0,0,.287.1.747.747,0,0,0,.541-.257A1.2,1.2,0,0,0,66.738,36.437Zm.211,1.137H66.6c0-.046,0-.084,0-.114a1.285,1.285,0,0,1,.04-.328.972.972,0,0,1-.826.505.693.693,0,0,1-.505-.194.653.653,0,0,1-.2-.485A.7.7,0,0,1,65.4,36.4a1.737,1.737,0,0,1,1.054-.231c.046,0,.157,0,.332.013a1.529,1.529,0,0,0,.023-.237q0-.428-.505-.428a.658.658,0,0,0-.636.381l-.322-.14a.957.957,0,0,1,.936-.514,1.1,1.1,0,0,1,.625.168.542.542,0,0,1,.251.477q0,.124-.167,1.173a2.955,2.955,0,0,0-.044.418C66.942,37.492,66.944,37.524,66.949,37.574Z" transform="translate(27.786 15.039)" fill="none" stroke="#032442" stroke-width="0.23"/>
    <path id="Path_1453" data-name="Path 1453" d="M67.262,37.689h-.371l.4-2.438h.368l-.114.639a1.649,1.649,0,0,1,.4-.542.773.773,0,0,1,.5-.167c.024,0,.051,0,.081,0l-.061.384h-.09a.678.678,0,0,0-.36.084.9.9,0,0,0-.253.237,1.974,1.974,0,0,0-.213.382,4.5,4.5,0,0,0-.2.873Z" transform="translate(28.544 15.012)" fill="#032442"/>
    <path id="Path_1454" data-name="Path 1454" d="M67.289,37.567h-.321l.35-2.257h.32l-.1.592a1.515,1.515,0,0,1,.35-.5.64.64,0,0,1,.431-.156.607.607,0,0,1,.07,0l-.053.355h-.078a.576.576,0,0,0-.312.077.806.806,0,0,0-.218.221,1.806,1.806,0,0,0-.184.354,4.329,4.329,0,0,0-.174.808Z" transform="translate(28.577 15.04)" fill="none" stroke="#032442" stroke-width="0.23"/>
    <path id="Path_1455" data-name="Path 1455" d="M68.5,36.226h1.367c0-.051.006-.09.006-.116a.655.655,0,0,0-.167-.471.566.566,0,0,0-.431-.177.67.67,0,0,0-.512.227,1.03,1.03,0,0,0-.263.536m1.616.892a1.148,1.148,0,0,1-1.04.639.978.978,0,0,1-.739-.3,1.131,1.131,0,0,1-.285-.812,1.57,1.57,0,0,1,.355-1.05,1.112,1.112,0,0,1,.883-.421,1.076,1.076,0,0,1,.484.113.788.788,0,0,1,.348.354,1.253,1.253,0,0,1,.124.582,2.314,2.314,0,0,1-.02.28H68.451a1.5,1.5,0,0,0-.014.19.818.818,0,0,0,.173.542.582.582,0,0,0,.471.208.742.742,0,0,0,.368-.093,1.176,1.176,0,0,0,.355-.381Z" transform="translate(29.039 15.01)" fill="#032442"/>
    <path id="Path_1456" data-name="Path 1456" d="M68.527,36.215h1.248q0-.071,0-.107a.614.614,0,0,0-.151-.437.516.516,0,0,0-.4-.164.6.6,0,0,0-.467.211A.944.944,0,0,0,68.527,36.215ZM70,37.043a1.049,1.049,0,0,1-.95.594.882.882,0,0,1-.675-.278,1.051,1.051,0,0,1-.263-.753,1.469,1.469,0,0,1,.325-.974,1.012,1.012,0,0,1,.808-.389.951.951,0,0,1,.441.1.727.727,0,0,1,.32.328,1.179,1.179,0,0,1,.114.541,2,2,0,0,1-.02.258H68.483a1.53,1.53,0,0,0-.013.175.768.768,0,0,0,.158.5.526.526,0,0,0,.429.193.668.668,0,0,0,.337-.086,1.064,1.064,0,0,0,.325-.354Z" transform="translate(29.067 15.038)" fill="none" stroke="#032442" stroke-width="0.23"/>
    <path id="Path_1457" data-name="Path 1457" d="M23.035,8.463c3.868,0,7.012,2.524,7.012,5.63s-3.145,5.63-7.012,5.63-7.012-2.524-7.012-5.63,3.137-5.63,7.012-5.63" transform="translate(6.837 3.611)" fill="#58ad44"/>
    <path id="Path_1458" data-name="Path 1458" d="M47.361,0s3.44,9.441,1.808,14.316c-1.535,4.577-14.441,14.672-32.435,14.17-1.2-.031-2.418-.117-3.662-.245,0,0,24.353.932,34.29-28.241" transform="translate(5.578 0)" fill="#58ad44"/>
    <path id="Path_1459" data-name="Path 1459" d="M50.744,15.234S46.586,29.979,32.338,29.845a21.367,21.367,0,0,1-2.985-.234C13.728,27.364,1.6,16.869.146,15.565L0,15.437l.285.19c2.8,1.843,25.972,16.081,50.459-.392" transform="translate(0 6.5)" fill="#12b4cc"/>
    <path id="Path_1460" data-name="Path 1460" d="M15.6,25.049s13.02,5.1,19.028.27c0,0-5.676,9.655-7.345,14.745,0,0-3-7.5-11.683-15.015" transform="translate(6.659 10.689)" fill="#062341"/>
  </g>
</svg>
