<svg xmlns="http://www.w3.org/2000/svg" xmlns:xlink="http://www.w3.org/1999/xlink" width="130.911" height="34.425" viewBox="0 0 130.911 34.425">
  <defs>
    <clipPath id="clip-path">
      <rect id="Rectangle_16" data-name="Rectangle 16" width="130.911" height="34.425" fill="#b9b9b9"/>
    </clipPath>
  </defs>
  <g id="BDP_logo-gray" transform="translate(-0.001 -0.001)">
    <g id="Group_17" data-name="Group 17" transform="translate(0.001 0.001)" clip-path="url(#clip-path)">
      <path id="Path_1373" data-name="Path 1373" d="M21.169,102.98v14.4a4.608,4.608,0,0,1-3.016,4.324L5.02,126.534a1.367,1.367,0,0,1-1.84-1.283V113.03a3.6,3.6,0,0,1,2.35-3.375l12.138-4.489a7.984,7.984,0,0,0,3.5-2.186" transform="translate(-2.847 -92.194)" fill="#60c"/>
      <path id="Path_1374" data-name="Path 1374" d="M14.221,5.211,2.271.133A1.632,1.632,0,0,0,0,1.634V14.7a1.72,1.72,0,0,0,2.324,1.611l7.928-2.972L1.662,9.764a.524.524,0,0,1,.4-.967l9.62,4.007h0l2.707-1.015c4.629-1.606,4.87-4.814-.173-6.579M15.353,9.37a.524.524,0,0,1-.684.282l-13.2-5.5a.524.524,0,1,1,.4-.967l13.2,5.5a.523.523,0,0,1,.282.685" transform="translate(0 -0.001)" fill="#c06"/>
      <g id="Group_89" data-name="Group 89">
        <path id="Path_1375" data-name="Path 1375" d="M712.7,177.84a3.37,3.37,0,0,1-.181,1.158,2.2,2.2,0,0,1-.513.822,2.062,2.062,0,0,1-.8.487,3.185,3.185,0,0,1-1.033.159q-.243,0-.583-.022a2.2,2.2,0,0,1-.62-.125.448.448,0,0,1-.361-.443v-4.1a.3.3,0,0,1,.074-.218.5.5,0,0,1,.2-.122,2.858,2.858,0,0,1,.6-.118q.321-.03.623-.03a3.416,3.416,0,0,1,1.055.155,2.121,2.121,0,0,1,.819.476,2.178,2.178,0,0,1,.527.8,3.059,3.059,0,0,1,.188,1.121m-.863.007a2.4,2.4,0,0,0-.129-.834,1.488,1.488,0,0,0-.362-.568,1.469,1.469,0,0,0-.546-.328,2.082,2.082,0,0,0-.675-.107,3.283,3.283,0,0,0-.679.059v3.615a2.23,2.23,0,0,0,.343.052q.188.015.387.015a1.563,1.563,0,0,0,1.236-.479,2.092,2.092,0,0,0,.424-1.424" transform="translate(-634.393 -156.928)" fill="#c06"/>
        <path id="Path_1376" data-name="Path 1376" d="M755.938,171.634a.5.5,0,0,1,.136-.358.471.471,0,0,1,.358-.144.462.462,0,0,1,.351.144.537.537,0,0,1,0,.715.462.462,0,0,1-.351.144.471.471,0,0,1-.358-.144.5.5,0,0,1-.136-.358m.9,5a.9.9,0,0,1-.151.044,1,1,0,0,1-.218.022.507.507,0,0,1-.336-.092.386.386,0,0,1-.107-.306v-3.467l.155-.041a.861.861,0,0,1,.221-.026.493.493,0,0,1,.332.092.4.4,0,0,1,.1.314Z" transform="translate(-676.764 -153.207)" fill="#c06"/>
        <path id="Path_1377" data-name="Path 1377" d="M776.042,189.656a1.452,1.452,0,0,1-.361.162,1.729,1.729,0,0,1-.509.066,2.025,2.025,0,0,1-.653-.1,1.445,1.445,0,0,1-.542-.328,1.518,1.518,0,0,1-.369-.583,2.573,2.573,0,0,1-.133-.889,2.378,2.378,0,0,1,.133-.83,1.586,1.586,0,0,1,.38-.6,1.661,1.661,0,0,1,.583-.365,2.148,2.148,0,0,1,.756-.125,2.306,2.306,0,0,1,.7.1,2.074,2.074,0,0,1,.531.243.744.744,0,0,1,.2.2.514.514,0,0,1,.074.284v3.224a1.716,1.716,0,0,1-.133.708,1.227,1.227,0,0,1-.372.479,1.562,1.562,0,0,1-.568.269,2.808,2.808,0,0,1-.7.085,2.512,2.512,0,0,1-.678-.081,1.975,1.975,0,0,1-.428-.162.5.5,0,0,1-.184-.642.4.4,0,0,1,.148-.155,1.829,1.829,0,0,0,.472.24,1.85,1.85,0,0,0,.634.107,1.2,1.2,0,0,0,.756-.21.8.8,0,0,0,.269-.675Zm-.76-.443a1.089,1.089,0,0,0,.446-.081.99.99,0,0,0,.3-.2v-1.984a1.24,1.24,0,0,0-.686-.192,1.012,1.012,0,0,0-.763.3,1.272,1.272,0,0,0-.291.915,1.863,1.863,0,0,0,.077.575,1.029,1.029,0,0,0,.214.384.81.81,0,0,0,.314.214,1.1,1.1,0,0,0,.391.066" transform="translate(-692.463 -166.576)" fill="#c06"/>
        <path id="Path_1378" data-name="Path 1378" d="M815.239,171.634a.5.5,0,0,1,.136-.358.47.47,0,0,1,.358-.144.462.462,0,0,1,.35.144.538.538,0,0,1,0,.715.462.462,0,0,1-.35.144.47.47,0,0,1-.358-.144.5.5,0,0,1-.136-.358m.9,5a.908.908,0,0,1-.151.044,1,1,0,0,1-.218.022.507.507,0,0,1-.336-.092.385.385,0,0,1-.107-.306v-3.467l.155-.041a.861.861,0,0,1,.221-.026.493.493,0,0,1,.332.092.4.4,0,0,1,.1.314Z" transform="translate(-729.854 -153.207)" fill="#c06"/>
        <path id="Path_1379" data-name="Path 1379" d="M835.584,180.738a.766.766,0,0,0,.461.122,1.056,1.056,0,0,0,.28-.041,1.243,1.243,0,0,0,.258-.1,1.1,1.1,0,0,1,.1.148.422.422,0,0,1-.166.553,1.132,1.132,0,0,1-.623.14,1.463,1.463,0,0,1-.933-.277,1.082,1.082,0,0,1-.351-.9v-3.828a1.19,1.19,0,0,1,.162-.044,1.061,1.061,0,0,1,.221-.022.493.493,0,0,1,.325.089.381.381,0,0,1,.1.3v.811h1.21a.827.827,0,0,1,.059.14.611.611,0,0,1,.029.192q0,.347-.288.347h-1.011v1.955a.483.483,0,0,0,.166.417" transform="translate(-747.193 -158)" fill="#c06"/>
        <path id="Path_1380" data-name="Path 1380" d="M862.111,186.064a1.83,1.83,0,0,1,1.151.332,1.243,1.243,0,0,1,.428,1.048v1.91a.452.452,0,0,1-.081.291,1.04,1.04,0,0,1-.221.2,2.257,2.257,0,0,1-.516.21,2.687,2.687,0,0,1-.745.092,1.945,1.945,0,0,1-1.177-.313,1.07,1.07,0,0,1-.424-.918,1.04,1.04,0,0,1,.328-.826,1.678,1.678,0,0,1,.948-.354l1.084-.118v-.177a.606.606,0,0,0-.221-.524,1.018,1.018,0,0,0-.612-.162,2.021,2.021,0,0,0-.6.088,3.143,3.143,0,0,0-.516.207.732.732,0,0,1-.133-.162.415.415,0,0,1,.008-.439.522.522,0,0,1,.206-.159,1.976,1.976,0,0,1,.5-.166,3.029,3.029,0,0,1,.594-.055m.015,3.408a1.7,1.7,0,0,0,.479-.059.84.84,0,0,0,.28-.125v-1.04l-.841.089a1.2,1.2,0,0,0-.539.17.447.447,0,0,0-.177.391.511.511,0,0,0,.192.42.958.958,0,0,0,.6.155" transform="translate(-770.396 -166.576)" fill="#c06"/>
        <path id="Path_1381" data-name="Path 1381" d="M901.674,177.837a.509.509,0,0,1-.332-.092.378.378,0,0,1-.111-.306v-4.972l.155-.041a.855.855,0,0,1,.221-.026.525.525,0,0,1,.332.088.367.367,0,0,1,.111.3v4.979q-.066.022-.162.044a.945.945,0,0,1-.214.022" transform="translate(-806.84 -154.344)" fill="#c06"/>
        <path id="Path_1382" data-name="Path 1382" d="M937.215,178.659v1.7a1.611,1.611,0,0,1-.17.044,1.045,1.045,0,0,1-.221.022.506.506,0,0,1-.343-.1.408.408,0,0,1-.107-.317v-4.227a.3.3,0,0,1,.074-.218.5.5,0,0,1,.2-.122,2.505,2.505,0,0,1,.583-.122q.332-.033.627-.033a2.159,2.159,0,0,1,1.5.45,1.586,1.586,0,0,1,.487,1.225,1.624,1.624,0,0,1-.487,1.232,2.042,2.042,0,0,1-1.46.465Zm.642-.715a1.3,1.3,0,0,0,.837-.247.888.888,0,0,0,.306-.734.863.863,0,0,0-.292-.723,1.332,1.332,0,0,0-.837-.229q-.17,0-.347.015a2.642,2.642,0,0,0-.317.044v1.874Z" transform="translate(-838.301 -156.928)" fill="#c06"/>
        <path id="Path_1383" data-name="Path 1383" d="M977.259,186.064a1.83,1.83,0,0,1,1.151.332,1.243,1.243,0,0,1,.428,1.048v1.91a.453.453,0,0,1-.081.291,1.048,1.048,0,0,1-.221.2,2.26,2.26,0,0,1-.516.21,2.686,2.686,0,0,1-.745.092,1.944,1.944,0,0,1-1.177-.313,1.07,1.07,0,0,1-.424-.918,1.04,1.04,0,0,1,.328-.826,1.678,1.678,0,0,1,.948-.354l1.084-.118v-.177a.605.605,0,0,0-.221-.524,1.018,1.018,0,0,0-.612-.162,2.02,2.02,0,0,0-.6.088,3.138,3.138,0,0,0-.516.207.732.732,0,0,1-.133-.162.416.416,0,0,1,.007-.439.524.524,0,0,1,.207-.159,1.976,1.976,0,0,1,.5-.166,3.028,3.028,0,0,1,.594-.055m.015,3.408a1.7,1.7,0,0,0,.479-.059.84.84,0,0,0,.28-.125v-1.04l-.841.089a1.2,1.2,0,0,0-.538.17.446.446,0,0,0-.177.391.512.512,0,0,0,.192.42.959.959,0,0,0,.6.155" transform="translate(-873.484 -166.576)" fill="#c06"/>
        <path id="Path_1384" data-name="Path 1384" d="M1013.813,189.44q-.2-.406-.483-1.143t-.542-1.667a.646.646,0,0,1,.188-.151.506.506,0,0,1,.247-.063.448.448,0,0,1,.28.085.585.585,0,0,1,.177.3q.214.664.439,1.309t.5,1.332h.029q.118-.266.24-.616t.236-.745q.114-.394.218-.8t.184-.774a1.076,1.076,0,0,1,.155-.063.636.636,0,0,1,.192-.026.48.48,0,0,1,.288.085.309.309,0,0,1,.118.269,3.019,3.019,0,0,1-.107.649q-.107.435-.277.966t-.387,1.07a10.544,10.544,0,0,1-.439.959,6.43,6.43,0,0,1-.7,1.1.852.852,0,0,1-.6.376.468.468,0,0,1-.346-.125.593.593,0,0,1-.162-.317,3.308,3.308,0,0,0,.273-.277q.148-.166.295-.354t.284-.387a2.666,2.666,0,0,0,.225-.391.677.677,0,0,1-.255-.162,1.541,1.541,0,0,1-.269-.435" transform="translate(-906.713 -166.891)" fill="#c06"/>
        <path id="Path_1385" data-name="Path 1385" d="M1057.841,186.923a.773.773,0,0,0-.524-.166,1.047,1.047,0,0,0-.413.085,1.282,1.282,0,0,0-.362.232,1.181,1.181,0,0,1,.022.14q.007.074.007.148V190a.889.889,0,0,1-.151.044.957.957,0,0,1-.21.022.523.523,0,0,1-.34-.092.378.378,0,0,1-.11-.306v-2.22a.662.662,0,0,0-.192-.527.773.773,0,0,0-.524-.166,1.143,1.143,0,0,0-.413.074,1.642,1.642,0,0,0-.324.162V190a.9.9,0,0,1-.151.044,1,1,0,0,1-.218.022.508.508,0,0,1-.332-.092.377.377,0,0,1-.111-.306v-2.7a.579.579,0,0,1,.07-.306.862.862,0,0,1,.232-.232,2.442,2.442,0,0,1,1.269-.369,1.878,1.878,0,0,1,.656.107,1.224,1.224,0,0,1,.479.314,1.955,1.955,0,0,1,.513-.3,1.84,1.84,0,0,1,.7-.122,1.966,1.966,0,0,1,.575.081,1.209,1.209,0,0,1,.454.247,1.174,1.174,0,0,1,.3.42,1.521,1.521,0,0,1,.111.609V190a1.667,1.667,0,0,1-.166.044.957.957,0,0,1-.21.022.509.509,0,0,1-.332-.092.378.378,0,0,1-.111-.306v-2.22a.662.662,0,0,0-.192-.527" transform="translate(-943.158 -166.576)" fill="#c06"/>
        <path id="Path_1386" data-name="Path 1386" d="M1113.905,188.535a1.1,1.1,0,0,0,.42.69,1.37,1.37,0,0,0,.811.225,1.6,1.6,0,0,0,.594-.107,2.2,2.2,0,0,0,.439-.225.411.411,0,0,1,.221.369.385.385,0,0,1-.1.258.856.856,0,0,1-.28.2,1.894,1.894,0,0,1-.413.136,2.568,2.568,0,0,1-1.328-.081,1.714,1.714,0,0,1-.634-.395,1.752,1.752,0,0,1-.41-.649,2.551,2.551,0,0,1-.144-.889,2.517,2.517,0,0,1,.136-.867,1.737,1.737,0,0,1,.38-.623,1.646,1.646,0,0,1,.572-.384,1.842,1.842,0,0,1,.7-.133,1.74,1.74,0,0,1,.682.129,1.583,1.583,0,0,1,.874.889,1.79,1.79,0,0,1,.126.679.412.412,0,0,1-.1.3.486.486,0,0,1-.273.125Zm.959-1.807a.931.931,0,0,0-.712.306,1.28,1.28,0,0,0-.3.867l1.918-.288a1.055,1.055,0,0,0-.254-.627.819.819,0,0,0-.653-.258" transform="translate(-996.5 -166.576)" fill="#c06"/>
        <path id="Path_1387" data-name="Path 1387" d="M1156.39,186.945a.852.852,0,0,0-.583-.188,1.491,1.491,0,0,0-.487.074,2.182,2.182,0,0,0-.369.162V190a.891.891,0,0,1-.151.044,1,1,0,0,1-.218.022.509.509,0,0,1-.332-.092.378.378,0,0,1-.111-.306v-2.7a.581.581,0,0,1,.07-.306.864.864,0,0,1,.232-.232,2.969,2.969,0,0,1,.572-.251,2.48,2.48,0,0,1,.793-.118,1.8,1.8,0,0,1,1.184.358,1.324,1.324,0,0,1,.432,1.081V190a1.225,1.225,0,0,1-.159.044,1,1,0,0,1-.217.022.509.509,0,0,1-.332-.092.377.377,0,0,1-.111-.306v-2.139a.742.742,0,0,0-.214-.587" transform="translate(-1033.26 -166.576)" fill="#c06"/>
        <path id="Path_1388" data-name="Path 1388" d="M1196.81,180.738a.768.768,0,0,0,.461.122,1.053,1.053,0,0,0,.28-.041,1.245,1.245,0,0,0,.258-.1,1.124,1.124,0,0,1,.1.148.422.422,0,0,1-.166.553,1.132,1.132,0,0,1-.623.14,1.464,1.464,0,0,1-.933-.277,1.082,1.082,0,0,1-.35-.9v-3.828a1.193,1.193,0,0,1,.162-.044,1.06,1.06,0,0,1,.221-.022.494.494,0,0,1,.325.089.382.382,0,0,1,.1.3v.811h1.21a.79.79,0,0,1,.059.14.6.6,0,0,1,.03.192q0,.347-.288.347h-1.011v1.955a.483.483,0,0,0,.166.417" transform="translate(-1070.586 -158)" fill="#c06"/>
        <path id="Path_1389" data-name="Path 1389" d="M1225.142,188.963a1.045,1.045,0,0,1-.387.859,1.752,1.752,0,0,1-1.125.313,2.905,2.905,0,0,1-.568-.052,1.742,1.742,0,0,1-.435-.14.846.846,0,0,1-.28-.214.42.42,0,0,1-.1-.273.484.484,0,0,1,.055-.225.432.432,0,0,1,.166-.173,2.906,2.906,0,0,0,.494.269,1.617,1.617,0,0,0,.649.122.957.957,0,0,0,.538-.125.411.411,0,0,0,.184-.361.436.436,0,0,0-.125-.328.844.844,0,0,0-.376-.188l-.531-.147a1.731,1.731,0,0,1-.775-.4.95.95,0,0,1-.251-.7,1.059,1.059,0,0,1,.1-.446,1.015,1.015,0,0,1,.277-.361,1.342,1.342,0,0,1,.453-.24,2.008,2.008,0,0,1,.62-.089,2.532,2.532,0,0,1,.517.048,1.822,1.822,0,0,1,.395.125.7.7,0,0,1,.258.192.385.385,0,0,1,.092.247.435.435,0,0,1-.055.221.492.492,0,0,1-.137.155,2.912,2.912,0,0,0-.42-.2,1.605,1.605,0,0,0-.59-.107.957.957,0,0,0-.517.118.4.4,0,0,0-.081.6.771.771,0,0,0,.362.173l.457.118a2,2,0,0,1,.867.446,1.022,1.022,0,0,1,.277.756" transform="translate(-1094.23 -166.576)" fill="#c06"/>
      </g>
      <g id="Group_88" data-name="Group 88">
        <path id="Path_1390" data-name="Path 1390" d="M239.126,93.965a2.112,2.112,0,0,1-2.023,2.052h-2.752a.6.6,0,0,1-.613-.584V89.442a.594.594,0,0,1,.6-.6H237a2.058,2.058,0,0,1,1.342,3.511,2.1,2.1,0,0,1,.788,1.615m-4.221-2.14,1.955-.019a.936.936,0,0,0,.9-.9.881.881,0,0,0-.856-.875h-2Zm3.015,2.14a.98.98,0,0,0-.944-.914h-2.023v1.8h2.081a.915.915,0,0,0,.885-.885" transform="translate(-209.256 -79.533)" fill="#60c"/>
        <path id="Path_1391" data-name="Path 1391" d="M313.169,93.05h-.885v2.383a.6.6,0,0,1-.6.584.585.585,0,0,1-.584-.584V89.422a.6.6,0,0,1,.6-.583h2.13a2.136,2.136,0,0,1,2.091,2.072,2.18,2.18,0,0,1-1.449,2l1.352,2.208a.6.6,0,0,1-.2.817.633.633,0,0,1-.3.078.6.6,0,0,1-.506-.282Zm1.576-2.13a.938.938,0,0,0-.953-.895h-1.508v1.838h1.508a.953.953,0,0,0,.953-.943" transform="translate(-278.514 -79.533)" fill="#60c"/>
        <path id="Path_1392" data-name="Path 1392" d="M392.006,96.183a3.589,3.589,0,0,1-3.55-3.608,3.546,3.546,0,1,1,3.55,3.608m-2.4-3.608a2.407,2.407,0,1,0,2.4-2.412,2.427,2.427,0,0,0-2.4,2.412" transform="translate(-347.77 -79.699)" fill="#60c"/>
        <path id="Path_1393" data-name="Path 1393" d="M491.384,95.8a.6.6,0,0,1-.788-.36L488.953,91,487.3,95.441a.587.587,0,0,1-.778.36.6.6,0,0,1-.36-.788l2.2-5.962a.625.625,0,0,1,.593-.4.644.644,0,0,1,.593.4l2.2,5.962a.6.6,0,0,1-.36.788" transform="translate(-435.203 -79.367)" fill="#60c"/>
        <path id="Path_1394" data-name="Path 1394" d="M563.234,95.682V89.7a.6.6,0,0,1,.584-.583h1.449a3.752,3.752,0,0,1,1.517.311,3.5,3.5,0,0,1,1.206.875,3.549,3.549,0,0,1,.856,2.8,3.6,3.6,0,0,1-3.56,3.161h-1.469a.6.6,0,0,1-.584-.584m4.435-2.714a2.32,2.32,0,0,0-.554-1.887,2.436,2.436,0,0,0-1.848-.807H564.4V95.1h.885a2.4,2.4,0,0,0,2.383-2.13" transform="translate(-504.242 -79.783)" fill="#60c"/>
        <path id="Path_1395" data-name="Path 1395" d="M645.548,94.292a2.063,2.063,0,0,1-2.762.642.655.655,0,0,1-.253-.846.641.641,0,0,1,.866-.1.908.908,0,0,0,1.2-.311.925.925,0,0,0-.253-1.284c-.476-.3-.5-.311-.953-.613a2.046,2.046,0,0,1-.6-2.83,2.082,2.082,0,0,1,2.762-.642.61.61,0,0,1,.234.807.621.621,0,0,1-.846.136.923.923,0,0,0-.924,1.6c.243.156.243.156.943.613a2.043,2.043,0,0,1,.593,2.83" transform="translate(-575.168 -78.811)" fill="#60c"/>
        <path id="Path_1396" data-name="Path 1396" d="M710.557,93.2a13.893,13.893,0,0,1-1.634.019V95.6a.6.6,0,0,1-.6.584.585.585,0,0,1-.583-.584V89.608a.579.579,0,0,1,.583-.584H710.5a2.108,2.108,0,0,1,2.043,2.081,2.131,2.131,0,0,1-1.984,2.091m-.136-3.005h-1.5V92.03h1.5a.959.959,0,0,0,.953-.943.944.944,0,0,0-.953-.895" transform="translate(-633.609 -79.699)" fill="#60c"/>
        <path id="Path_1397" data-name="Path 1397" d="M783.331,95.432V89.421a.585.585,0,0,1,.584-.584h3.5a.6.6,0,0,1,.6.584.606.606,0,0,1-.6.6h-2.9v1.838h2.189a.579.579,0,0,1,.583.583.573.573,0,0,1-.583.584h-2.189v1.8h2.9a.606.606,0,0,1,.6.6.6.6,0,0,1-.6.584h-3.5a.585.585,0,0,1-.584-.584" transform="translate(-701.287 -79.533)" fill="#60c"/>
        <path id="Path_1398" data-name="Path 1398" d="M866.429,95.071a3.489,3.489,0,0,1-2.179.759,3.589,3.589,0,0,1,0-7.178,3.46,3.46,0,0,1,1.829.525.575.575,0,0,1,.233.8.563.563,0,0,1-.807.175,2.429,2.429,0,0,0-1.255-.34,2.4,2.4,0,0,0-2.4,2.4,2.4,2.4,0,0,0,3.852,1.974.561.561,0,0,1,.8.068.581.581,0,0,1-.068.817" transform="translate(-770.545 -79.367)" fill="#60c"/>
        <path id="Path_1399" data-name="Path 1399" d="M948.528,89.329a.577.577,0,0,1-.584.574h-1.43v5.447a.579.579,0,1,1-1.157,0V89.9h-1.43a.579.579,0,1,1,0-1.157h4.017a.573.573,0,0,1,.584.584" transform="translate(-844.541 -79.449)" fill="#60c"/>
        <path id="Path_1400" data-name="Path 1400" d="M1022.774,93.05h-.885v2.383a.6.6,0,0,1-.6.584.585.585,0,0,1-.584-.584V89.422a.6.6,0,0,1,.6-.583h2.13a2.136,2.136,0,0,1,2.091,2.072,2.18,2.18,0,0,1-1.449,2l1.352,2.208a.6.6,0,0,1-.2.817.632.632,0,0,1-.3.078.6.6,0,0,1-.506-.282Zm1.576-2.13a.937.937,0,0,0-.953-.895h-1.508v1.838h1.508a.953.953,0,0,0,.953-.943" transform="translate(-913.797 -79.533)" fill="#60c"/>
        <path id="Path_1401" data-name="Path 1401" d="M1103.314,89.329v3.978a2.626,2.626,0,1,1-5.252,0V89.329a.593.593,0,0,1,1.187,0v3.978a1.449,1.449,0,0,0,2.9,0V89.329a.579.579,0,0,1,.584-.584.573.573,0,0,1,.584.584" transform="translate(-983.055 -79.449)" fill="#60c"/>
        <path id="Path_1402" data-name="Path 1402" d="M1183.121,95.139a.551.551,0,0,1-.4.691h-.029c-.01,0-.01,0-.02.019h-.068a.592.592,0,0,1-.574-.477l-.8-3.891-1.469,3.939a.594.594,0,0,1-1.128,0l-1.293-3.754-.681,3.706a.577.577,0,0,1-.574.486c-.029,0-.068-.01-.1-.01a.529.529,0,0,1-.38-.253.511.511,0,0,1-.1-.428l1-6.03a.6.6,0,0,1,.554-.486h.049a.593.593,0,0,1,.564.408l1.537,4.328,1.6-4.348a.562.562,0,0,1,.554-.389h.029a.554.554,0,0,1,.545.477Z" transform="translate(-1052.387 -79.367)" fill="#60c"/>
      </g>
    </g>
  </g>
</svg>
