<svg xmlns="http://www.w3.org/2000/svg" xmlns:xlink="http://www.w3.org/1999/xlink" width="103.347" height="49.976" viewBox="0 0 103.347 49.976">
  <defs>
    <clipPath id="clip-path">
      <rect id="Rectangle_12" data-name="Rectangle 12" width="103.347" height="49.976" fill="none"/>
    </clipPath>
    <clipPath id="clip-path-3">
      <rect id="Rectangle_7" data-name="Rectangle 7" width="4.801" height="5.586" fill="none"/>
    </clipPath>
  </defs>
  <g id="isg" transform="translate(0)">
    <g id="Group_7" data-name="Group 7" transform="translate(0)" clip-path="url(#clip-path)">
      <g id="Group_6" data-name="Group 6">
        <g id="Group_5" data-name="Group 5" clip-path="url(#clip-path)">
          <path id="Path_1321" data-name="Path 1321" d="M53.714,152.026a47.246,47.246,0,0,0,3.834,2.812c-.829-.592-2.2-1.559-3.834-2.812" transform="translate(-38.813 -109.853)" fill="#0f2949"/>
          <g id="Group_4" data-name="Group 4" transform="translate(28.741 4.517)" opacity="0.33">
            <g id="Group_3" data-name="Group 3">
              <g id="Group_2" data-name="Group 2" clip-path="url(#clip-path-3)">
                <path id="Path_1324" data-name="Path 1324" d="M108.407,27.228c-1.87-1.465-3.572-2.687-4.8-3.523V23.7a49.057,49.057,0,0,1,4.8,3.529" transform="translate(-103.606 -21.641)" fill="#e63d74"/>
                <path id="Path_1325" data-name="Path 1325" d="M108.762,16.351l-.1-.062v-.006c.031.019.062.044.1.069" transform="translate(-107.259 -16.282)" fill="#e63d74"/>
              </g>
            </g>
          </g>
          <path id="Path_1326" data-name="Path 1326" d="M84.26,26.175C84.228,33.314,76,38.245,69.465,40.3c0,0-2.718,1.2-11.06,1.852a8.867,8.867,0,0,1-1.8-.093,2.979,2.979,0,0,1-2.912-2.282c-.361-1.714.9-3.84,2.987-5.056.268-.156.636-.393,1.072-.68l1.939,1.7c-.729.492-1.347.892-1.758,1.135-1.234.717-1.92,1.646-1.8,2.388.025.174.474.461.8.5a48.52,48.52,0,0,0,7.706-.811c.137-.031.249-.056.337-.081,0,0,1-.243,2.07-.524a22.571,22.571,0,0,0,2.407-.736,5.888,5.888,0,0,0,3.117-2.986c.461-1.97-.474-4.4-2.55-6.559-.206-.224-1.814-1.714-1.814-1.714C65.618,24,56.46,16.169,56.46,16.169c-1.964-1.658-3.554-2.936-3.685-3.042-.268-.212-.524-.443-.78-.686l2.65-1c.58.5,2.039,1.727,3.84,3.261.63.536,1.3,1.1,1.989,1.7,3.778,3.217,8.149,6.964,9.5,8.192l1.808,1.715c2.668,2.768,3.872,6.035,3.23,8.834,3.691-2.188,6.733-5.25,6.752-8.978.012-2.756-2.911-6.484-6.552-10.025a10.033,10.033,0,0,1-1.764,8.385c-.268.306-.574.642-.9.979l-1.577-1.964c.218-.231.411-.449.592-.654,1.77-2.026,2.269-7.008-.935-10.518a25.48,25.48,0,0,0-2.4-2.263,49.105,49.105,0,0,0-4.8-3.529,28.119,28.119,0,0,0-7.643-3.716A12.085,12.085,0,0,0,53.081,2.5c-1.266,0-2.114.33-2.438.985-.524,1.079.181,3.429,1.608,5.424a20.631,20.631,0,0,0-2.488.661C48.168,7.1,47.519,4.2,48.4,2.39,49.172.819,51.173-.8,56.36.433a30.316,30.316,0,0,1,8.473,4.084v.006l.1.062c.037.025.081.056.131.087s.093.062.143.1.1.069.156.106.106.075.162.112c.829.592,2.2,1.558,3.834,2.812a.467.467,0,0,0,.087.069c5.811,4.483,14.844,12.388,14.813,18.3" transform="translate(-34.689 0)" fill="#990b35"/>
          <path id="Path_1327" data-name="Path 1327" d="M111.157,17.99c.829.592,2.2,1.559,3.834,2.812a47.178,47.178,0,0,0-3.834-2.812" transform="translate(-80.321 -12.999)" fill="#990b35"/>
          <path id="Path_1328" data-name="Path 1328" d="M101.553,99.554c-.056.05-.087.081-.1.093l-.118.1c-.193.143-3.429,2.643-6.216,4.638-.031-.025-.056-.05-.087-.075,0,0-.8-.686-1.989-1.7,2.774-1.976,6.284-4.476,6.752-4.826.044-.044.118-.112.218-.212Z" transform="translate(-67.232 -70.504)" fill="#990b35"/>
          <rect id="Rectangle_8" data-name="Rectangle 8" width="6.083" height="22.096" transform="translate(52.076 13.761)" fill="#fff"/>
          <path id="Path_1330" data-name="Path 1330" d="M299.979,62.27V57.637h11.833q.015.226.023.5t.007.8q0,5.7-3.011,8.852t-8.475,3.147a13.191,13.191,0,0,1-4.777-.807,10.587,10.587,0,0,1-3.736-2.468,11.159,11.159,0,0,1-2.438-3.751,12.078,12.078,0,0,1-.868-4.535,11.947,11.947,0,0,1,.845-4.55,11.18,11.18,0,0,1,6.331-6.18,12.786,12.786,0,0,1,4.641-.831,12.4,12.4,0,0,1,5.743,1.283,11.225,11.225,0,0,1,4.2,3.819l-5.222,2.505a6.349,6.349,0,0,0-2.106-1.909,5.459,5.459,0,0,0-2.618-.626,5.326,5.326,0,0,0-4.256,1.8,7.3,7.3,0,0,0-1.555,4.928,7.376,7.376,0,0,0,1.555,4.966,5.314,5.314,0,0,0,4.256,1.811,6.288,6.288,0,0,0,3.826-1.125,4.3,4.3,0,0,0,1.789-3Z" transform="translate(-208.496 -34.548)" fill="#fff"/>
          <g id="Group_114" data-name="Group 114">
            <rect id="Rectangle_10" data-name="Rectangle 10" width="0.892" height="4.362" transform="translate(88.76 40.98)" fill="#fff"/>
            <g id="Group_113" data-name="Group 113">
              <path id="Path_1322" data-name="Path 1322" d="M61.25,58.915c-2.868,2.039-5.854,4.239-6.06,4.389l-.118.1c-.013.012-.044.044-.1.093l1.54,1.983c.1-.1.175-.168.218-.212.487-.361,3.666-2.687,6.49-4.695-.7-.586-1.359-1.147-1.97-1.658" transform="translate(-39.723 -42.572)" fill="#fff"/>
              <g id="Group_112" data-name="Group 112">
                <path id="Path_1323" data-name="Path 1323" d="M35.855,67.912c-.767,1.571-2.768,3.186-7.955,1.958a30.315,30.315,0,0,1-8.473-4.084V65.78l-.1-.062c-.037-.025-.081-.056-.131-.087s-.093-.062-.143-.1-.1-.069-.156-.106-.106-.075-.162-.112c-.829-.592-2.2-1.558-3.834-2.812a.494.494,0,0,0-.087-.069C9,57.949-.031,50.044,0,44.127.031,36.989,8.261,32.057,14.794,30c0,0,.087-.037.281-.106a20.632,20.632,0,0,1,2.488-.661,65.958,65.958,0,0,1,8.292-1.085,8.892,8.892,0,0,1,1.8.093,2.979,2.979,0,0,1,2.912,2.282c.361,1.714-.9,3.84-2.986,5.056-.206.118-1.172.748-1.8,1.147-.692-.592-1.359-1.16-1.989-1.7.817-.536,2.17-1.4,2.531-1.609,1.234-.717,1.914-1.652,1.8-2.388-.031-.181-.474-.462-.8-.5a47.634,47.634,0,0,0-8.049.891s-3.572.861-4.47,1.259a5.821,5.821,0,0,0-3.117,2.986c-.467,1.97.474,4.4,2.55,6.559.206.224,1.814,1.714,1.814,1.714,1.821,1.659,6.908,6.041,9.757,8.485,1.191,1.016,1.989,1.7,1.989,1.7.031.025.056.05.087.075a41.766,41.766,0,0,1,4.47,4.47c-1.072.28-2.07.524-2.07.524-.087.025-.2.05-.337.081-2.668-2.276-13.473-11.571-15.667-13.573L12.475,44c-2.668-2.768-3.872-6.035-3.23-8.834C5.555,37.35,2.512,40.411,2.494,44.14,2.481,46.9,5.405,50.623,9.046,54.165a10.034,10.034,0,0,1,1.764-8.386c.268-.305.574-.642.9-.979l1.577,1.964c-.218.231-.412.449-.592.655-1.771,2.026-2.269,7.007.935,10.517a25.546,25.546,0,0,0,2.4,2.263,49.107,49.107,0,0,0,4.8,3.529,28.117,28.117,0,0,0,7.644,3.716,12.081,12.081,0,0,0,2.706.362c1.266,0,2.114-.33,2.438-.985.461-.954.075-2.606-.836-4.246l2.251-1.116c1.216,2.238,1.7,4.651.823,6.453" transform="translate(0 -20.326)" fill="#fff"/>
                <g id="Group_111" data-name="Group 111">
                  <path id="Path_1329" data-name="Path 1329" d="M223.629,63.188a10.927,10.927,0,0,0,2.649,2.279,5.164,5.164,0,0,0,2.6.754,2.994,2.994,0,0,0,1.985-.649,2.052,2.052,0,0,0,.777-1.645,2.152,2.152,0,0,0-.671-1.7A8.5,8.5,0,0,0,227.93,61a9.914,9.914,0,0,1-4.588-2.279A5.337,5.337,0,0,1,222,54.872a6.785,6.785,0,0,1,2.121-5.169,7.693,7.693,0,0,1,5.5-2,12.015,12.015,0,0,1,3.463.49,11.215,11.215,0,0,1,3.1,1.487L234.3,54.012a7.9,7.9,0,0,0-2.105-1.32,5.569,5.569,0,0,0-2.135-.446,2.821,2.821,0,0,0-1.766.521,1.612,1.612,0,0,0-.679,1.335,1.642,1.642,0,0,0,.6,1.328,6.459,6.459,0,0,0,2.3.951l.272.075q3.683,1,4.845,2.188A5.4,5.4,0,0,1,236.82,60.6a7.461,7.461,0,0,1,.408,2.528,7.334,7.334,0,0,1-2.309,5.652,8.71,8.71,0,0,1-6.158,2.136,10.881,10.881,0,0,1-4.2-.785,11.9,11.9,0,0,1-3.645-2.46Z" transform="translate(-159.629 -34.471)" fill="#fff"/>
                  <g id="Group_110" data-name="Group 110">
                    <rect id="Rectangle_9" data-name="Rectangle 9" width="0.919" height="6.997" transform="translate(52.297 38.346)" fill="#fff"/>
                    <path id="Path_1331" data-name="Path 1331" d="M198.539,147.181a1.864,1.864,0,0,0-.9.213,1.673,1.673,0,0,0-.375.278v-.34h-.846v4.362h.873v-2.27a1.782,1.782,0,0,1,.27-1.1.983.983,0,0,1,.825-.322.826.826,0,0,1,.665.24,1.221,1.221,0,0,1,.216.8v2.653h.882v-2.9a1.485,1.485,0,0,0-1.613-1.608" transform="translate(-141.932 -106.352)" fill="#fff"/>
                    <path id="Path_1332" data-name="Path 1332" d="M214.022,136.525a1.751,1.751,0,0,0-.316-.027,1.056,1.056,0,0,0-.967.436,3.538,3.538,0,0,0-.252,1.665v1.013h-.758v.791h.758v3.571h.869V140.4h.89v-.791h-.89v-1.378a1.878,1.878,0,0,1,.105-.793c.046-.088.152-.2.432-.13a.968.968,0,0,1,.183.071l.18.09.174-.821-.124-.048a1.623,1.623,0,0,0-.284-.079" transform="translate(-152.992 -98.633)" fill="#fff"/>
                    <path id="Path_1333" data-name="Path 1333" d="M225.261,147.272a1.8,1.8,0,0,0-.262-.07,1.335,1.335,0,0,0-1.057.224,1.9,1.9,0,0,0-.361.361v-.46h-.874v4.362h.874v-2.147a1.764,1.764,0,0,1,.327-1.089.863.863,0,0,1,.9-.4c.06.011.117.025.173.042l.143.043.282-.819Z" transform="translate(-160.926 -106.348)" fill="#fff"/>
                    <path id="Path_1334" data-name="Path 1334" d="M235.364,147.712a1.548,1.548,0,0,0-.346-.283,1.987,1.987,0,0,0-2.448.421,2.518,2.518,0,0,0-.563,1.688,2.449,2.449,0,0,0,.571,1.683,1.945,1.945,0,0,0,1.52.651,1.7,1.7,0,0,0,.941-.26,1.556,1.556,0,0,0,.323-.28v.362h.873v-4.362h-.873Zm-.324,2.918a1.059,1.059,0,0,1-.885.4,1.084,1.084,0,0,1-.892-.369,1.7,1.7,0,0,1-.318-1.11,1.786,1.786,0,0,1,.335-1.151,1.07,1.07,0,0,1,.884-.4,1.089,1.089,0,0,1,.882.373,1.6,1.6,0,0,1,.328,1.07,1.864,1.864,0,0,1-.333,1.179" transform="translate(-167.646 -106.352)" fill="#fff"/>
                    <path id="Path_1335" data-name="Path 1335" d="M262.233,140.765l-.322-.17c-.714-.374-1.076-.768-1.076-1.172a.9.9,0,0,1,.246-.673.91.91,0,0,1,.676-.244,1.118,1.118,0,0,1,.556.131.861.861,0,0,1,.351.373l.076.149.742-.447-.072-.131a1.75,1.75,0,0,0-.664-.7,1.9,1.9,0,0,0-.952-.232,1.919,1.919,0,0,0-1.355.489,1.775,1.775,0,0,0-.163,2.35,4.692,4.692,0,0,0,1.39.979,3.149,3.149,0,0,1,.978.7,1.154,1.154,0,0,1,.209.71,1.3,1.3,0,0,1-.313.929,1.144,1.144,0,0,1-.878.326,1.22,1.22,0,0,1-.766-.24,1.273,1.273,0,0,1-.449-.685l-.054-.183-.813.435.053.13a2.284,2.284,0,0,0,.788,1.043,2.073,2.073,0,0,0,3.325-1.755,2.032,2.032,0,0,0-.315-1.173,3.468,3.468,0,0,0-1.2-.937" transform="translate(-187.568 -99.465)" fill="#fff"/>
                    <path id="Path_1336" data-name="Path 1336" d="M280.166,150.171a1.641,1.641,0,0,1-.511.669,1.152,1.152,0,0,1-.695.213,1.062,1.062,0,0,1-.871-.391,1.721,1.721,0,0,1-.348-.978h3.21v-.279a2.327,2.327,0,0,0-.547-1.609,1.88,1.88,0,0,0-1.463-.615,1.977,1.977,0,0,0-1.543.664,2.483,2.483,0,0,0-.586,1.711,2.372,2.372,0,0,0,.592,1.669,2.025,2.025,0,0,0,1.555.646,2.156,2.156,0,0,0,1.187-.315,2.4,2.4,0,0,0,.815-.967l.068-.134-.795-.436Zm-2.047-1.858a1.053,1.053,0,0,1,.75-.278,1.1,1.1,0,0,1,.784.264,1.017,1.017,0,0,1,.3.593H277.8a1.079,1.079,0,0,1,.323-.579" transform="translate(-200.023 -106.352)" fill="#fff"/>
                    <path id="Path_1337" data-name="Path 1337" d="M299.174,150.136l-1.137-2.808h-.516l0,0-.147-.051a1.838,1.838,0,0,0-.262-.07,1.334,1.334,0,0,0-1.057.224,1.911,1.911,0,0,0-.362.361v-.46h-.873v4.362h.873v-2.147a1.764,1.764,0,0,1,.327-1.089.863.863,0,0,1,.9-.4c.06.011.118.025.173.042l.143.043.084-.244,1.849,4.29,2.1-4.86h-.968Z" transform="translate(-213.035 -106.348)" fill="#fff"/>
                    <path id="Path_1338" data-name="Path 1338" d="M319.622,140.654a.586.586,0,0,0,0,.832.575.575,0,0,0,.417.168.583.583,0,0,0,.422-.168.565.565,0,0,0,.172-.417.558.558,0,0,0-.178-.416.6.6,0,0,0-.832,0" transform="translate(-230.83 -101.514)" fill="#fff"/>
                    <path id="Path_1339" data-name="Path 1339" d="M329.384,150.975a1.909,1.909,0,0,1-.614.106,1.446,1.446,0,0,1-1.075-.416,1.423,1.423,0,0,1-.418-1.063,1.651,1.651,0,0,1,.406-1.18,1.4,1.4,0,0,1,1.087-.432,2.082,2.082,0,0,1,.612.091,2.023,2.023,0,0,1,.56.274l.241.166.015-1-.085-.045a2.44,2.44,0,0,0-.612-.218,3.379,3.379,0,0,0-.721-.074,2.277,2.277,0,0,0-2.384,2.384,2.3,2.3,0,0,0,.638,1.668,2.19,2.19,0,0,0,1.632.657,3.559,3.559,0,0,0,.807-.089,2.621,2.621,0,0,0,.7-.27l.079-.045v-1.008l-.246.173a2.455,2.455,0,0,1-.62.322" transform="translate(-235.85 -106.352)" fill="#fff"/>
                    <path id="Path_1340" data-name="Path 1340" d="M345.054,150.171a1.641,1.641,0,0,1-.511.669,1.151,1.151,0,0,1-.695.213,1.062,1.062,0,0,1-.871-.391,1.721,1.721,0,0,1-.348-.978h3.21v-.279a2.327,2.327,0,0,0-.547-1.609,1.88,1.88,0,0,0-1.463-.615,1.977,1.977,0,0,0-1.543.664,2.483,2.483,0,0,0-.586,1.711,2.372,2.372,0,0,0,.592,1.669,2.026,2.026,0,0,0,1.555.646,2.156,2.156,0,0,0,1.187-.315,2.4,2.4,0,0,0,.815-.967l.068-.134-.795-.436Zm-2.047-1.858a1.052,1.052,0,0,1,.75-.278,1.1,1.1,0,0,1,.784.264,1.017,1.017,0,0,1,.3.593h-2.158a1.079,1.079,0,0,1,.323-.579" transform="translate(-246.91 -106.352)" fill="#fff"/>
                    <path id="Path_1341" data-name="Path 1341" d="M359.919,149.055a2.28,2.28,0,0,1-.723-.33.372.372,0,0,1-.134-.3.394.394,0,0,1,.138-.312.745.745,0,0,1,.838-.006.664.664,0,0,1,.259.358l.06.178.8-.446-.051-.127a1.4,1.4,0,0,0-.57-.686,1.722,1.722,0,0,0-.922-.238,1.509,1.509,0,0,0-1.05.371,1.245,1.245,0,0,0-.417.963,1.072,1.072,0,0,0,.3.767,2.652,2.652,0,0,0,.943.553c.036.016.085.036.145.058.483.189.728.406.728.645a.45.45,0,0,1-.156.363.684.684,0,0,1-.465.143.921.921,0,0,1-.529-.144.9.9,0,0,1-.326-.437l-.066-.168-.807.462.048.124a1.475,1.475,0,0,0,.6.74,1.789,1.789,0,0,0,.971.259,1.767,1.767,0,0,0,1.169-.37,1.258,1.258,0,0,0,.453-1.01,1.3,1.3,0,0,0-.267-.859,2.212,2.212,0,0,0-.967-.554" transform="translate(-258.625 -106.328)" fill="#fff"/>
                  </g>
                </g>
              </g>
            </g>
          </g>
        </g>
      </g>
    </g>
  </g>
</svg>
