<svg xmlns="http://www.w3.org/2000/svg" xmlns:xlink="http://www.w3.org/1999/xlink" width="126.915" height="34.639" viewBox="0 0 126.915 34.639">
  <defs>
    <clipPath id="clip-path">
      <rect id="Rectangle_15" data-name="Rectangle 15" width="126.915" height="34.639" fill="none"/>
    </clipPath>
    <clipPath id="clip-path-2">
      <rect id="Rectangle_13" data-name="Rectangle 13" width="28.637" height="34.639" fill="none"/>
    </clipPath>
    <clipPath id="clip-path-3">
      <rect id="Rectangle_14" data-name="Rectangle 14" width="22.155" height="26.62" fill="none"/>
    </clipPath>
  </defs>
  <g id="SFC_logo" transform="translate(0)">
    <g id="Group_15" data-name="Group 15" transform="translate(0)" clip-path="url(#clip-path)">
      <g id="Group_11" data-name="Group 11" style="mix-blend-mode: normal;isolation: isolate">
        <g id="Group_10" data-name="Group 10">
          <g id="Group_9" data-name="Group 9" clip-path="url(#clip-path-2)">
            <path id="Path_1342" data-name="Path 1342" d="M28.637,30.429a17.319,17.319,0,1,1-.355-26.518,15.059,15.059,0,1,0,.355,26.518" transform="translate(0 0)" fill="#234222"/>
          </g>
        </g>
      </g>
      <g id="Group_14" data-name="Group 14" transform="translate(12.484 4.009)" style="mix-blend-mode: normal;isolation: isolate">
        <g id="Group_13" data-name="Group 13">
          <g id="Group_12" data-name="Group 12" clip-path="url(#clip-path-3)">
            <path id="Path_1343" data-name="Path 1343" d="M168.115,60.181a13.31,13.31,0,0,1-22.155,9.946,11.122,11.122,0,1,0,.208-20.074,13.311,13.311,0,0,1,21.947,10.128" transform="translate(-145.96 -46.87)" fill="#234222"/>
          </g>
        </g>
      </g>
      <path id="Path_1344" data-name="Path 1344" d="M104.076,107.851a5.061,5.061,0,0,1-.611,2.023,20.042,20.042,0,0,1-5.313,6.778,11.778,11.778,0,0,1-1.219.853c-.076.047-.286.151-.551.27a9.678,9.678,0,0,1-1.6-18.1,14.513,14.513,0,0,0-3.121,6.06c-.5,2.405.974,3.607,2.79,3.327a19.077,19.077,0,0,0,3.189-.9,37.061,37.061,0,0,1,4.309-1.324,5.387,5.387,0,0,1,1.1-.127c.754,0,1.067.384,1.034,1.132" transform="translate(-81.598 -91.155)" fill="#0071bd"/>
      <path id="Path_1345" data-name="Path 1345" d="M153.581,98.575a9.676,9.676,0,0,1-8.141,9.553c.2-.18.428-.394.689-.648a22.116,22.116,0,0,0,4.3-6.539,7.083,7.083,0,0,0,.674-2.667c.038-1.985-.892-3.211-3.159-3.243a11.244,11.244,0,0,0-4.022.821q-1.937.711-3.876,1.415a3.475,3.475,0,0,1-1.037.213c-.393.018-.563-.129-.572-.538a5.716,5.716,0,0,1,.443-2.067,16.021,16.021,0,0,1,2.81-4.779,6,6,0,0,1,1.25-1.148c.316-.031.637-.047.961-.047a9.674,9.674,0,0,1,9.675,9.675" transform="translate(-126.6 -81.297)" fill="#0071bd"/>
      <path id="Path_1346" data-name="Path 1346" d="M473.136,61.96a6.525,6.525,0,0,1-2.706-.559,4.908,4.908,0,0,1-1.955-1.5l1.579-1.753a4,4,0,0,0,3.178,1.464,3.224,3.224,0,0,0,2.08-.607,1.753,1.753,0,0,0,.751-1.377,1.305,1.305,0,0,0-.058-.395.832.832,0,0,0-.212-.337q-.154-.154-.279-.26a1.977,1.977,0,0,0-.414-.241q-.289-.134-.462-.2l-.568-.222-.587-.231a6.549,6.549,0,0,1-2.3-1.387,2.924,2.924,0,0,1-.838-2.176A3.949,3.949,0,0,1,471.855,49a5.914,5.914,0,0,1,3.9-1.252,5.993,5.993,0,0,1,4.083,1.444l-1.464,1.791A4.058,4.058,0,0,0,475.7,50a3.18,3.18,0,0,0-1.917.539,1.568,1.568,0,0,0-.741,1.291,1.269,1.269,0,0,0,.5,1.05,6.414,6.414,0,0,0,1.6.819q.712.27,1.05.4a7.853,7.853,0,0,1,.934.482,3.653,3.653,0,0,1,.9.684,3.381,3.381,0,0,1,.539.886,3.015,3.015,0,0,1,.241,1.223,4.091,4.091,0,0,1-1.589,3.255,6.134,6.134,0,0,1-4.074,1.329" transform="translate(-428.408 -43.661)" fill="#0071bd"/>
      <path id="Path_1347" data-name="Path 1347" d="M600,95.938a3.187,3.187,0,0,1,2.456,1.011,3.973,3.973,0,0,1,.934,2.8,7.215,7.215,0,0,1-.626,2.966,5.839,5.839,0,0,1-1.974,2.379,5.224,5.224,0,0,1-3.139.973,4.588,4.588,0,0,1-2-.424l-.674,3.794h-2.639l2.35-13.251h2.485l-.135.751a5.149,5.149,0,0,1,2.966-1m-2.388,7.955a2.585,2.585,0,0,0,2.273-1.2,4.679,4.679,0,0,0,.809-2.668,2.224,2.224,0,0,0-.4-1.416,1.455,1.455,0,0,0-1.213-.51,3.572,3.572,0,0,0-2.253.905l-.79,4.507a3.49,3.49,0,0,0,1.58.385" transform="translate(-541.674 -87.733)" fill="#0071bd"/>
      <path id="Path_1348" data-name="Path 1348" d="M743.277,98.846a3.5,3.5,0,0,1-.087.771,3.093,3.093,0,0,1-1.05,1.628,3.585,3.585,0,0,1-1.165.568,5.737,5.737,0,0,1-1.7.231h-3.062a1.84,1.84,0,0,0,2.08,1.868,6,6,0,0,0,3.12-1.021l.79,1.791a7.4,7.4,0,0,1-4.314,1.348,4.1,4.1,0,0,1-3.034-1.088,3.892,3.892,0,0,1-1.088-2.88,6.026,6.026,0,0,1,.385-2.09,7.11,7.11,0,0,1,1.107-1.965,5.4,5.4,0,0,1,1.907-1.493,5.872,5.872,0,0,1,2.61-.578,3.978,3.978,0,0,1,2.514.77,2.556,2.556,0,0,1,.992,2.138m-3.7-.905a2.9,2.9,0,0,0-1.878.665,3.9,3.9,0,0,0-1.2,1.685h2.812a1.679,1.679,0,0,0,1.2-.395,1.229,1.229,0,0,0,.414-.915.925.925,0,0,0-.347-.761,1.566,1.566,0,0,0-1-.279" transform="translate(-671.005 -87.733)" fill="#0071bd"/>
      <path id="Path_1349" data-name="Path 1349" d="M857.186,106.031a4.167,4.167,0,0,1-2.928-1.04,3.768,3.768,0,0,1-1.137-2.928,6.387,6.387,0,0,1,1.579-4.276,5.332,5.332,0,0,1,4.276-1.849,4.511,4.511,0,0,1,2.417.636,3.166,3.166,0,0,1,1.4,1.83l-2.157.886a1.723,1.723,0,0,0-1.772-1.194,2.66,2.66,0,0,0-2.263,1.146,4.4,4.4,0,0,0-.838,2.668,1.921,1.921,0,0,0,.51,1.464,1.844,1.844,0,0,0,1.319.482,3.511,3.511,0,0,0,2.658-1.579l1.714,1.329a5.675,5.675,0,0,1-2.022,1.762,5.784,5.784,0,0,1-2.754.665" transform="translate(-780.157 -87.733)" fill="#0071bd"/>
      <path id="Path_1350" data-name="Path 1350" d="M980.37,68.756l-.751,4.276a1.471,1.471,0,0,0-.039.385q0,1.04,1.079,1.04a3.688,3.688,0,0,0,1.676-.482l.52,1.945a6.591,6.591,0,0,1-3.159.867q-2.773,0-2.774-2.6a5.39,5.39,0,0,1,.077-.925l.771-4.507h-1.464l.327-1.811h1.445l.5-2.985H981.2l-.5,2.985h3.12l-.327,1.811Z" transform="translate(-892.805 -58.49)" fill="#0071bd"/>
      <path id="Path_1351" data-name="Path 1351" d="M1071.918,95.938a2.662,2.662,0,0,1,1.425.347l-.867,2.08a2.983,2.983,0,0,0-1.1-.212,4.483,4.483,0,0,0-2.754,1.059l-1.156,6.606h-2.658l1.7-9.63h2.562l-.193,1.059a4.635,4.635,0,0,1,3.043-1.31" transform="translate(-973.74 -87.733)" fill="#0071bd"/>
      <path id="Path_1352" data-name="Path 1352" d="M1170.161,98.866h2.6l-1.695,9.65-2.485-.019.193-1.059a6.659,6.659,0,0,1-3.621,1.29,2.521,2.521,0,0,1-2.109-.867,3.005,3.005,0,0,1-.414-2.446l1.136-6.549h2.639l-1.079,6.144a1.646,1.646,0,0,0,.087,1.185.981.981,0,0,0,.876.356,4.775,4.775,0,0,0,2.754-1.136Z" transform="translate(-1063.123 -90.41)" fill="#0071bd"/>
      <path id="Path_1353" data-name="Path 1353" d="M1303.089,95.957a2.942,2.942,0,0,1,1.955.607,2.219,2.219,0,0,1,.722,1.8,7.331,7.331,0,0,1-.077.905l-1.156,6.549h-2.677l1.059-6.029a5.948,5.948,0,0,0,.1-.77q0-.905-1.06-.905a4.493,4.493,0,0,0-2.639,1.079l-1.175,6.626h-2.677l1.1-6.164a3.87,3.87,0,0,0,.058-.636q0-.905-1-.905a4.508,4.508,0,0,0-2.677,1.175l-1.155,6.53H1289.1l1.7-9.63h2.485l-.212,1.194a6.373,6.373,0,0,1,3.775-1.445,2.19,2.19,0,0,1,2.388,1.464,6.641,6.641,0,0,1,3.852-1.445" transform="translate(-1178.851 -87.733)" fill="#0071bd"/>
      <path id="Path_1354" data-name="Path 1354" d="M621.31,279.087h-2.131l-.2,1.154h1.858l-.143.827h-1.858l-.369,2.07h-.97l.792-4.481a.468.468,0,0,1,.171-.287.48.48,0,0,1,.307-.109h2.7Z" transform="translate(-564.68 -254.461)" fill="#234222"/>
      <path id="Path_1355" data-name="Path 1355" d="M660.461,282.407l.608-3.416H662l-.622,3.416Zm1.168-3.825a.437.437,0,0,1-.478-.465.659.659,0,0,1,.174-.471.6.6,0,0,1,.454-.184.475.475,0,0,1,.362.137.435.435,0,0,1,.123.328.67.67,0,0,1-.171.468.6.6,0,0,1-.465.188" transform="translate(-603.974 -253.73)" fill="#234222"/>
      <path id="Path_1356" data-name="Path 1356" d="M683.97,279.653a1.147,1.147,0,0,1,.881.352,1.343,1.343,0,0,1,.328.953,2.389,2.389,0,0,1-.147.83,2.362,2.362,0,0,1-.42.721,1.929,1.929,0,0,1-.71.512,2.415,2.415,0,0,1-.977.191,2.236,2.236,0,0,1-1.38-.383l.792-4.57h.929l-.3,1.715a1.8,1.8,0,0,1,1-.321m-1.018,2.787a1.135,1.135,0,0,0,.929-.43,1.5,1.5,0,0,0,.348-.97.656.656,0,0,0-.157-.471.543.543,0,0,0-.41-.164,1.237,1.237,0,0,0-.827.342l-.287,1.626a1.114,1.114,0,0,0,.4.068" transform="translate(-623.254 -254.46)" fill="#234222"/>
      <path id="Path_1357" data-name="Path 1357" d="M729.911,294.313a.944.944,0,0,1,.505.123l-.307.738a1.058,1.058,0,0,0-.389-.075,1.591,1.591,0,0,0-.977.376l-.41,2.343h-.943l.6-3.416h.909l-.068.376a1.645,1.645,0,0,1,1.079-.465" transform="translate(-665.178 -269.141)" fill="#234222"/>
      <path id="Path_1358" data-name="Path 1358" d="M763.431,295.345a1.243,1.243,0,0,1-.031.273,1.1,1.1,0,0,1-.372.577,1.271,1.271,0,0,1-.413.2,2.031,2.031,0,0,1-.6.082h-1.086a.653.653,0,0,0,.738.663,2.126,2.126,0,0,0,1.106-.362l.28.635a2.626,2.626,0,0,1-1.53.478,1.454,1.454,0,0,1-1.076-.386,1.38,1.38,0,0,1-.386-1.021,2.138,2.138,0,0,1,.137-.741,2.523,2.523,0,0,1,.393-.7,1.914,1.914,0,0,1,.676-.529,2.082,2.082,0,0,1,.926-.205,1.412,1.412,0,0,1,.892.273.907.907,0,0,1,.352.758m-1.311-.321a1.027,1.027,0,0,0-.666.236,1.382,1.382,0,0,0-.427.6h1a.6.6,0,0,0,.427-.14.436.436,0,0,0,.147-.324.328.328,0,0,0-.123-.27.555.555,0,0,0-.355-.1" transform="translate(-695.05 -269.141)" fill="#234222"/>
      <path id="Path_1359" data-name="Path 1359" d="M824.357,282.263a2.029,2.029,0,0,1-1.472-.512,1.932,1.932,0,0,1-.529-1.455,3.265,3.265,0,0,1,.195-1.11,3.4,3.4,0,0,1,.546-.984,2.589,2.589,0,0,1,.905-.71,2.736,2.736,0,0,1,1.216-.27,1.962,1.962,0,0,1,1.141.324,1.613,1.613,0,0,1,.642.9l-.813.348a1.034,1.034,0,0,0-1.052-.717,1.574,1.574,0,0,0-.775.195,1.633,1.633,0,0,0-.567.509,2.56,2.56,0,0,0-.331.683,2.446,2.446,0,0,0-.116.738,1.22,1.22,0,0,0,.3.878,1.094,1.094,0,0,0,.83.311,2.116,2.116,0,0,0,1.476-.7l.567.594a3.024,3.024,0,0,1-.953.71,2.725,2.725,0,0,1-1.206.273" transform="translate(-752.021 -253.512)" fill="#234222"/>
      <path id="Path_1360" data-name="Path 1360" d="M877.421,297.893a1.355,1.355,0,0,1-1.476-1.435,2.7,2.7,0,0,1,.034-.4,2.164,2.164,0,0,1,.673-1.274,1.86,1.86,0,0,1,1.288-.475,1.461,1.461,0,0,1,1.106.393,1.416,1.416,0,0,1,.376,1.021,2.461,2.461,0,0,1-.7,1.687,1.871,1.871,0,0,1-1.3.478m.048-.765a.858.858,0,0,0,.652-.28,1.546,1.546,0,0,0,.359-.792,1.788,1.788,0,0,0,.034-.314.74.74,0,0,0-.15-.492.575.575,0,0,0-.465-.178.862.862,0,0,0-.649.28,1.55,1.55,0,0,0-.362.813,1.6,1.6,0,0,0-.027.3q0,.663.608.663" transform="translate(-801.028 -269.141)" fill="#234222"/>
      <path id="Path_1361" data-name="Path 1361" d="M925.073,294.32a1.044,1.044,0,0,1,.693.215.787.787,0,0,1,.256.639,2.617,2.617,0,0,1-.027.321l-.41,2.323h-.95l.376-2.138a2.1,2.1,0,0,0,.034-.273q0-.321-.376-.321a1.593,1.593,0,0,0-.936.383l-.417,2.35h-.949l.389-2.186a1.379,1.379,0,0,0,.021-.225q0-.321-.355-.321a1.6,1.6,0,0,0-.949.417l-.41,2.316h-.95l.6-3.416h.881l-.075.423a2.26,2.26,0,0,1,1.339-.512.776.776,0,0,1,.847.519,2.356,2.356,0,0,1,1.366-.512" transform="translate(-841.419 -269.141)" fill="#234222"/>
      <path id="Path_1362" data-name="Path 1362" d="M993.355,294.313a1.13,1.13,0,0,1,.871.359,1.409,1.409,0,0,1,.331.994,2.557,2.557,0,0,1-.222,1.052,2.07,2.07,0,0,1-.7.844,1.853,1.853,0,0,1-1.114.345,1.627,1.627,0,0,1-.71-.15l-.239,1.346h-.936l.833-4.7h.881l-.048.266a1.827,1.827,0,0,1,1.052-.355m-.847,2.821a.917.917,0,0,0,.806-.427,1.659,1.659,0,0,0,.287-.946.788.788,0,0,0-.143-.5.516.516,0,0,0-.43-.181,1.267,1.267,0,0,0-.8.321l-.28,1.6a1.237,1.237,0,0,0,.56.137" transform="translate(-905.909 -269.141)" fill="#234222"/>
      <path id="Path_1363" data-name="Path 1363" d="M1043.736,294.4h.854l-.6,3.415h-.847l.062-.342a1.472,1.472,0,0,1-1.052.423,1.216,1.216,0,0,1-.933-.369,1.412,1.412,0,0,1-.345-1,2.627,2.627,0,0,1,.212-1.038,2.049,2.049,0,0,1,.652-.837,1.611,1.611,0,0,1,1.008-.338,1.034,1.034,0,0,1,.929.444Zm-1.3,2.739a.845.845,0,0,0,.471-.133.917.917,0,0,0,.318-.348,2.063,2.063,0,0,0,.171-.441,1.813,1.813,0,0,0,.058-.451q0-.69-.628-.69a.839.839,0,0,0-.765.43,1.8,1.8,0,0,0-.26.949q.006.683.635.683" transform="translate(-951.851 -269.142)" fill="#234222"/>
      <path id="Path_1364" data-name="Path 1364" d="M1089.647,294.313a.969.969,0,0,1,.666.215.81.81,0,0,1,.242.639,2.27,2.27,0,0,1-.034.383l-.4,2.268h-.95l.362-2.022a1.892,1.892,0,0,0,.048-.376q0-.334-.369-.335a1.68,1.68,0,0,0-.963.376l-.41,2.357h-.957l.6-3.416h.881l-.061.362a2.414,2.414,0,0,1,1.346-.451" transform="translate(-993.922 -269.141)" fill="#234222"/>
      <path id="Path_1365" data-name="Path 1365" d="M1135.348,295.352h.915l-.506,2.883a2.034,2.034,0,0,1-2.145,1.94,2.218,2.218,0,0,1-.97-.191l.239-.71a2.151,2.151,0,0,0,.738.137,1.142,1.142,0,0,0,.786-.249,1.379,1.379,0,0,0,.4-.727,1.853,1.853,0,0,1-1.107.41.994.994,0,0,1-.693-.232.832.832,0,0,1-.256-.649,1.511,1.511,0,0,1,.027-.294l.41-2.316h.9l-.376,2.1a1.363,1.363,0,0,0-.034.266q0,.348.4.348a1.567,1.567,0,0,0,.854-.328Z" transform="translate(-1035.771 -270.091)" fill="#234222"/>
      <path id="Path_1366" data-name="Path 1366" d="M1197.6,283.137a.32.32,0,0,1-.263-.113.341.341,0,0,1-.065-.284l.792-4.481h.963l-.71,4.058h2.111l-.143.82Z" transform="translate(-1094.865 -254.461)" fill="#234222"/>
      <path id="Path_1367" data-name="Path 1367" d="M1238.231,282.407l.608-3.416h.936l-.621,3.416Zm1.168-3.825a.437.437,0,0,1-.478-.465.658.658,0,0,1,.174-.471.6.6,0,0,1,.454-.184.475.475,0,0,1,.362.137.435.435,0,0,1,.123.328.671.671,0,0,1-.171.468.6.6,0,0,1-.465.188" transform="translate(-1132.328 -253.73)" fill="#234222"/>
      <path id="Path_1368" data-name="Path 1368" d="M1263.794,294.32a1.043,1.043,0,0,1,.693.215.786.786,0,0,1,.256.639,2.619,2.619,0,0,1-.027.321l-.41,2.323h-.949l.375-2.138a2.073,2.073,0,0,0,.034-.273q0-.321-.376-.321a1.593,1.593,0,0,0-.936.383l-.417,2.35h-.949l.389-2.186a1.365,1.365,0,0,0,.021-.225q0-.321-.355-.321a1.6,1.6,0,0,0-.95.417l-.41,2.316h-.95l.6-3.416h.881l-.075.423a2.26,2.26,0,0,1,1.339-.512.777.777,0,0,1,.847.519,2.355,2.355,0,0,1,1.366-.512" transform="translate(-1151.17 -269.141)" fill="#234222"/>
      <path id="Path_1369" data-name="Path 1369" d="M1331.756,282.407l.608-3.416h.936l-.622,3.416Zm1.168-3.825a.437.437,0,0,1-.478-.465.658.658,0,0,1,.174-.471.6.6,0,0,1,.454-.184.475.475,0,0,1,.362.137.436.436,0,0,1,.123.328.67.67,0,0,1-.171.468.6.6,0,0,1-.464.188" transform="translate(-1217.854 -253.73)" fill="#234222"/>
      <path id="Path_1370" data-name="Path 1370" d="M1356.117,284.673l-.266,1.516a.514.514,0,0,0-.014.137q0,.369.382.369a1.308,1.308,0,0,0,.594-.171l.184.69a2.337,2.337,0,0,1-1.12.307q-.984,0-.984-.922a1.915,1.915,0,0,1,.027-.328l.273-1.6h-.519l.116-.642h.512l.178-1.059h.929l-.178,1.059h1.107l-.116.642Z" transform="translate(-1238.814 -258.77)" fill="#234222"/>
      <path id="Path_1371" data-name="Path 1371" d="M1390,295.345a1.239,1.239,0,0,1-.031.273,1.042,1.042,0,0,1-.126.3,1.029,1.029,0,0,1-.246.28,1.27,1.27,0,0,1-.413.2,2.031,2.031,0,0,1-.6.082h-1.086a.652.652,0,0,0,.738.663,2.129,2.129,0,0,0,1.107-.362l.28.635a2.625,2.625,0,0,1-1.53.478,1.453,1.453,0,0,1-1.076-.386,1.38,1.38,0,0,1-.386-1.021,2.139,2.139,0,0,1,.137-.741,2.52,2.52,0,0,1,.393-.7,1.913,1.913,0,0,1,.676-.529,2.081,2.081,0,0,1,.926-.205,1.41,1.41,0,0,1,.891.273.906.906,0,0,1,.352.758m-1.311-.321a1.027,1.027,0,0,0-.666.236,1.381,1.381,0,0,0-.427.6h1a.6.6,0,0,0,.427-.14.435.435,0,0,0,.147-.324.328.328,0,0,0-.123-.27.555.555,0,0,0-.355-.1" transform="translate(-1268.03 -269.141)" fill="#234222"/>
      <path id="Path_1372" data-name="Path 1372" d="M1431.982,278.259h.922l-.861,4.877h-.874l.055-.294a1.741,1.741,0,0,1-1.052.376,1.139,1.139,0,0,1-.881-.365,1.445,1.445,0,0,1-.335-1.014,2.578,2.578,0,0,1,.215-1.045,2.012,2.012,0,0,1,.672-.827,1.78,1.78,0,0,1,1.079-.335,1.312,1.312,0,0,1,.779.232Zm-2.083,3.518q0,.683.581.683a1.23,1.23,0,0,0,.833-.369l.253-1.448a.868.868,0,0,0-.608-.239.878.878,0,0,0-.789.424,1.731,1.731,0,0,0-.27.95" transform="translate(-1306.741 -254.46)" fill="#234222"/>
    </g>
  </g>
</svg>
