<svg xmlns="http://www.w3.org/2000/svg" xmlns:xlink="http://www.w3.org/1999/xlink" width="161.043" height="43.953" viewBox="0 0 161.043 43.953">
  <defs>
    <clipPath id="clip-path">
      <rect id="Rectangle_15" data-name="Rectangle 15" width="161.043" height="43.953" fill="none"/>
    </clipPath>
    <clipPath id="clip-path-2">
      <rect id="Rectangle_13" data-name="Rectangle 13" width="36.338" height="43.953" fill="#fff"/>
    </clipPath>
    <clipPath id="clip-path-3">
      <rect id="Rectangle_14" data-name="Rectangle 14" width="28.113" height="33.779" fill="#fff"/>
    </clipPath>
  </defs>
  <g id="sfc" transform="translate(0)">
    <g id="Group_15" data-name="Group 15" transform="translate(0)" clip-path="url(#clip-path)">
      <path id="Path_1344" data-name="Path 1344" d="M108.068,110.049a6.422,6.422,0,0,1-.775,2.567,25.431,25.431,0,0,1-6.742,8.6A14.935,14.935,0,0,1,99,122.3c-.1.06-.362.191-.7.343A12.28,12.28,0,0,1,96.271,99.68a18.416,18.416,0,0,0-3.96,7.69c-.639,3.052,1.236,4.577,3.54,4.222a24.206,24.206,0,0,0,4.047-1.14,47.024,47.024,0,0,1,5.468-1.68,6.836,6.836,0,0,1,1.39-.161c.956,0,1.354.487,1.312,1.437" transform="translate(-79.546 -88.862)" fill="#0071bd"/>
      <path id="Path_1345" data-name="Path 1345" d="M157.652,101.176a12.278,12.278,0,0,1-10.33,12.122c.253-.229.543-.5.875-.823a28.062,28.062,0,0,0,5.461-8.3,8.987,8.987,0,0,0,.855-3.384c.048-2.519-1.132-4.074-4.008-4.115a14.268,14.268,0,0,0-5.1,1.042q-2.458.9-4.918,1.8a4.41,4.41,0,0,1-1.316.27c-.5.023-.714-.164-.726-.683A7.253,7.253,0,0,1,139,96.481a20.329,20.329,0,0,1,3.566-6.064,7.608,7.608,0,0,1,1.587-1.456c.4-.039.809-.06,1.22-.06a12.276,12.276,0,0,1,12.276,12.276" transform="translate(-123.416 -79.252)" fill="#0071bd"/>
      <path id="Path_1346" data-name="Path 1346" d="M474.39,65.782a8.28,8.28,0,0,1-3.434-.709,6.228,6.228,0,0,1-2.481-1.906l2-2.224a5.075,5.075,0,0,0,4.033,1.857,4.092,4.092,0,0,0,2.64-.77,2.224,2.224,0,0,0,.953-1.748,1.655,1.655,0,0,0-.073-.5,1.056,1.056,0,0,0-.269-.428q-.2-.2-.354-.33a2.513,2.513,0,0,0-.525-.306q-.367-.171-.587-.257l-.721-.281q-.5-.2-.745-.293a8.31,8.31,0,0,1-2.921-1.76,3.71,3.71,0,0,1-1.063-2.762,5.011,5.011,0,0,1,1.919-4.033,7.5,7.5,0,0,1,4.949-1.588,7.605,7.605,0,0,1,5.181,1.833l-1.858,2.273a5.149,5.149,0,0,0-3.4-1.247,4.036,4.036,0,0,0-2.432.684,1.99,1.99,0,0,0-.941,1.638,1.61,1.61,0,0,0,.635,1.332,8.139,8.139,0,0,0,2.029,1.039q.9.343,1.332.513a9.966,9.966,0,0,1,1.185.611,4.635,4.635,0,0,1,1.136.868,4.291,4.291,0,0,1,.684,1.124,3.826,3.826,0,0,1,.305,1.552,5.192,5.192,0,0,1-2.016,4.131,7.784,7.784,0,0,1-5.169,1.686" transform="translate(-417.633 -42.563)" fill="#0071bd"/>
      <path id="Path_1347" data-name="Path 1347" d="M602.062,95.938a4.044,4.044,0,0,1,3.116,1.283,5.042,5.042,0,0,1,1.185,3.556,9.154,9.154,0,0,1-.794,3.764,7.41,7.41,0,0,1-2.505,3.018,6.629,6.629,0,0,1-3.984,1.234,5.822,5.822,0,0,1-2.542-.538l-.855,4.815h-3.348l2.982-16.815h3.153l-.171.953a6.533,6.533,0,0,1,3.764-1.271m-3.03,10.094a3.28,3.28,0,0,0,2.884-1.528,5.938,5.938,0,0,0,1.026-3.385,2.822,2.822,0,0,0-.513-1.8,1.846,1.846,0,0,0-1.54-.648,4.533,4.533,0,0,0-2.859,1.149l-1,5.719a4.429,4.429,0,0,0,2,.489" transform="translate(-528.051 -85.526)" fill="#0071bd"/>
      <path id="Path_1348" data-name="Path 1348" d="M745.836,99.628a4.444,4.444,0,0,1-.11.978,3.924,3.924,0,0,1-1.332,2.065,4.548,4.548,0,0,1-1.479.721,7.278,7.278,0,0,1-2.163.293h-3.886a2.335,2.335,0,0,0,2.64,2.371,7.614,7.614,0,0,0,3.959-1.3l1,2.273a9.4,9.4,0,0,1-5.475,1.711,5.2,5.2,0,0,1-3.849-1.381,4.939,4.939,0,0,1-1.381-3.654,7.647,7.647,0,0,1,.489-2.652,9.022,9.022,0,0,1,1.405-2.493,6.845,6.845,0,0,1,2.42-1.894,7.452,7.452,0,0,1,3.312-.733,5.048,5.048,0,0,1,3.189.978,3.243,3.243,0,0,1,1.259,2.713m-4.693-1.149a3.674,3.674,0,0,0-2.383.843,4.948,4.948,0,0,0-1.527,2.139H740.8a2.131,2.131,0,0,0,1.527-.5,1.559,1.559,0,0,0,.526-1.161,1.174,1.174,0,0,0-.44-.965,1.986,1.986,0,0,0-1.271-.354" transform="translate(-654.13 -85.526)" fill="#0071bd"/>
      <path id="Path_1349" data-name="Path 1349" d="M858.279,108.745a5.287,5.287,0,0,1-3.715-1.32,4.781,4.781,0,0,1-1.442-3.715,8.105,8.105,0,0,1,2-5.426,6.766,6.766,0,0,1,5.426-2.346,5.724,5.724,0,0,1,3.067.807,4.016,4.016,0,0,1,1.772,2.322l-2.737,1.124a2.186,2.186,0,0,0-2.248-1.515,3.375,3.375,0,0,0-2.872,1.454,5.584,5.584,0,0,0-1.063,3.385,2.438,2.438,0,0,0,.648,1.857,2.34,2.34,0,0,0,1.674.611,4.455,4.455,0,0,0,3.373-2l2.175,1.686a7.2,7.2,0,0,1-2.566,2.236,7.338,7.338,0,0,1-3.495.843" transform="translate(-760.536 -85.526)" fill="#0071bd"/>
      <path id="Path_1350" data-name="Path 1350" d="M981.463,70.046l-.953,5.426a1.868,1.868,0,0,0-.049.489q0,1.32,1.369,1.32a4.678,4.678,0,0,0,2.126-.611l.66,2.468a8.362,8.362,0,0,1-4.008,1.1q-3.519,0-3.519-3.3a6.829,6.829,0,0,1,.1-1.173l.978-5.719h-1.858l.416-2.3h1.833l.635-3.788h3.324l-.635,3.788h3.959l-.416,2.3Z" transform="translate(-870.351 -57.019)" fill="#0071bd"/>
      <path id="Path_1351" data-name="Path 1351" d="M1073.829,95.938a3.378,3.378,0,0,1,1.808.44l-1.1,2.639a3.784,3.784,0,0,0-1.393-.269,5.689,5.689,0,0,0-3.495,1.344l-1.466,8.383h-3.373l2.151-12.22h3.251l-.245,1.344a5.881,5.881,0,0,1,3.862-1.662" transform="translate(-949.25 -85.526)" fill="#0071bd"/>
      <path id="Path_1352" data-name="Path 1352" d="M1172.206,98.866h3.3l-2.151,12.245-3.153-.024.244-1.344a8.449,8.449,0,0,1-4.595,1.637,3.2,3.2,0,0,1-2.676-1.1,3.814,3.814,0,0,1-.526-3.1l1.442-8.31h3.348l-1.369,7.8a2.088,2.088,0,0,0,.11,1.5,1.246,1.246,0,0,0,1.112.452,6.059,6.059,0,0,0,3.495-1.442Z" transform="translate(-1036.386 -88.136)" fill="#0071bd"/>
      <path id="Path_1353" data-name="Path 1353" d="M1306.849,95.962a3.734,3.734,0,0,1,2.481.77,2.816,2.816,0,0,1,.917,2.285,9.271,9.271,0,0,1-.1,1.149l-1.466,8.31h-3.4l1.344-7.65a7.521,7.521,0,0,0,.122-.977q0-1.149-1.344-1.149a5.7,5.7,0,0,0-3.348,1.369l-1.491,8.408h-3.4l1.393-7.821a4.94,4.94,0,0,0,.073-.806q0-1.149-1.271-1.149a5.72,5.72,0,0,0-3.4,1.491l-1.466,8.285h-3.4l2.151-12.22h3.153l-.269,1.515a8.088,8.088,0,0,1,4.79-1.833q2.443,0,3.031,1.858a8.426,8.426,0,0,1,4.888-1.833" transform="translate(-1149.203 -85.526)" fill="#0071bd"/>
      <g id="Group_117" data-name="Group 117">
        <g id="Group_11" data-name="Group 11" style="mix-blend-mode: normal;isolation: isolate">
          <g id="Group_10" data-name="Group 10">
            <g id="Group_9" data-name="Group 9" clip-path="url(#clip-path-2)">
              <path id="Path_1342" data-name="Path 1342" d="M36.338,38.611a21.976,21.976,0,1,1-.45-33.649,19.108,19.108,0,1,0,.45,33.649" fill="#fff"/>
            </g>
          </g>
        </g>
        <g id="Group_14" data-name="Group 14" transform="translate(15.84 5.086)" style="mix-blend-mode: normal;isolation: isolate">
          <g id="Group_13" data-name="Group 13">
            <g id="Group_12" data-name="Group 12" clip-path="url(#clip-path-3)">
              <path id="Path_1343" data-name="Path 1343" d="M174.073,63.76A16.889,16.889,0,0,1,145.96,76.38a14.112,14.112,0,1,0,.264-25.472A16.89,16.89,0,0,1,174.073,63.76" transform="translate(-145.96 -46.87)" fill="#fff"/>
            </g>
          </g>
        </g>
        <g id="Group_116" data-name="Group 116">
          <path id="Path_1354" data-name="Path 1354" d="M622.337,279.309h-2.7l-.26,1.465h2.358l-.182,1.049h-2.358l-.468,2.626h-1.231l1.005-5.686a.594.594,0,0,1,.217-.364.609.609,0,0,1,.39-.139h3.424Z" transform="translate(-550.479 -248.063)" fill="#fff"/>
          <path id="Path_1355" data-name="Path 1355" d="M660.461,283.737l.771-4.334h1.188l-.789,4.334Zm1.482-4.854a.554.554,0,0,1-.607-.59.836.836,0,0,1,.221-.6.756.756,0,0,1,.576-.234.6.6,0,0,1,.459.173.553.553,0,0,1,.156.416.85.85,0,0,1-.217.594.757.757,0,0,1-.589.238" transform="translate(-588.783 -247.35)" fill="#fff"/>
          <path id="Path_1356" data-name="Path 1356" d="M684.622,280.027a1.455,1.455,0,0,1,1.118.446,1.7,1.7,0,0,1,.416,1.209,3.031,3.031,0,0,1-.186,1.053,3,3,0,0,1-.533.915,2.448,2.448,0,0,1-.9.65,3.065,3.065,0,0,1-1.24.243,2.838,2.838,0,0,1-1.751-.485l1.006-5.8h1.179l-.381,2.176a2.278,2.278,0,0,1,1.274-.407m-1.291,3.537a1.44,1.44,0,0,0,1.179-.546,1.905,1.905,0,0,0,.442-1.231.832.832,0,0,0-.2-.6.689.689,0,0,0-.52-.208,1.57,1.57,0,0,0-1.049.433l-.364,2.063a1.414,1.414,0,0,0,.511.087" transform="translate(-607.58 -248.061)" fill="#fff"/>
          <path id="Path_1357" data-name="Path 1357" d="M730.589,294.313a1.2,1.2,0,0,1,.641.156l-.39.936a1.342,1.342,0,0,0-.494-.1,2.017,2.017,0,0,0-1.24.477l-.52,2.973h-1.2l.763-4.334h1.153l-.087.477a2.086,2.086,0,0,1,1.37-.59" transform="translate(-648.449 -262.373)" fill="#fff"/>
          <path id="Path_1358" data-name="Path 1358" d="M764.338,295.622a1.57,1.57,0,0,1-.039.347,1.394,1.394,0,0,1-.473.732,1.614,1.614,0,0,1-.524.256,2.58,2.58,0,0,1-.767.1h-1.378a.828.828,0,0,0,.936.841,2.7,2.7,0,0,0,1.4-.46l.355.806a3.333,3.333,0,0,1-1.942.607,1.845,1.845,0,0,1-1.365-.49,1.751,1.751,0,0,1-.49-1.3,2.713,2.713,0,0,1,.174-.94,3.2,3.2,0,0,1,.5-.884,2.428,2.428,0,0,1,.858-.672,2.642,2.642,0,0,1,1.175-.26,1.791,1.791,0,0,1,1.131.347,1.15,1.15,0,0,1,.446.962m-1.664-.407a1.3,1.3,0,0,0-.845.3,1.754,1.754,0,0,0-.542.758h1.266a.756.756,0,0,0,.542-.178.553.553,0,0,0,.186-.412.416.416,0,0,0-.156-.342.7.7,0,0,0-.451-.126" transform="translate(-677.57 -262.373)" fill="#fff"/>
          <path id="Path_1359" data-name="Path 1359" d="M824.895,283.619a2.574,2.574,0,0,1-1.868-.65,2.45,2.45,0,0,1-.672-1.846,4.144,4.144,0,0,1,.247-1.408,4.318,4.318,0,0,1,.694-1.248,3.284,3.284,0,0,1,1.148-.9,3.471,3.471,0,0,1,1.543-.342,2.49,2.49,0,0,1,1.448.412,2.047,2.047,0,0,1,.815,1.14l-1.031.442a1.312,1.312,0,0,0-1.335-.91,2,2,0,0,0-.984.247,2.071,2.071,0,0,0-.719.646,3.241,3.241,0,0,0-.42.867,3.1,3.1,0,0,0-.147.936,1.548,1.548,0,0,0,.377,1.114,1.388,1.388,0,0,0,1.053.394,2.685,2.685,0,0,0,1.872-.893l.72.754a3.839,3.839,0,0,1-1.209.9,3.46,3.46,0,0,1-1.53.347" transform="translate(-733.109 -247.137)" fill="#fff"/>
          <path id="Path_1360" data-name="Path 1360" d="M877.817,298.855a1.72,1.72,0,0,1-1.872-1.82,3.4,3.4,0,0,1,.043-.5,2.747,2.747,0,0,1,.854-1.616,2.36,2.36,0,0,1,1.634-.6,1.854,1.854,0,0,1,1.4.5,1.8,1.8,0,0,1,.477,1.3,3.123,3.123,0,0,1-.888,2.141,2.374,2.374,0,0,1-1.651.607m.061-.971a1.089,1.089,0,0,0,.828-.355,1.961,1.961,0,0,0,.455-1.006,2.255,2.255,0,0,0,.043-.4.937.937,0,0,0-.191-.624.73.73,0,0,0-.589-.225,1.094,1.094,0,0,0-.823.355,1.967,1.967,0,0,0-.459,1.032,2.034,2.034,0,0,0-.035.381q0,.841.771.841" transform="translate(-780.883 -262.373)" fill="#fff"/>
          <path id="Path_1361" data-name="Path 1361" d="M926.407,294.322a1.324,1.324,0,0,1,.88.273,1,1,0,0,1,.325.81,3.316,3.316,0,0,1-.035.407l-.52,2.947h-1.2l.477-2.713a2.663,2.663,0,0,0,.043-.347q0-.407-.477-.407a2.022,2.022,0,0,0-1.187.485l-.529,2.982h-1.2l.494-2.774a1.75,1.75,0,0,0,.026-.286q0-.407-.451-.407a2.028,2.028,0,0,0-1.2.529l-.52,2.939h-1.2l.763-4.334H922l-.1.537a2.869,2.869,0,0,1,1.7-.65.985.985,0,0,1,1.075.659,2.989,2.989,0,0,1,1.734-.65" transform="translate(-820.258 -262.373)" fill="#fff"/>
          <path id="Path_1362" data-name="Path 1362" d="M994.086,294.313a1.434,1.434,0,0,1,1.105.455,1.788,1.788,0,0,1,.42,1.261,3.245,3.245,0,0,1-.282,1.335,2.627,2.627,0,0,1-.888,1.07,2.351,2.351,0,0,1-1.413.438,2.065,2.065,0,0,1-.9-.191l-.3,1.708h-1.188l1.057-5.964h1.118l-.061.338a2.318,2.318,0,0,1,1.335-.451m-1.075,3.58a1.163,1.163,0,0,0,1.023-.542,2.105,2.105,0,0,0,.364-1.2,1,1,0,0,0-.182-.637.655.655,0,0,0-.546-.23,1.608,1.608,0,0,0-1.014.408l-.355,2.028a1.571,1.571,0,0,0,.711.173" transform="translate(-883.127 -262.373)" fill="#fff"/>
          <path id="Path_1363" data-name="Path 1363" d="M1044.506,294.427h1.084l-.763,4.334h-1.075l.078-.433a1.868,1.868,0,0,1-1.335.537,1.542,1.542,0,0,1-1.183-.468,1.792,1.792,0,0,1-.438-1.274,3.337,3.337,0,0,1,.269-1.318,2.6,2.6,0,0,1,.828-1.062,2.043,2.043,0,0,1,1.278-.429,1.311,1.311,0,0,1,1.179.564Zm-1.656,3.476a1.073,1.073,0,0,0,.6-.169,1.163,1.163,0,0,0,.4-.442,2.6,2.6,0,0,0,.217-.559,2.293,2.293,0,0,0,.073-.572q0-.875-.8-.875a1.065,1.065,0,0,0-.971.546,2.288,2.288,0,0,0-.329,1.2q.008.867.806.867" transform="translate(-927.912 -262.373)" fill="#fff"/>
          <path id="Path_1364" data-name="Path 1364" d="M1090.391,294.313a1.229,1.229,0,0,1,.845.273,1.028,1.028,0,0,1,.307.81,2.876,2.876,0,0,1-.043.485l-.511,2.878h-1.205l.46-2.566a2.394,2.394,0,0,0,.06-.477q0-.425-.468-.425a2.131,2.131,0,0,0-1.222.477l-.52,2.99h-1.214l.763-4.334h1.118l-.078.459a3.064,3.064,0,0,1,1.708-.572" transform="translate(-968.926 -262.373)" fill="#fff"/>
          <path id="Path_1365" data-name="Path 1365" d="M1136.076,295.352h1.161l-.641,3.658a2.582,2.582,0,0,1-2.722,2.462,2.815,2.815,0,0,1-1.231-.243l.3-.9a2.731,2.731,0,0,0,.936.173,1.449,1.449,0,0,0,1-.316,1.752,1.752,0,0,0,.5-.923,2.352,2.352,0,0,1-1.4.52,1.261,1.261,0,0,1-.88-.295,1.055,1.055,0,0,1-.325-.823,1.906,1.906,0,0,1,.035-.373l.52-2.938h1.144l-.477,2.67a1.732,1.732,0,0,0-.043.338q0,.442.511.442a1.988,1.988,0,0,0,1.084-.416Z" transform="translate(-1009.723 -263.299)" fill="#fff"/>
          <path id="Path_1366" data-name="Path 1366" d="M1197.688,284.449a.406.406,0,0,1-.334-.143.434.434,0,0,1-.083-.36l1.006-5.686h1.222l-.9,5.149h2.678l-.182,1.04Z" transform="translate(-1067.33 -248.063)" fill="#fff"/>
          <path id="Path_1367" data-name="Path 1367" d="M1238.231,283.737,1239,279.4h1.188l-.789,4.334Zm1.482-4.854a.554.554,0,0,1-.607-.59.835.835,0,0,1,.221-.6.756.756,0,0,1,.576-.234.6.6,0,0,1,.459.173.554.554,0,0,1,.156.416.85.85,0,0,1-.217.594.757.757,0,0,1-.59.238" transform="translate(-1103.852 -247.35)" fill="#fff"/>
          <path id="Path_1368" data-name="Path 1368" d="M1265.128,294.322a1.324,1.324,0,0,1,.88.273,1,1,0,0,1,.325.81,3.312,3.312,0,0,1-.035.407l-.52,2.947h-1.2l.477-2.713a2.638,2.638,0,0,0,.043-.347q0-.407-.477-.407a2.022,2.022,0,0,0-1.187.485l-.529,2.982h-1.2l.494-2.774a1.749,1.749,0,0,0,.026-.286q0-.407-.451-.407a2.028,2.028,0,0,0-1.2.529l-.52,2.939h-1.2l.763-4.334h1.118l-.1.537a2.868,2.868,0,0,1,1.7-.65.985.985,0,0,1,1.075.659,2.989,2.989,0,0,1,1.734-.65" transform="translate(-1122.219 -262.373)" fill="#fff"/>
          <path id="Path_1369" data-name="Path 1369" d="M1331.756,283.737l.771-4.334h1.188l-.789,4.334Zm1.482-4.854a.554.554,0,0,1-.607-.59.836.836,0,0,1,.221-.6.757.757,0,0,1,.576-.234.6.6,0,0,1,.459.173.554.554,0,0,1,.156.416.85.85,0,0,1-.217.594.757.757,0,0,1-.59.238" transform="translate(-1187.227 -247.35)" fill="#fff"/>
          <path id="Path_1370" data-name="Path 1370" d="M1356.5,285.13l-.338,1.924a.663.663,0,0,0-.017.173q0,.468.485.468a1.659,1.659,0,0,0,.754-.217l.234.875a2.965,2.965,0,0,1-1.421.39q-1.248,0-1.248-1.17a2.443,2.443,0,0,1,.035-.416l.347-2.028h-.659l.147-.815h.65l.226-1.344h1.179l-.226,1.344h1.4l-.147.815Z" transform="translate(-1207.658 -252.262)" fill="#fff"/>
          <path id="Path_1371" data-name="Path 1371" d="M1390.907,295.622a1.566,1.566,0,0,1-.039.347,1.393,1.393,0,0,1-.472.732,1.613,1.613,0,0,1-.524.256,2.578,2.578,0,0,1-.767.1h-1.378a.828.828,0,0,0,.936.841,2.7,2.7,0,0,0,1.4-.46l.355.806a3.332,3.332,0,0,1-1.941.607,1.845,1.845,0,0,1-1.365-.49,1.752,1.752,0,0,1-.49-1.3,2.711,2.711,0,0,1,.173-.94,3.2,3.2,0,0,1,.5-.884,2.428,2.428,0,0,1,.858-.672,2.641,2.641,0,0,1,1.175-.26,1.79,1.79,0,0,1,1.131.347,1.15,1.15,0,0,1,.446.962m-1.664-.407a1.3,1.3,0,0,0-.845.3,1.755,1.755,0,0,0-.542.758h1.266a.756.756,0,0,0,.542-.178.552.552,0,0,0,.186-.412.416.416,0,0,0-.156-.342.7.7,0,0,0-.451-.126" transform="translate(-1236.141 -262.373)" fill="#fff"/>
          <path id="Path_1372" data-name="Path 1372" d="M1432.8,278.259h1.17l-1.092,6.189h-1.11l.07-.373a2.209,2.209,0,0,1-1.335.477,1.444,1.444,0,0,1-1.118-.464,1.834,1.834,0,0,1-.425-1.287,3.269,3.269,0,0,1,.273-1.326,2.554,2.554,0,0,1,.854-1.049,2.258,2.258,0,0,1,1.37-.425,1.666,1.666,0,0,1,.988.295Zm-2.644,4.464q0,.867.737.867a1.561,1.561,0,0,0,1.057-.468l.321-1.838a1.1,1.1,0,0,0-.771-.3,1.114,1.114,0,0,0-1,.537,2.2,2.2,0,0,0-.342,1.2" transform="translate(-1273.877 -248.061)" fill="#fff"/>
        </g>
      </g>
    </g>
  </g>
</svg>
